<svg width="27" height="26" viewBox="0 0 27 26" fill="none" xmlns="http://www.w3.org/2000/svg">
<path d="M13.316 24.9954L13.316 24.9952L12.0928 14.8836L1.38777 13.0896L1.38765 13.0896L1.40418 12.9909L13.316 24.9954ZM13.316 24.9954C13.3475 25.2508 13.5427 25.457 13.7969 25.5005L13.316 24.9954ZM1.24046 11.9826L1.24029 11.9826L25.2718 0.95338L1.24046 11.9826ZM12.7166 13.804L3.45505 12.2513L24.2594 2.70353L14.2408 22.9137L13.2003 14.3099L13.2003 14.3097C13.1688 14.0529 12.9721 13.8467 12.7166 13.804ZM25.9349 1.07772C25.7625 0.899616 25.4967 0.850002 25.2719 0.953353L25.9349 1.07772Z" fill="#98A6C4" stroke="#98A6C4" stroke-width="0.2"/>
</svg>
