<svg width="30" height="22" viewBox="0 0 30 22" fill="none" xmlns="http://www.w3.org/2000/svg">
<path d="M4.35087 3.339L4.35 3.34704V3.35513V7.90343C4.33399 8.89452 3.84121 9.81714 3.02634 10.3816L2.84832 10.5049L3.02634 10.6282C3.84121 11.1926 4.33399 12.1152 4.35 13.1063V17.6546V17.6627L4.35087 17.6708C4.48123 18.8757 5.54914 19.756 6.75603 19.6549C7.08462 19.6581 7.35 19.9255 7.35 20.2549C7.35 20.5863 7.08137 20.8549 6.75 20.8549V20.8547L6.74223 20.8551C4.86836 20.9523 3.2661 19.5223 3.15 17.65V13.1051V13.097L3.14913 13.089C3.01877 11.8841 1.95086 11.0038 0.743962 11.1049C0.415372 11.1016 0.15 10.8342 0.15 10.5049C0.15 10.1755 0.415391 9.90814 0.743997 9.90491C1.95088 10.006 3.01877 9.12569 3.14913 7.92077L3.15 7.91272V7.90463V3.35973C3.2661 1.48749 4.86836 0.0574522 6.74223 0.154682L6.74222 0.154883H6.75C7.08137 0.154883 7.35 0.423512 7.35 0.754883C7.35 1.08424 7.08463 1.35162 6.75603 1.35485C5.54914 1.25379 4.48123 2.13407 4.35087 3.339Z" fill="#98A6C4" stroke="#98A6C4" stroke-width="0.3"/>
<path d="M26.8509 13.089L26.85 13.097V13.1051V17.65C26.7339 19.5223 25.1316 20.9523 23.2578 20.8551L23.2578 20.8549H23.25C22.9186 20.8549 22.65 20.5863 22.65 20.2549C22.65 19.9256 22.9153 19.6582 23.2439 19.6549C24.4508 19.756 25.5188 18.8757 25.6491 17.6708L25.65 17.6627V17.6546V13.1063C25.666 12.1152 26.1588 11.1926 26.9737 10.6282L27.1517 10.5049L26.9737 10.3816C26.1588 9.81714 25.666 8.89453 25.65 7.90345V3.35513V3.34704L25.6491 3.339C25.5188 2.13407 24.4509 1.25379 23.244 1.35485C22.9154 1.35162 22.65 1.08424 22.65 0.754883C22.65 0.423512 22.9186 0.154883 23.25 0.154883V0.155085L23.2578 0.154682C25.1316 0.0574522 26.7339 1.4875 26.85 3.35973V7.90463V7.91272L26.8509 7.92077C26.9812 9.1257 28.0491 10.006 29.256 9.90491C29.5846 9.90815 29.85 10.1755 29.85 10.5049C29.85 10.8342 29.5846 11.1016 29.256 11.1049C28.0491 11.0038 26.9812 11.8841 26.8509 13.089Z" fill="#98A6C4" stroke="#98A6C4" stroke-width="0.3"/>
<path d="M9.75 15.9049C10.2471 15.9049 10.65 15.5019 10.65 15.0049C10.65 14.5078 10.2471 14.1049 9.75 14.1049C9.25294 14.1049 8.85 14.5078 8.85 15.0049C8.85 15.5019 9.25294 15.9049 9.75 15.9049Z" fill="#98A6C4" stroke="#98A6C4" stroke-width="0.3"/>
<path d="M15.001 15.9049C15.498 15.9049 15.901 15.5019 15.901 15.0049C15.901 14.5078 15.498 14.1049 15.001 14.1049C14.5039 14.1049 14.101 14.5078 14.101 15.0049C14.101 15.5019 14.5039 15.9049 15.001 15.9049Z" fill="#98A6C4" stroke="#98A6C4" stroke-width="0.3"/>
<path d="M20.25 15.9049C20.7471 15.9049 21.15 15.5019 21.15 15.0049C21.15 14.5078 20.7471 14.1049 20.25 14.1049C19.7529 14.1049 19.35 14.5078 19.35 15.0049C19.35 15.5019 19.7529 15.9049 20.25 15.9049Z" fill="#98A6C4" stroke="#98A6C4" stroke-width="0.3"/>
</svg>
