<svg width="140" height="26" viewBox="0 0 140 26" fill="none" xmlns="http://www.w3.org/2000/svg">
<path d="M77.0287 19H74.5087L72.3307 14.95C72.1267 14.566 71.8747 14.296 71.5747 14.14C71.2747 13.984 70.8967 13.906 70.4407 13.906H68.6767V19H66.3907V6.31H72.0067C73.4467 6.31 74.5387 6.634 75.2827 7.282C76.0387 7.918 76.4167 8.842 76.4167 10.054C76.4167 11.026 76.1407 11.83 75.5887 12.466C75.0487 13.09 74.2807 13.498 73.2847 13.69C73.9567 13.87 74.4967 14.344 74.9047 15.112L77.0287 19ZM71.6827 12.124C72.5587 12.124 73.2007 11.962 73.6087 11.638C74.0167 11.302 74.2207 10.792 74.2207 10.108C74.2207 9.412 74.0167 8.908 73.6087 8.596C73.2007 8.272 72.5587 8.11 71.6827 8.11H68.6587V12.124H71.6827ZM87.3303 15.004H81.3363C81.4083 15.82 81.6543 16.426 82.0743 16.822C82.4943 17.218 83.0943 17.416 83.8743 17.416C84.8463 17.416 85.7343 17.104 86.5383 16.48L87.1863 18.028C86.7783 18.364 86.2623 18.634 85.6383 18.838C85.0263 19.042 84.4083 19.144 83.7843 19.144C82.3443 19.144 81.2043 18.736 80.3643 17.92C79.5363 17.104 79.1223 15.988 79.1223 14.572C79.1223 13.672 79.3023 12.874 79.6623 12.178C80.0223 11.482 80.5263 10.942 81.1743 10.558C81.8343 10.174 82.5783 9.982 83.4063 9.982C84.6183 9.982 85.5723 10.372 86.2683 11.152C86.9763 11.932 87.3303 13.006 87.3303 14.374V15.004ZM83.4603 11.566C82.8603 11.566 82.3743 11.758 82.0023 12.142C81.6423 12.526 81.4203 13.078 81.3363 13.798H85.4043C85.3803 13.066 85.2003 12.514 84.8643 12.142C84.5283 11.758 84.0603 11.566 83.4603 11.566ZM98.5668 6.31V19H96.3348V17.578C96.0708 18.07 95.6868 18.454 95.1828 18.73C94.6908 19.006 94.1268 19.144 93.4908 19.144C92.7348 19.144 92.0568 18.952 91.4568 18.568C90.8688 18.184 90.4068 17.644 90.0708 16.948C89.7468 16.24 89.5848 15.43 89.5848 14.518C89.5848 13.606 89.7468 12.808 90.0708 12.124C90.4068 11.44 90.8688 10.912 91.4568 10.54C92.0448 10.168 92.7228 9.982 93.4908 9.982C94.1268 9.982 94.6908 10.114 95.1828 10.378C95.6748 10.642 96.0528 11.014 96.3168 11.494V6.31H98.5668ZM94.0848 17.398C94.8048 17.398 95.3568 17.152 95.7408 16.66C96.1368 16.168 96.3348 15.466 96.3348 14.554C96.3348 13.642 96.1368 12.946 95.7408 12.466C95.3568 11.974 94.8108 11.728 94.1028 11.728C93.3828 11.728 92.8248 11.968 92.4288 12.448C92.0328 12.928 91.8348 13.618 91.8348 14.518C91.8348 15.43 92.0328 16.138 92.4288 16.642C92.8248 17.146 93.3768 17.398 94.0848 17.398ZM109.863 10.198V19H107.667V17.65C107.391 18.13 107.019 18.502 106.551 18.766C106.083 19.018 105.555 19.144 104.967 19.144C102.807 19.144 101.727 17.932 101.727 15.508V10.198H103.977V15.526C103.977 16.15 104.103 16.612 104.355 16.912C104.607 17.212 105.003 17.362 105.543 17.362C106.167 17.362 106.665 17.158 107.037 16.75C107.421 16.33 107.613 15.778 107.613 15.094V10.198H109.863ZM117.119 19.144C116.195 19.144 115.391 18.958 114.707 18.586C114.035 18.214 113.519 17.686 113.159 17.002C112.799 16.318 112.619 15.52 112.619 14.608C112.619 13.696 112.805 12.892 113.177 12.196C113.561 11.488 114.101 10.942 114.797 10.558C115.493 10.174 116.297 9.982 117.209 9.982C117.833 9.982 118.439 10.084 119.027 10.288C119.627 10.48 120.107 10.744 120.467 11.08L119.819 12.664C119.447 12.364 119.051 12.136 118.631 11.98C118.223 11.824 117.815 11.746 117.407 11.746C116.627 11.746 116.021 11.992 115.589 12.484C115.157 12.964 114.941 13.66 114.941 14.572C114.941 15.472 115.157 16.168 115.589 16.66C116.021 17.14 116.627 17.38 117.407 17.38C117.815 17.38 118.223 17.302 118.631 17.146C119.051 16.99 119.447 16.762 119.819 16.462L120.467 18.028C120.083 18.376 119.591 18.652 118.991 18.856C118.391 19.048 117.767 19.144 117.119 19.144ZM130.516 15.004H124.522C124.594 15.82 124.84 16.426 125.26 16.822C125.68 17.218 126.28 17.416 127.06 17.416C128.032 17.416 128.92 17.104 129.724 16.48L130.372 18.028C129.964 18.364 129.448 18.634 128.824 18.838C128.212 19.042 127.594 19.144 126.97 19.144C125.53 19.144 124.39 18.736 123.55 17.92C122.722 17.104 122.308 15.988 122.308 14.572C122.308 13.672 122.488 12.874 122.848 12.178C123.208 11.482 123.712 10.942 124.36 10.558C125.02 10.174 125.764 9.982 126.592 9.982C127.804 9.982 128.758 10.372 129.454 11.152C130.162 11.932 130.516 13.006 130.516 14.374V15.004ZM126.646 11.566C126.046 11.566 125.56 11.758 125.188 12.142C124.828 12.526 124.606 13.078 124.522 13.798H128.59C128.566 13.066 128.386 12.514 128.05 12.142C127.714 11.758 127.246 11.566 126.646 11.566ZM139.053 11.854L137.739 11.98C136.251 12.136 135.507 12.892 135.507 14.248V19H133.257V10.198H135.399V11.746C135.855 10.69 136.797 10.114 138.225 10.018L138.909 9.964L139.053 11.854Z" fill="#98A6C4"/>
<path d="M45 3.49489C45 1.20025 38.7115 0 32.5 0C26.2885 0 20 1.20025 20 3.49489C20 4.01513 20.3255 4.47796 20.898 4.88436L29.5 16.6372V25.3884C29.5 25.6031 29.628 25.7943 29.826 25.8772L30.169 26L35.5 20.6763V16.6387L44.0925 4.89734L44.092 4.89135C44.67 4.48345 45 4.01763 45 3.49489ZM32.5 0.998541C39.52 0.998541 44 2.47688 44 3.49489C44 3.70558 43.798 3.93575 43.4325 4.16841L43.407 4.16541L43.4155 4.17889C41.997 5.06809 38.047 5.99124 32.5 5.99124C26.9475 5.99124 22.995 5.06659 21.5805 4.1764L21.589 4.16292L21.383 4.04059C21.1375 3.85187 21 3.66664 21 3.49489C21 2.47688 25.48 0.998541 32.5 0.998541ZM34.5 20.2634L30.5 24.2575V16.9752H34.5V20.2634ZM34.747 15.9766H30.2535L22.788 5.77506C25.1995 6.57739 28.862 6.98978 32.5 6.98978C36.138 6.98978 39.8 6.57739 42.212 5.77556L34.747 15.9766Z" fill="#98A6C4"/>
<path d="M9 12.5L0.750002 18V7L9 12.5Z" fill="#98A6C4"/>
</svg>
