<svg width="27" height="23" viewBox="0 0 27 23" fill="none" xmlns="http://www.w3.org/2000/svg">
<path d="M8.49626 22.197L8.40062 22.35H8.58105H18.4181H18.5986L18.5029 22.197L13.5846 14.3274L13.4998 14.1918L13.415 14.3274L8.49626 22.197ZM16.734 21.3167H10.2656L13.4998 16.1416L16.734 21.3167Z" fill="#98A6C4" stroke="#98A6C4" stroke-width="0.2"/>
<path d="M1 0.9H0.9V1V17.6667V17.7667H1H10.1667C10.4523 17.7667 10.6833 17.5356 10.6833 17.25C10.6833 16.9644 10.4523 16.7333 10.1667 16.7333H1.93333V1.93333H25.0667V16.7333H16.8333C16.5477 16.7333 16.3167 16.9644 16.3167 17.25C16.3167 17.5356 16.5477 17.7667 16.8333 17.7667H26H26.1V17.6667V1V0.9H26H1Z" fill="#98A6C4" stroke="#98A6C4" stroke-width="0.2"/>
</svg>
