<svg width="561" height="410" viewBox="0 0 561 410" fill="none" xmlns="http://www.w3.org/2000/svg">
<circle cx="28.1005" cy="261.451" r="25" transform="rotate(97.3562 28.1005 261.451)" fill="url(#paint0_linear)"/>
<circle cx="51.7185" cy="326.307" r="15" transform="rotate(97.3562 51.7185 326.307)" fill="url(#paint1_linear)"/>
<g clip-path="url(#clip0)">
<mask id="mask0" mask-type="alpha" maskUnits="userSpaceOnUse" x="55" y="0" width="501" height="402">
<path d="M55.8276 155.075C55.8276 212.546 87.0629 262.711 133.461 289.479L131.948 289.715C131.948 289.715 208.814 329.574 267.835 380.429L267.351 379.003C286.58 393.16 310.315 401.538 336.013 401.538C380.913 401.538 419.832 375.999 439.147 338.651C475.976 283.189 526.179 244.293 526.179 244.293L526.054 244.048C544.168 229.863 555.828 207.79 555.828 182.976C555.828 140.172 521.174 105.472 478.428 105.472C469.8 105.472 461.513 106.906 453.764 109.515C398.026 117.34 335.489 60.478 323.133 48.6152C294.913 18.7234 254.947 0.0666504 210.626 0.0666504C125.134 0.0666504 55.8276 69.4653 55.8276 155.075Z" fill="white"/>
</mask>
<g mask="url(#mask0)">
<path fill-rule="evenodd" clip-rule="evenodd" d="M55.8276 155.075C55.8276 212.546 87.0629 262.711 133.461 289.479L131.948 289.715C131.948 289.715 208.814 329.574 267.835 380.429L267.351 379.003C286.58 393.16 310.315 401.538 336.013 401.538C380.913 401.538 419.832 375.999 439.147 338.651C475.976 283.189 526.179 244.293 526.179 244.293L526.054 244.048C544.168 229.863 555.828 207.79 555.828 182.976C555.828 140.172 521.174 105.472 478.428 105.472C469.8 105.472 461.513 106.906 453.764 109.515C398.026 117.34 335.489 60.478 323.133 48.6152C294.913 18.7234 254.947 0.0666504 210.626 0.0666504C125.134 0.0666504 55.8276 69.4653 55.8276 155.075Z" fill="url(#paint2_linear)"/>
</g>
<mask id="mask1" mask-type="alpha" maskUnits="userSpaceOnUse" x="55" y="0" width="501" height="402">
<path d="M233.315 0C224.931 0.00465024 217.244 0.0666535 210.626 0.0666535C125.134 0.0666535 55.8276 69.4654 55.8276 155.075C55.8276 212.546 87.0629 262.711 133.461 289.479L131.948 289.715C131.948 289.715 208.814 329.574 267.835 380.429L267.351 379.003C286.58 393.16 310.315 401.538 336.013 401.538C380.913 401.538 419.832 375.999 439.147 338.651C475.976 283.189 526.179 244.293 526.179 244.293L526.054 244.048C544.168 229.863 555.828 207.79 555.828 182.976C555.828 140.172 521.174 105.472 478.428 105.472C469.8 105.472 461.513 106.906 453.764 109.515C398.026 117.34 387.843 39.0574 375.487 27.1931C351.869 2.17631 283.354 0.0325517 235.654 0H233.315Z" fill="white"/>
</mask>
<g mask="url(#mask1)">
<path fill-rule="evenodd" clip-rule="evenodd" d="M34.5034 262.012C35.5839 260.467 40.5127 259.227 45.5236 259.227H354.375C359.384 259.227 364.313 260.467 365.393 262.012L421.876 339.383C423.553 341.78 420.007 352.711 413.932 352.711H-14.0337C-20.1096 352.711 -23.656 341.78 -21.9795 339.383L34.5034 262.012Z" fill="#B4C3CA"/>
</g>
<mask id="mask2" mask-type="alpha" maskUnits="userSpaceOnUse" x="55" y="0" width="501" height="402">
<path d="M233.315 0C224.931 0.00465024 217.244 0.0666535 210.626 0.0666535C125.134 0.0666535 55.8276 69.4654 55.8276 155.075C55.8276 212.546 87.0629 262.711 133.461 289.479L131.948 289.715C131.948 289.715 208.814 329.574 267.835 380.429L267.351 379.003C286.58 393.16 310.315 401.538 336.013 401.538C380.913 401.538 419.832 375.999 439.147 338.651C475.976 283.189 526.179 244.293 526.179 244.293L526.054 244.048C544.168 229.863 555.828 207.79 555.828 182.976C555.828 140.172 521.174 105.472 478.428 105.472C469.8 105.472 461.513 106.906 453.764 109.515C398.026 117.34 387.843 39.0574 375.487 27.1931C351.869 2.17631 283.354 0.0325517 235.654 0H233.315Z" fill="white"/>
</mask>
<g mask="url(#mask2)">
<path fill-rule="evenodd" clip-rule="evenodd" d="M34.5034 262.012C35.5839 260.467 40.5127 259.227 45.5236 259.227H354.375C359.384 259.227 364.313 260.467 365.393 262.012L421.876 339.383C423.553 341.78 420.007 343.75 413.932 343.75H-14.0337C-20.1096 343.75 -23.656 341.78 -21.9795 339.383L34.5034 262.012Z" fill="white"/>
</g>
<mask id="mask3" mask-type="alpha" maskUnits="userSpaceOnUse" x="55" y="0" width="501" height="402">
<path d="M233.315 0C224.931 0.00465024 217.244 0.0666535 210.626 0.0666535C125.134 0.0666535 55.8276 69.4654 55.8276 155.075C55.8276 212.546 87.0629 262.711 133.461 289.479L131.948 289.715C131.948 289.715 208.814 329.574 267.835 380.429L267.351 379.003C286.58 393.16 310.315 401.538 336.013 401.538C380.913 401.538 419.832 375.999 439.147 338.651C475.976 283.189 526.179 244.293 526.179 244.293L526.054 244.048C544.168 229.863 555.828 207.79 555.828 182.976C555.828 140.172 521.174 105.472 478.428 105.472C469.8 105.472 461.513 106.906 453.764 109.515C398.026 117.34 387.843 39.0574 375.487 27.1931C351.869 2.17631 283.354 0.0325517 235.654 0" fill="white"/>
</mask>
<g mask="url(#mask3)">
<path fill-rule="evenodd" clip-rule="evenodd" d="M148.627 335.814L154.862 319.913C155.085 319.347 155.63 318.975 156.238 318.975H243.723C244.331 318.975 244.879 319.35 245.099 319.918L251.272 335.817C251.498 336.398 251.07 337.026 250.446 337.026H149.452C148.827 337.026 148.398 336.396 148.627 335.814Z" fill="#EDECEB"/>
</g>
<mask id="mask4" mask-type="alpha" maskUnits="userSpaceOnUse" x="55" y="0" width="501" height="402">
<path d="M233.315 0C224.931 0.00465024 217.244 0.0666535 210.626 0.0666535C125.134 0.0666535 55.8276 69.4654 55.8276 155.075C55.8276 212.546 87.0629 262.711 133.461 289.479L131.948 289.715C131.948 289.715 208.814 329.574 267.835 380.429L267.351 379.003C286.58 393.16 310.315 401.538 336.013 401.538C380.913 401.538 419.832 375.999 439.147 338.651C475.976 283.189 526.179 244.293 526.179 244.293L526.054 244.048C544.168 229.863 555.828 207.79 555.828 182.976C555.828 140.172 521.174 105.472 478.428 105.472C469.8 105.472 461.513 106.906 453.764 109.515C398.026 117.34 387.843 39.0574 375.487 27.1931C351.869 2.17631 283.354 0.0325517 235.654 0" fill="white"/>
</mask>
<g mask="url(#mask4)">
<path fill-rule="evenodd" clip-rule="evenodd" d="M20.0849 314.868H379.812C381.227 314.868 382.153 313.341 381.453 312.16L355.342 268.032C354.255 266.197 352.271 265.081 350.093 265.081H49.8047C47.6267 265.081 45.6422 266.197 44.5555 268.032L18.4425 312.16C17.7443 313.341 18.67 314.868 20.0849 314.868Z" fill="#EDECEB"/>
</g>
<mask id="mask5" mask-type="alpha" maskUnits="userSpaceOnUse" x="55" y="0" width="501" height="402">
<path d="M233.315 0C224.931 0.00465024 217.244 0.0666535 210.626 0.0666535C125.134 0.0666535 55.8276 69.4654 55.8276 155.075C55.8276 212.546 87.0629 262.711 133.461 289.479L131.948 289.715C131.948 289.715 208.814 329.574 267.835 380.429L267.351 379.003C286.58 393.16 310.315 401.538 336.013 401.538C380.913 401.538 419.832 375.999 439.147 338.651C475.976 283.189 526.179 244.293 526.179 244.293L526.054 244.048C544.168 229.863 555.828 207.79 555.828 182.976C555.828 140.172 521.174 105.472 478.428 105.472C469.8 105.472 461.513 106.906 453.764 109.515C398.026 117.34 387.843 39.0574 375.487 27.1931C351.869 2.17631 283.354 0.0325517 235.654 0H233.315Z" fill="white"/>
</mask>
<g mask="url(#mask5)">
<path fill-rule="evenodd" clip-rule="evenodd" d="M49.8049 265.235C47.6672 265.235 45.7554 266.311 44.6904 268.11L18.5789 312.238C18.2879 312.731 18.291 313.329 18.5867 313.843C18.8994 314.388 19.4597 314.712 20.0851 314.712H379.813C380.438 314.712 380.997 314.388 381.31 313.843C381.607 313.329 381.61 312.731 381.317 312.238L355.206 268.11C354.142 266.311 352.229 265.235 350.091 265.235H49.8049ZM18.3142 313.998C17.9628 313.385 17.9613 312.671 18.308 312.082L44.4195 267.954C45.5418 266.057 47.5557 264.925 49.8049 264.925H350.091C352.341 264.925 354.354 266.057 355.477 267.954L381.588 312.082C381.938 312.671 381.935 313.385 381.582 313.998C381.214 314.639 380.551 315.024 379.813 315.024H20.0851C19.3452 315.024 18.6842 314.639 18.3142 313.998Z" fill="#EDECEB"/>
</g>
<mask id="mask6" mask-type="alpha" maskUnits="userSpaceOnUse" x="55" y="0" width="501" height="402">
<path d="M233.315 0C224.931 0.00465024 217.244 0.0666535 210.626 0.0666535C125.134 0.0666535 55.8276 69.4654 55.8276 155.075C55.8276 212.546 87.0629 262.711 133.461 289.479L131.948 289.715C131.948 289.715 208.814 329.574 267.835 380.429L267.351 379.003C286.58 393.16 310.315 401.538 336.013 401.538C380.913 401.538 419.832 375.999 439.147 338.651C475.976 283.189 526.179 244.293 526.179 244.293L526.054 244.048C544.168 229.863 555.828 207.79 555.828 182.976C555.828 140.172 521.174 105.472 478.428 105.472C469.8 105.472 461.513 106.906 453.764 109.515C398.026 117.34 387.843 39.0574 375.487 27.1931C351.869 2.17631 283.354 0.0325517 235.654 0" fill="white"/>
</mask>
<g mask="url(#mask6)">
<path fill-rule="evenodd" clip-rule="evenodd" d="M336.195 273.402H350.885C352.116 273.402 352.887 272.056 352.274 270.979L350.704 268.215C350.418 267.715 349.89 267.405 349.317 267.405H334.811C333.619 267.405 332.846 268.676 333.385 269.753L334.766 272.514C335.038 273.058 335.589 273.402 336.195 273.402Z" fill="#A4D6EF"/>
</g>
<mask id="mask7" mask-type="alpha" maskUnits="userSpaceOnUse" x="55" y="0" width="501" height="402">
<path d="M233.315 0C224.931 0.00465024 217.244 0.0666535 210.626 0.0666535C125.134 0.0666535 55.8276 69.4654 55.8276 155.075C55.8276 212.546 87.0629 262.711 133.461 289.479L131.948 289.715C131.948 289.715 208.814 329.574 267.835 380.429L267.351 379.003C286.58 393.16 310.315 401.538 336.013 401.538C380.913 401.538 419.832 375.999 439.147 338.651C475.976 283.189 526.179 244.293 526.179 244.293L526.054 244.048C544.168 229.863 555.828 207.79 555.828 182.976C555.828 140.172 521.174 105.472 478.428 105.472C469.8 105.472 461.513 106.906 453.764 109.515C398.026 117.34 387.843 39.0574 375.487 27.1931C351.869 2.17631 283.354 0.0325517 235.654 0" fill="white"/>
</mask>
<g mask="url(#mask7)">
<path fill-rule="evenodd" clip-rule="evenodd" d="M329.155 281.962H355.352C356.585 281.962 357.356 280.671 356.742 279.635L354.983 276.668C354.697 276.185 354.166 275.889 353.591 275.889H327.729C326.556 275.889 325.779 277.068 326.276 278.099L327.701 281.064C327.963 281.612 328.531 281.962 329.155 281.962Z" fill="#A4D6EF"/>
</g>
<mask id="mask8" mask-type="alpha" maskUnits="userSpaceOnUse" x="55" y="0" width="501" height="402">
<path d="M233.315 0C224.931 0.00465024 217.244 0.0666535 210.626 0.0666535C125.134 0.0666535 55.8276 69.4654 55.8276 155.075C55.8276 212.546 87.0629 262.711 133.461 289.479L131.948 289.715C131.948 289.715 208.814 329.574 267.835 380.429L267.351 379.003C286.58 393.16 310.315 401.538 336.013 401.538C380.913 401.538 419.832 375.999 439.147 338.651C475.976 283.189 526.179 244.293 526.179 244.293L526.054 244.048C544.168 229.863 555.828 207.79 555.828 182.976C555.828 140.172 521.174 105.472 478.428 105.472C469.8 105.472 461.513 106.906 453.764 109.515C398.026 117.34 387.843 39.0574 375.487 27.1931C351.869 2.17631 283.354 0.0325517 235.654 0" fill="white"/>
</mask>
<g mask="url(#mask8)">
<path fill-rule="evenodd" clip-rule="evenodd" d="M328.43 291.137H361.482C362.726 291.137 363.506 289.844 362.886 288.809L360.903 285.498C360.613 285.016 360.076 284.718 359.497 284.718H326.893C325.72 284.718 324.935 285.876 325.413 286.905L326.951 290.215C327.212 290.776 327.791 291.137 328.43 291.137Z" fill="#A4D6EF"/>
</g>
<mask id="mask9" mask-type="alpha" maskUnits="userSpaceOnUse" x="55" y="0" width="501" height="402">
<path d="M233.315 0C224.931 0.00465024 217.244 0.0666535 210.626 0.0666535C125.134 0.0666535 55.8276 69.4654 55.8276 155.075C55.8276 212.546 87.0629 262.711 133.461 289.479L131.948 289.715C131.948 289.715 208.814 329.574 267.835 380.429L267.351 379.003C286.58 393.16 310.315 401.538 336.013 401.538C380.913 401.538 419.832 375.999 439.147 338.651C475.976 283.189 526.179 244.293 526.179 244.293L526.054 244.048C544.168 229.863 555.828 207.79 555.828 182.976C555.828 140.172 521.174 105.472 478.428 105.472C469.8 105.472 461.513 106.906 453.764 109.515C398.026 117.34 387.843 39.0574 375.487 27.1931C351.869 2.17631 283.354 0.0325517 235.654 0" fill="white"/>
</mask>
<g mask="url(#mask9)">
<path fill-rule="evenodd" clip-rule="evenodd" d="M344.891 300.633H367.345C368.597 300.633 369.384 299.34 368.758 298.304L366.539 294.624C366.247 294.142 365.707 293.845 365.124 293.845H343.015C341.811 293.845 341.021 295.046 341.548 296.078L343.426 299.758C343.698 300.292 344.268 300.633 344.891 300.633Z" fill="#A4D6EF"/>
</g>
<mask id="mask10" mask-type="alpha" maskUnits="userSpaceOnUse" x="55" y="0" width="501" height="402">
<path d="M233.315 0C224.931 0.00465024 217.244 0.0666535 210.626 0.0666535C125.134 0.0666535 55.8276 69.4654 55.8276 155.075C55.8276 212.546 87.0629 262.711 133.461 289.479L131.948 289.715C131.948 289.715 208.814 329.574 267.835 380.429L267.351 379.003C286.58 393.16 310.315 401.538 336.013 401.538C380.913 401.538 419.832 375.999 439.147 338.651C475.976 283.189 526.179 244.293 526.179 244.293L526.054 244.048C544.168 229.863 555.828 207.79 555.828 182.976C555.828 140.172 521.174 105.472 478.428 105.472C469.8 105.472 461.513 106.906 453.764 109.515C398.026 117.34 387.843 39.0574 375.487 27.1931C351.869 2.17631 283.354 0.0325517 235.654 0" fill="white"/>
</mask>
<g mask="url(#mask10)">
<path fill-rule="evenodd" clip-rule="evenodd" d="M355.899 311.903H373.164C374.419 311.903 375.204 310.611 374.577 309.576L371.332 304.196C371.041 303.714 370.503 303.416 369.919 303.416H353.041C351.826 303.416 351.037 304.637 351.586 305.67L354.444 311.05C354.721 311.574 355.284 311.903 355.899 311.903Z" fill="#A4D6EF"/>
</g>
<mask id="mask11" mask-type="alpha" maskUnits="userSpaceOnUse" x="55" y="0" width="501" height="402">
<path d="M233.315 0C224.931 0.00465024 217.244 0.0666535 210.626 0.0666535C125.134 0.0666535 55.8276 69.4654 55.8276 155.075C55.8276 212.546 87.0629 262.711 133.461 289.479L131.948 289.715C131.948 289.715 208.814 329.574 267.835 380.429L267.351 379.003C286.58 393.16 310.315 401.538 336.013 401.538C380.913 401.538 419.832 375.999 439.147 338.651C475.976 283.189 526.179 244.293 526.179 244.293L526.054 244.048C544.168 229.863 555.828 207.79 555.828 182.976C555.828 140.172 521.174 105.472 478.428 105.472C469.8 105.472 461.513 106.906 453.764 109.515C398.026 117.34 387.843 39.0574 375.487 27.1931C351.869 2.17631 283.354 0.0325517 235.654 0" fill="white"/>
</mask>
<g mask="url(#mask11)">
<path fill-rule="evenodd" clip-rule="evenodd" d="M331.472 311.903H348.854C350.063 311.903 350.853 310.694 350.316 309.661L347.522 304.281C347.246 303.751 346.679 303.416 346.06 303.416H329.066C327.896 303.416 327.108 304.554 327.566 305.578L329.97 310.959C330.227 311.532 330.817 311.903 331.472 311.903Z" fill="#A4D6EF"/>
</g>
<mask id="mask12" mask-type="alpha" maskUnits="userSpaceOnUse" x="55" y="0" width="501" height="402">
<path d="M233.315 0C224.931 0.00465024 217.244 0.0666535 210.626 0.0666535C125.134 0.0666535 55.8276 69.4654 55.8276 155.075C55.8276 212.546 87.0629 262.711 133.461 289.479L131.948 289.715C131.948 289.715 208.814 329.574 267.835 380.429L267.351 379.003C286.58 393.16 310.315 401.538 336.013 401.538C380.913 401.538 419.832 375.999 439.147 338.651C475.976 283.189 526.179 244.293 526.179 244.293L526.054 244.048C544.168 229.863 555.828 207.79 555.828 182.976C555.828 140.172 521.174 105.472 478.428 105.472C469.8 105.472 461.513 106.906 453.764 109.515C398.026 117.34 387.843 39.0574 375.487 27.1931C351.869 2.17631 283.354 0.0325517 235.654 0" fill="white"/>
</mask>
<g mask="url(#mask12)">
<path fill-rule="evenodd" clip-rule="evenodd" d="M306.925 311.903H324.408C325.571 311.903 326.36 310.777 325.916 309.754L323.575 304.376C323.323 303.796 322.728 303.416 322.067 303.416H304.973C303.854 303.416 303.066 304.467 303.431 305.476L305.383 310.856C305.609 311.483 306.23 311.903 306.925 311.903Z" fill="#A4D6EF"/>
</g>
<mask id="mask13" mask-type="alpha" maskUnits="userSpaceOnUse" x="55" y="0" width="501" height="402">
<path d="M233.315 0C224.931 0.00465024 217.244 0.0666535 210.626 0.0666535C125.134 0.0666535 55.8276 69.4654 55.8276 155.075C55.8276 212.546 87.0629 262.711 133.461 289.479L131.948 289.715C131.948 289.715 208.814 329.574 267.835 380.429L267.351 379.003C286.58 393.16 310.315 401.538 336.013 401.538C380.913 401.538 419.832 375.999 439.147 338.651C475.976 283.189 526.179 244.293 526.179 244.293L526.054 244.048C544.168 229.863 555.828 207.79 555.828 182.976C555.828 140.172 521.174 105.472 478.428 105.472C469.8 105.472 461.513 106.906 453.764 109.515C398.026 117.34 387.843 39.0574 375.487 27.1931C351.869 2.17631 283.354 0.0325517 235.654 0" fill="white"/>
</mask>
<g mask="url(#mask13)">
<path fill-rule="evenodd" clip-rule="evenodd" d="M124.231 311.903H147.955C148.754 311.903 149.435 311.354 149.565 310.602L150.499 305.222C150.663 304.276 149.897 303.416 148.889 303.416H125.666C124.918 303.416 124.267 303.898 124.084 304.586L122.651 309.968C122.387 310.949 123.168 311.903 124.231 311.903Z" fill="#A4D6EF"/>
</g>
<mask id="mask14" mask-type="alpha" maskUnits="userSpaceOnUse" x="55" y="0" width="501" height="402">
<path d="M233.315 0C224.931 0.00465024 217.244 0.0666535 210.626 0.0666535C125.134 0.0666535 55.8276 69.4654 55.8276 155.075C55.8276 212.546 87.0629 262.711 133.461 289.479L131.948 289.715C131.948 289.715 208.814 329.574 267.835 380.429L267.351 379.003C286.58 393.16 310.315 401.538 336.013 401.538C380.913 401.538 419.832 375.999 439.147 338.651C475.976 283.189 526.179 244.293 526.179 244.293L526.054 244.048C544.168 229.863 555.828 207.79 555.828 182.976C555.828 140.172 521.174 105.472 478.428 105.472C469.8 105.472 461.513 106.906 453.764 109.515C398.026 117.34 387.843 39.0574 375.487 27.1931C351.869 2.17631 283.354 0.0325517 235.654 0" fill="white"/>
</mask>
<g mask="url(#mask14)">
<path fill-rule="evenodd" clip-rule="evenodd" d="M99.811 311.903H117.404C118.144 311.903 118.791 311.428 118.981 310.748L120.481 305.368C120.754 304.382 119.974 303.416 118.904 303.416H101.7C100.998 303.416 100.373 303.844 100.152 304.478L98.263 309.858C97.9101 310.864 98.6965 311.903 99.811 311.903Z" fill="#A4D6EF"/>
</g>
<mask id="mask15" mask-type="alpha" maskUnits="userSpaceOnUse" x="55" y="0" width="501" height="402">
<path d="M233.315 0C224.931 0.00465024 217.244 0.0666535 210.626 0.0666535C125.134 0.0666535 55.8276 69.4654 55.8276 155.075C55.8276 212.546 87.0629 262.711 133.461 289.479L131.948 289.715C131.948 289.715 208.814 329.574 267.835 380.429L267.351 379.003C286.58 393.16 310.315 401.538 336.013 401.538C380.913 401.538 419.832 375.999 439.147 338.651C475.976 283.189 526.179 244.293 526.179 244.293L526.054 244.048C544.168 229.863 555.828 207.79 555.828 182.976C555.828 140.172 521.174 105.472 478.428 105.472C469.8 105.472 461.513 106.906 453.764 109.515C398.026 117.34 387.843 39.0574 375.487 27.1931C351.869 2.17631 283.354 0.0325517 235.654 0" fill="white"/>
</mask>
<g mask="url(#mask15)">
<path fill-rule="evenodd" clip-rule="evenodd" d="M51.0176 311.903H68.4263C69.0811 311.903 69.6709 311.532 69.9278 310.959L72.3334 305.578C72.7901 304.554 72.0021 303.416 70.8319 303.416H53.8133C53.191 303.416 52.626 303.751 52.3504 304.281L49.5563 309.661C49.0192 310.694 49.8086 311.903 51.0176 311.903Z" fill="#A4D6EF"/>
</g>
<mask id="mask16" mask-type="alpha" maskUnits="userSpaceOnUse" x="55" y="0" width="501" height="402">
<path d="M233.315 0C224.931 0.00465024 217.244 0.0666535 210.626 0.0666535C125.134 0.0666535 55.8276 69.4654 55.8276 155.075C55.8276 212.546 87.0629 262.711 133.461 289.479L131.948 289.715C131.948 289.715 208.814 329.574 267.835 380.429L267.351 379.003C286.58 393.16 310.315 401.538 336.013 401.538C380.913 401.538 419.832 375.999 439.147 338.651C475.976 283.189 526.179 244.293 526.179 244.293L526.054 244.048C544.168 229.863 555.828 207.79 555.828 182.976C555.828 140.172 521.174 105.472 478.428 105.472C469.8 105.472 461.513 106.906 453.764 109.515C398.026 117.34 387.843 39.0574 375.487 27.1931C351.869 2.17631 283.354 0.0325517 235.654 0" fill="white"/>
</mask>
<g mask="url(#mask16)">
<path fill-rule="evenodd" clip-rule="evenodd" d="M75.3922 311.93H92.8783C93.5734 311.93 94.1926 311.51 94.4201 310.884L94.8644 309.657C95.2297 308.65 94.4449 307.597 93.3226 307.597H75.9263C75.2669 307.597 74.6724 307.976 74.4186 308.555L73.8861 309.781C73.4402 310.803 74.2297 311.93 75.3922 311.93Z" fill="#A4D6EF"/>
</g>
<mask id="mask17" mask-type="alpha" maskUnits="userSpaceOnUse" x="55" y="0" width="501" height="402">
<path d="M233.315 0C224.931 0.00465024 217.244 0.0666535 210.626 0.0666535C125.134 0.0666535 55.8276 69.4654 55.8276 155.075C55.8276 212.546 87.0629 262.711 133.461 289.479L131.948 289.715C131.948 289.715 208.814 329.574 267.835 380.429L267.351 379.003C286.58 393.16 310.315 401.538 336.013 401.538C380.913 401.538 419.832 375.999 439.147 338.651C475.976 283.189 526.179 244.293 526.179 244.293L526.054 244.048C544.168 229.863 555.828 207.79 555.828 182.976C555.828 140.172 521.174 105.472 478.428 105.472C469.8 105.472 461.513 106.906 453.764 109.515C398.026 117.34 387.843 39.0574 375.487 27.1931C351.869 2.17631 283.354 0.0325517 235.654 0" fill="white"/>
</mask>
<g mask="url(#mask17)">
<path fill-rule="evenodd" clip-rule="evenodd" d="M276.393 311.903H300.104C301.218 311.903 302.005 310.863 301.652 309.858L299.763 304.476C299.54 303.844 298.918 303.416 298.217 303.416H275.008C273.951 303.416 273.172 304.362 273.424 305.34L274.81 310.72C274.989 311.416 275.643 311.903 276.393 311.903Z" fill="#A4D6EF"/>
</g>
<mask id="mask18" mask-type="alpha" maskUnits="userSpaceOnUse" x="55" y="0" width="501" height="402">
<path d="M233.315 0C224.931 0.00465024 217.244 0.0666535 210.626 0.0666535C125.134 0.0666535 55.8276 69.4654 55.8276 155.075C55.8276 212.546 87.0629 262.711 133.461 289.479L131.948 289.715C131.948 289.715 208.814 329.574 267.835 380.429L267.351 379.003C286.58 393.16 310.315 401.538 336.013 401.538C380.913 401.538 419.832 375.999 439.147 338.651C475.976 283.189 526.179 244.293 526.179 244.293L526.054 244.048C544.168 229.863 555.828 207.79 555.828 182.976C555.828 140.172 521.174 105.472 478.428 105.472C469.8 105.472 461.513 106.906 453.764 109.515C398.026 117.34 387.843 39.0574 375.487 27.1931C351.869 2.17631 283.354 0.0325517 235.654 0" fill="white"/>
</mask>
<g mask="url(#mask18)">
<path fill-rule="evenodd" clip-rule="evenodd" d="M154.651 311.903H269.665C270.716 311.903 271.491 310.97 271.251 309.996L269.929 304.616C269.756 303.914 269.098 303.416 268.34 303.416H155.521C154.716 303.416 154.031 303.976 153.909 304.734L153.038 310.114C152.884 311.055 153.651 311.903 154.651 311.903Z" fill="#A4D6EF"/>
</g>
<mask id="mask19" mask-type="alpha" maskUnits="userSpaceOnUse" x="55" y="0" width="501" height="402">
<path d="M233.315 0C224.931 0.00465024 217.244 0.0666535 210.626 0.0666535C125.134 0.0666535 55.8276 69.4654 55.8276 155.075C55.8276 212.546 87.0629 262.711 133.461 289.479L131.948 289.715C131.948 289.715 208.814 329.574 267.835 380.429L267.351 379.003C286.58 393.16 310.315 401.538 336.013 401.538C380.913 401.538 419.832 375.999 439.147 338.651C475.976 283.189 526.179 244.293 526.179 244.293L526.054 244.048C544.168 229.863 555.828 207.79 555.828 182.976C555.828 140.172 521.174 105.472 478.428 105.472C469.8 105.472 461.513 106.906 453.764 109.515C398.026 117.34 387.843 39.0574 375.487 27.1931C351.869 2.17631 283.354 0.0325517 235.654 0" fill="white"/>
</mask>
<g mask="url(#mask19)">
<path fill-rule="evenodd" clip-rule="evenodd" d="M314.851 273.402H329.658C330.843 273.402 331.617 272.143 331.091 271.066L329.74 268.305C329.47 267.753 328.915 267.405 328.306 267.405H313.689C312.542 267.405 311.766 268.589 312.216 269.655L313.379 272.418C313.63 273.014 314.21 273.402 314.851 273.402Z" fill="#A4D6EF"/>
</g>
<mask id="mask20" mask-type="alpha" maskUnits="userSpaceOnUse" x="55" y="0" width="501" height="402">
<path d="M233.315 0C224.931 0.00465024 217.244 0.0666535 210.626 0.0666535C125.134 0.0666535 55.8276 69.4654 55.8276 155.075C55.8276 212.546 87.0629 262.711 133.461 289.479L131.948 289.715C131.948 289.715 208.814 329.574 267.835 380.429L267.351 379.003C286.58 393.16 310.315 401.538 336.013 401.538C380.913 401.538 419.832 375.999 439.147 338.651C475.976 283.189 526.179 244.293 526.179 244.293L526.054 244.048C544.168 229.863 555.828 207.79 555.828 182.976C555.828 140.172 521.174 105.472 478.428 105.472C469.8 105.472 461.513 106.906 453.764 109.515C398.026 117.34 387.843 39.0574 375.487 27.1931C351.869 2.17631 283.354 0.0325517 235.654 0" fill="white"/>
</mask>
<g mask="url(#mask20)">
<path fill-rule="evenodd" clip-rule="evenodd" d="M293.492 273.402H308.398C309.538 273.402 310.312 272.23 309.876 271.165L308.744 268.403C308.495 267.798 307.911 267.405 307.264 267.405H292.549C291.449 267.405 290.676 268.5 291.035 269.551L291.978 272.312C292.202 272.965 292.811 273.402 293.492 273.402Z" fill="#A4D6EF"/>
</g>
<mask id="mask21" mask-type="alpha" maskUnits="userSpaceOnUse" x="55" y="0" width="501" height="402">
<path d="M233.315 0C224.931 0.00465024 217.244 0.0666535 210.626 0.0666535C125.134 0.0666535 55.8276 69.4654 55.8276 155.075C55.8276 212.546 87.0629 262.711 133.461 289.479L131.948 289.715C131.948 289.715 208.814 329.574 267.835 380.429L267.351 379.003C286.58 393.16 310.315 401.538 336.013 401.538C380.913 401.538 419.832 375.999 439.147 338.651C475.976 283.189 526.179 244.293 526.179 244.293L526.054 244.048C544.168 229.863 555.828 207.79 555.828 182.976C555.828 140.172 521.174 105.472 478.428 105.472C469.8 105.472 461.513 106.906 453.764 109.515C398.026 117.34 387.843 39.0574 375.487 27.1931C351.869 2.17631 283.354 0.0325517 235.654 0" fill="white"/>
</mask>
<g mask="url(#mask21)">
<path fill-rule="evenodd" clip-rule="evenodd" d="M272.438 273.402H287.426C288.519 273.402 289.291 272.318 288.943 271.269L288.025 268.508C287.808 267.849 287.197 267.405 286.509 267.405H271.709C270.66 267.405 269.892 268.412 270.163 269.438L270.892 272.201C271.078 272.909 271.712 273.402 272.438 273.402Z" fill="#A4D6EF"/>
</g>
<mask id="mask22" mask-type="alpha" maskUnits="userSpaceOnUse" x="55" y="0" width="501" height="402">
<path d="M233.315 0C224.931 0.00465024 217.244 0.0666535 210.626 0.0666535C125.134 0.0666535 55.8276 69.4654 55.8276 155.075C55.8276 212.546 87.0629 262.711 133.461 289.479L131.948 289.715C131.948 289.715 208.814 329.574 267.835 380.429L267.351 379.003C286.58 393.16 310.315 401.538 336.013 401.538C380.913 401.538 419.832 375.999 439.147 338.651C475.976 283.189 526.179 244.293 526.179 244.293L526.054 244.048C544.168 229.863 555.828 207.79 555.828 182.976C555.828 140.172 521.174 105.472 478.428 105.472C469.8 105.472 461.513 106.906 453.764 109.515C398.026 117.34 387.843 39.0574 375.487 27.1931C351.869 2.17631 283.354 0.0325517 235.654 0" fill="white"/>
</mask>
<g mask="url(#mask22)">
<path fill-rule="evenodd" clip-rule="evenodd" d="M251.102 273.402H266.155C267.197 273.402 267.963 272.407 267.704 271.384L267.006 268.621C266.825 267.905 266.187 267.405 265.455 267.405H250.593C249.591 267.405 248.836 268.324 249.019 269.317L249.528 272.08C249.67 272.847 250.331 273.402 251.102 273.402Z" fill="#A4D6EF"/>
</g>
<mask id="mask23" mask-type="alpha" maskUnits="userSpaceOnUse" x="55" y="0" width="501" height="402">
<path d="M233.315 0C224.931 0.00465024 217.244 0.0666535 210.626 0.0666535C125.134 0.0666535 55.8276 69.4654 55.8276 155.075C55.8276 212.546 87.0629 262.711 133.461 289.479L131.948 289.715C131.948 289.715 208.814 329.574 267.835 380.429L267.351 379.003C286.58 393.16 310.315 401.538 336.013 401.538C380.913 401.538 419.832 375.999 439.147 338.651C475.976 283.189 526.179 244.293 526.179 244.293L526.054 244.048C544.168 229.863 555.828 207.79 555.828 182.976C555.828 140.172 521.174 105.472 478.428 105.472C469.8 105.472 461.513 106.906 453.764 109.515C398.026 117.34 387.843 39.0574 375.487 27.1931C351.869 2.17631 283.354 0.0325517 235.654 0" fill="white"/>
</mask>
<g mask="url(#mask23)">
<path fill-rule="evenodd" clip-rule="evenodd" d="M229.856 273.402H244.953C245.948 273.402 246.701 272.493 246.529 271.505L246.051 268.742C245.916 267.969 245.25 267.405 244.473 267.405H229.566C228.614 267.405 227.874 268.238 227.973 269.193L228.266 271.954C228.351 272.777 229.038 273.402 229.856 273.402Z" fill="#A4D6EF"/>
</g>
<mask id="mask24" mask-type="alpha" maskUnits="userSpaceOnUse" x="55" y="0" width="501" height="402">
<path d="M233.315 0C224.931 0.00465024 217.244 0.0666535 210.626 0.0666535C125.134 0.0666535 55.8276 69.4654 55.8276 155.075C55.8276 212.546 87.0629 262.711 133.461 289.479L131.948 289.715C131.948 289.715 208.814 329.574 267.835 380.429L267.351 379.003C286.58 393.16 310.315 401.538 336.013 401.538C380.913 401.538 419.832 375.999 439.147 338.651C475.976 283.189 526.179 244.293 526.179 244.293L526.054 244.048C544.168 229.863 555.828 207.79 555.828 182.976C555.828 140.172 521.174 105.472 478.428 105.472C469.8 105.472 461.513 106.906 453.764 109.515C398.026 117.34 387.843 39.0574 375.487 27.1931C351.869 2.17631 283.354 0.0325517 235.654 0" fill="white"/>
</mask>
<g mask="url(#mask24)">
<path fill-rule="evenodd" clip-rule="evenodd" d="M208.558 273.402H223.68C224.625 273.402 225.362 272.58 225.273 271.63L225.013 268.868C224.934 268.039 224.245 267.405 223.42 267.405H208.485C207.585 267.405 206.862 268.155 206.886 269.065L206.958 271.825C206.981 272.703 207.69 273.402 208.558 273.402Z" fill="#A4D6EF"/>
</g>
<mask id="mask25" mask-type="alpha" maskUnits="userSpaceOnUse" x="55" y="0" width="501" height="402">
<path d="M233.315 0C224.931 0.00465024 217.244 0.0666535 210.626 0.0666535C125.134 0.0666535 55.8276 69.4654 55.8276 155.075C55.8276 212.546 87.0629 262.711 133.461 289.479L131.948 289.715C131.948 289.715 208.814 329.574 267.835 380.429L267.351 379.003C286.58 393.16 310.315 401.538 336.013 401.538C380.913 401.538 419.832 375.999 439.147 338.651C475.976 283.189 526.179 244.293 526.179 244.293L526.054 244.048C544.168 229.863 555.828 207.79 555.828 182.976C555.828 140.172 521.174 105.472 478.428 105.472C469.8 105.472 461.513 106.906 453.764 109.515C398.026 117.34 387.843 39.0574 375.487 27.1931C351.869 2.17631 283.354 0.0325517 235.654 0" fill="white"/>
</mask>
<g mask="url(#mask25)">
<path fill-rule="evenodd" clip-rule="evenodd" d="M187.246 273.402H202.375C203.269 273.402 203.988 272.661 203.975 271.759L203.934 268.998C203.92 268.114 203.209 267.405 202.333 267.405H187.395C186.543 267.405 185.842 268.076 185.796 268.934L185.649 271.697C185.601 272.622 186.328 273.402 187.246 273.402Z" fill="#A4D6EF"/>
</g>
<mask id="mask26" mask-type="alpha" maskUnits="userSpaceOnUse" x="55" y="0" width="501" height="402">
<path d="M233.315 0C224.931 0.00465024 217.244 0.0666535 210.626 0.0666535C125.134 0.0666535 55.8276 69.4654 55.8276 155.075C55.8276 212.546 87.0629 262.711 133.461 289.479L131.948 289.715C131.948 289.715 208.814 329.574 267.835 380.429L267.351 379.003C286.58 393.16 310.315 401.538 336.013 401.538C380.913 401.538 419.832 375.999 439.147 338.651C475.976 283.189 526.179 244.293 526.179 244.293L526.054 244.048C544.168 229.863 555.828 207.79 555.828 182.976C555.828 140.172 521.174 105.472 478.428 105.472C469.8 105.472 461.513 106.906 453.764 109.515C398.026 117.34 387.843 39.0574 375.487 27.1931C351.869 2.17631 283.354 0.0325517 235.654 0" fill="white"/>
</mask>
<g mask="url(#mask26)">
<path fill-rule="evenodd" clip-rule="evenodd" d="M166.241 273.402H181.355C182.199 273.402 182.899 272.738 182.951 271.886L183.126 269.125C183.185 268.194 182.455 267.405 181.529 267.405H166.605C165.803 267.405 165.123 268.006 165.018 268.809L164.656 271.57C164.529 272.54 165.273 273.402 166.241 273.402Z" fill="#A4D6EF"/>
</g>
<mask id="mask27" mask-type="alpha" maskUnits="userSpaceOnUse" x="55" y="0" width="501" height="402">
<path d="M233.315 0C224.931 0.00465024 217.244 0.0666535 210.626 0.0666535C125.134 0.0666535 55.8276 69.4654 55.8276 155.075C55.8276 212.546 87.0629 262.711 133.461 289.479L131.948 289.715C131.948 289.715 208.814 329.574 267.835 380.429L267.351 379.003C286.58 393.16 310.315 401.538 336.013 401.538C380.913 401.538 419.832 375.999 439.147 338.651C475.976 283.189 526.179 244.293 526.179 244.293L526.054 244.048C544.168 229.863 555.828 207.79 555.828 182.976C555.828 140.172 521.174 105.472 478.428 105.472C469.8 105.472 461.513 106.906 453.764 109.515C398.026 117.34 387.843 39.0574 375.487 27.1931C351.869 2.17631 283.354 0.0325517 235.654 0" fill="white"/>
</mask>
<g mask="url(#mask27)">
<path fill-rule="evenodd" clip-rule="evenodd" d="M144.956 273.402H160.034C160.829 273.402 161.504 272.81 161.619 272.013L162.012 269.252C162.15 268.277 161.402 267.405 160.427 267.405H145.538C144.783 267.405 144.13 267.939 143.972 268.685L143.39 271.447C143.179 272.453 143.938 273.402 144.956 273.402Z" fill="#A4D6EF"/>
</g>
<mask id="mask28" mask-type="alpha" maskUnits="userSpaceOnUse" x="55" y="0" width="501" height="402">
<path d="M233.315 0C224.931 0.00465024 217.244 0.0666535 210.626 0.0666535C125.134 0.0666535 55.8276 69.4654 55.8276 155.075C55.8276 212.546 87.0629 262.711 133.461 289.479L131.948 289.715C131.948 289.715 208.814 329.574 267.835 380.429L267.351 379.003C286.58 393.16 310.315 401.538 336.013 401.538C380.913 401.538 419.832 375.999 439.147 338.651C475.976 283.189 526.179 244.293 526.179 244.293L526.054 244.048C544.168 229.863 555.828 207.79 555.828 182.976C555.828 140.172 521.174 105.472 478.428 105.472C469.8 105.472 461.513 106.906 453.764 109.515C398.026 117.34 387.843 39.0574 375.487 27.1931C351.869 2.17631 283.354 0.0325517 235.654 0" fill="white"/>
</mask>
<g mask="url(#mask28)">
<path fill-rule="evenodd" clip-rule="evenodd" d="M123.342 273.402H138.364C139.113 273.402 139.76 272.876 139.926 272.14L140.54 269.378C140.768 268.367 140.006 267.405 138.981 267.405H124.147C123.438 267.405 122.811 267.877 122.611 268.566L121.806 271.326C121.505 272.363 122.274 273.402 123.342 273.402Z" fill="#A4D6EF"/>
</g>
<mask id="mask29" mask-type="alpha" maskUnits="userSpaceOnUse" x="55" y="0" width="501" height="402">
<path d="M233.315 0C224.931 0.00465024 217.244 0.0666535 210.626 0.0666535C125.134 0.0666535 55.8276 69.4654 55.8276 155.075C55.8276 212.546 87.0629 262.711 133.461 289.479L131.948 289.715C131.948 289.715 208.814 329.574 267.835 380.429L267.351 379.003C286.58 393.16 310.315 401.538 336.013 401.538C380.913 401.538 419.832 375.999 439.147 338.651C475.976 283.189 526.179 244.293 526.179 244.293L526.054 244.048C544.168 229.863 555.828 207.79 555.828 182.976C555.828 140.172 521.174 105.472 478.428 105.472C469.8 105.472 461.513 106.906 453.764 109.515C398.026 117.34 387.843 39.0574 375.487 27.1931C351.869 2.17631 283.354 0.0325517 235.654 0" fill="white"/>
</mask>
<g mask="url(#mask29)">
<path fill-rule="evenodd" clip-rule="evenodd" d="M102.366 273.402H117.315C118.019 273.402 118.641 272.935 118.845 272.255L119.678 269.494C119.991 268.456 119.222 267.405 118.147 267.405H103.386C102.719 267.405 102.121 267.823 101.886 268.457L100.866 271.218C100.476 272.275 101.248 273.402 102.366 273.402Z" fill="#A4D6EF"/>
</g>
<mask id="mask30" mask-type="alpha" maskUnits="userSpaceOnUse" x="55" y="0" width="501" height="402">
<path d="M233.315 0C224.931 0.00465024 217.244 0.0666535 210.626 0.0666535C125.134 0.0666535 55.8276 69.4654 55.8276 155.075C55.8276 212.546 87.0629 262.711 133.461 289.479L131.948 289.715C131.948 289.715 208.814 329.574 267.835 380.429L267.351 379.003C286.58 393.16 310.315 401.538 336.013 401.538C380.913 401.538 419.832 375.999 439.147 338.651C475.976 283.189 526.179 244.293 526.179 244.293L526.054 244.048C544.168 229.863 555.828 207.79 555.828 182.976C555.828 140.172 521.174 105.472 478.428 105.472C469.8 105.472 461.513 106.906 453.764 109.515C398.026 117.34 387.843 39.0574 375.487 27.1931C351.869 2.17631 283.354 0.0325517 235.654 0" fill="white"/>
</mask>
<g mask="url(#mask30)">
<path fill-rule="evenodd" clip-rule="evenodd" d="M307.172 281.962H322.565C323.732 281.962 324.508 280.795 324.026 279.765L322.635 276.8C322.373 276.245 321.803 275.889 321.175 275.889H305.991C304.865 275.889 304.09 276.983 304.495 278L305.675 280.967C305.915 281.567 306.509 281.962 307.172 281.962Z" fill="#A4D6EF"/>
</g>
<mask id="mask31" mask-type="alpha" maskUnits="userSpaceOnUse" x="55" y="0" width="501" height="402">
<path d="M233.315 0C224.931 0.00465024 217.244 0.0666535 210.626 0.0666535C125.134 0.0666535 55.8276 69.4654 55.8276 155.075C55.8276 212.546 87.0629 262.711 133.461 289.479L131.948 289.715C131.948 289.715 208.814 329.574 267.835 380.429L267.351 379.003C286.58 393.16 310.315 401.538 336.013 401.538C380.913 401.538 419.832 375.999 439.147 338.651C475.976 283.189 526.179 244.293 526.179 244.293L526.054 244.048C544.168 229.863 555.828 207.79 555.828 182.976C555.828 140.172 521.174 105.472 478.428 105.472C469.8 105.472 461.513 106.906 453.764 109.515C398.026 117.34 387.843 39.0574 375.487 27.1931C351.869 2.17631 283.354 0.0325517 235.654 0" fill="white"/>
</mask>
<g mask="url(#mask31)">
<path fill-rule="evenodd" clip-rule="evenodd" d="M285.185 281.962H300.671C301.791 281.962 302.566 280.88 302.173 279.863L301.026 276.898C300.792 276.292 300.193 275.889 299.524 275.889H284.25C283.173 275.889 282.402 276.898 282.716 277.896L283.653 280.863C283.859 281.515 284.481 281.962 285.185 281.962Z" fill="#A4D6EF"/>
</g>
<mask id="mask32" mask-type="alpha" maskUnits="userSpaceOnUse" x="55" y="0" width="501" height="402">
<path d="M233.315 0C224.931 0.00465024 217.244 0.0666535 210.626 0.0666535C125.134 0.0666535 55.8276 69.4654 55.8276 155.075C55.8276 212.546 87.0629 262.711 133.461 289.479L131.948 289.715C131.948 289.715 208.814 329.574 267.835 380.429L267.351 379.003C286.58 393.16 310.315 401.538 336.013 401.538C380.913 401.538 419.832 375.999 439.147 338.651C475.976 283.189 526.179 244.293 526.179 244.293L526.054 244.048C544.168 229.863 555.828 207.79 555.828 182.976C555.828 140.172 521.174 105.472 478.428 105.472C469.8 105.472 461.513 106.906 453.764 109.515C398.026 117.34 387.843 39.0574 375.487 27.1931C351.869 2.17631 283.354 0.0325517 235.654 0" fill="white"/>
</mask>
<g mask="url(#mask32)">
<path fill-rule="evenodd" clip-rule="evenodd" d="M263.514 281.962H279.071C280.142 281.962 280.913 280.964 280.61 279.968L279.706 277.003C279.504 276.341 278.879 275.889 278.167 275.889H262.82C261.792 275.889 261.029 276.814 261.257 277.786L261.949 280.751C262.114 281.46 262.764 281.962 263.514 281.962Z" fill="#A4D6EF"/>
</g>
<mask id="mask33" mask-type="alpha" maskUnits="userSpaceOnUse" x="55" y="0" width="501" height="402">
<path d="M233.315 0C224.931 0.00465024 217.244 0.0666535 210.626 0.0666535C125.134 0.0666535 55.8276 69.4654 55.8276 155.075C55.8276 212.546 87.0629 262.711 133.461 289.479L131.948 289.715C131.948 289.715 208.814 329.574 267.835 380.429L267.351 379.003C286.58 393.16 310.315 401.538 336.013 401.538C380.913 401.538 419.832 375.999 439.147 338.651C475.976 283.189 526.179 244.293 526.179 244.293L526.054 244.048C544.168 229.863 555.828 207.79 555.828 182.976C555.828 140.172 521.174 105.472 478.428 105.472C469.8 105.472 461.513 106.906 453.764 109.515C398.026 117.34 387.843 39.0574 375.487 27.1931C351.869 2.17631 283.354 0.0325517 235.654 0" fill="white"/>
</mask>
<g mask="url(#mask33)">
<path fill-rule="evenodd" clip-rule="evenodd" d="M241.55 281.962H257.163C258.185 281.962 258.946 281.049 258.731 280.082L258.073 277.115C257.914 276.4 257.259 275.889 256.504 275.889H241.103C240.124 275.889 239.375 276.729 239.516 277.667L239.963 280.633C240.08 281.396 240.753 281.962 241.55 281.962Z" fill="#A4D6EF"/>
</g>
<mask id="mask34" mask-type="alpha" maskUnits="userSpaceOnUse" x="55" y="0" width="501" height="402">
<path d="M233.315 0C224.931 0.00465024 217.244 0.0666535 210.626 0.0666535C125.134 0.0666535 55.8276 69.4654 55.8276 155.075C55.8276 212.546 87.0629 262.711 133.461 289.479L131.948 289.715C131.948 289.715 208.814 329.574 267.835 380.429L267.351 379.003C286.58 393.16 310.315 401.538 336.013 401.538C380.913 401.538 419.832 375.999 439.147 338.651C475.976 283.189 526.179 244.293 526.179 244.293L526.054 244.048C544.168 229.863 555.828 207.79 555.828 182.976C555.828 140.172 521.174 105.472 478.428 105.472C469.8 105.472 461.513 106.906 453.764 109.515C398.026 117.34 387.843 39.0574 375.487 27.1931C351.869 2.17631 283.354 0.0325517 235.654 0" fill="white"/>
</mask>
<g mask="url(#mask34)">
<path fill-rule="evenodd" clip-rule="evenodd" d="M219.679 281.962H235.327C236.299 281.962 237.049 281.133 236.917 280.199L236.502 277.234C236.395 276.464 235.716 275.889 234.914 275.889H219.476C218.55 275.889 217.815 276.648 217.877 277.544L218.079 280.511C218.135 281.328 218.835 281.962 219.679 281.962Z" fill="#A4D6EF"/>
</g>
<mask id="mask35" mask-type="alpha" maskUnits="userSpaceOnUse" x="55" y="0" width="501" height="402">
<path d="M233.315 0C224.931 0.00465024 217.244 0.0666535 210.626 0.0666535C125.134 0.0666535 55.8276 69.4654 55.8276 155.075C55.8276 212.546 87.0629 262.711 133.461 289.479L131.948 289.715C131.948 289.715 208.814 329.574 267.835 380.429L267.351 379.003C286.58 393.16 310.315 401.538 336.013 401.538C380.913 401.538 419.832 375.999 439.147 338.651C475.976 283.189 526.179 244.293 526.179 244.293L526.054 244.048C544.168 229.863 555.828 207.79 555.828 182.976C555.828 140.172 521.174 105.472 478.428 105.472C469.8 105.472 461.513 106.906 453.764 109.515C398.026 117.34 387.843 39.0574 375.487 27.1931C351.869 2.17631 283.354 0.0325517 235.654 0" fill="white"/>
</mask>
<g mask="url(#mask35)">
<path fill-rule="evenodd" clip-rule="evenodd" d="M197.755 281.962H213.419C214.34 281.962 215.073 281.213 215.02 280.322L214.851 277.357C214.805 276.534 214.102 275.889 213.251 275.889H197.797C196.921 275.889 196.206 276.571 196.193 277.42L196.152 280.387C196.139 281.254 196.86 281.962 197.755 281.962Z" fill="#A4D6EF"/>
</g>
<mask id="mask36" mask-type="alpha" maskUnits="userSpaceOnUse" x="55" y="0" width="501" height="402">
<path d="M233.315 0C224.931 0.00465024 217.244 0.0666535 210.626 0.0666535C125.134 0.0666535 55.8276 69.4654 55.8276 155.075C55.8276 212.546 87.0629 262.711 133.461 289.479L131.948 289.715C131.948 289.715 208.814 329.574 267.835 380.429L267.351 379.003C286.58 393.16 310.315 401.538 336.013 401.538C380.913 401.538 419.832 375.999 439.147 338.651C475.976 283.189 526.179 244.293 526.179 244.293L526.054 244.048C544.168 229.863 555.828 207.79 555.828 182.976C555.828 140.172 521.174 105.472 478.428 105.472C469.8 105.472 461.513 106.906 453.764 109.515C398.026 117.34 387.843 39.0574 375.487 27.1931C351.869 2.17631 283.354 0.0325517 235.654 0" fill="white"/>
</mask>
<g mask="url(#mask36)">
<path fill-rule="evenodd" clip-rule="evenodd" d="M175.818 281.962H191.477C192.347 281.962 193.059 281.289 193.079 280.447L193.157 277.481C193.18 276.608 192.455 275.889 191.553 275.889H176.106C175.277 275.889 174.586 276.499 174.508 277.296L174.222 280.263C174.132 281.174 174.873 281.962 175.818 281.962Z" fill="#A4D6EF"/>
</g>
<mask id="mask37" mask-type="alpha" maskUnits="userSpaceOnUse" x="55" y="0" width="501" height="402">
<path d="M233.315 0C224.931 0.00465024 217.244 0.0666535 210.626 0.0666535C125.134 0.0666535 55.8276 69.4654 55.8276 155.075C55.8276 212.546 87.0629 262.711 133.461 289.479L131.948 289.715C131.948 289.715 208.814 329.574 267.835 380.429L267.351 379.003C286.58 393.16 310.315 401.538 336.013 401.538C380.913 401.538 419.832 375.999 439.147 338.651C475.976 283.189 526.179 244.293 526.179 244.293L526.054 244.048C544.168 229.863 555.828 207.79 555.828 182.976C555.828 140.172 521.174 105.472 478.428 105.472C469.8 105.472 461.513 106.906 453.764 109.515C398.026 117.34 387.843 39.0574 375.487 27.1931C351.869 2.17631 283.354 0.0325517 235.654 0" fill="white"/>
</mask>
<g mask="url(#mask37)">
<path fill-rule="evenodd" clip-rule="evenodd" d="M154.195 281.962H169.831C170.651 281.962 171.34 281.36 171.425 280.57L171.744 277.603C171.842 276.687 171.1 275.889 170.148 275.889H154.725C153.945 275.889 153.277 276.433 153.143 277.177L152.614 280.144C152.445 281.092 153.199 281.962 154.195 281.962Z" fill="#A4D6EF"/>
</g>
<mask id="mask38" mask-type="alpha" maskUnits="userSpaceOnUse" x="55" y="0" width="501" height="402">
<path d="M233.315 0C224.931 0.00465024 217.244 0.0666535 210.626 0.0666535C125.134 0.0666535 55.8276 69.4654 55.8276 155.075C55.8276 212.546 87.0629 262.711 133.461 289.479L131.948 289.715C131.948 289.715 208.814 329.574 267.835 380.429L267.351 379.003C286.58 393.16 310.315 401.538 336.013 401.538C380.913 401.538 419.832 375.999 439.147 338.651C475.976 283.189 526.179 244.293 526.179 244.293L526.054 244.048C544.168 229.863 555.828 207.79 555.828 182.976C555.828 140.172 521.174 105.472 478.428 105.472C469.8 105.472 461.513 106.906 453.764 109.515C398.026 117.34 387.843 39.0574 375.487 27.1931C351.869 2.17631 283.354 0.0325517 235.654 0" fill="white"/>
</mask>
<g mask="url(#mask38)">
<path fill-rule="evenodd" clip-rule="evenodd" d="M132.282 281.962H147.87C148.644 281.962 149.308 281.427 149.449 280.691L150.013 277.724C150.194 276.769 149.437 275.889 148.435 275.889H133.058C132.322 275.889 131.681 276.372 131.502 277.061L130.726 280.027C130.471 281.009 131.236 281.962 132.282 281.962Z" fill="#A4D6EF"/>
</g>
<mask id="mask39" mask-type="alpha" maskUnits="userSpaceOnUse" x="55" y="0" width="501" height="402">
<path d="M233.315 0C224.931 0.00465024 217.244 0.0666535 210.626 0.0666535C125.134 0.0666535 55.8276 69.4654 55.8276 155.075C55.8276 212.546 87.0629 262.711 133.461 289.479L131.948 289.715C131.948 289.715 208.814 329.574 267.835 380.429L267.351 379.003C286.58 393.16 310.315 401.538 336.013 401.538C380.913 401.538 419.832 375.999 439.147 338.651C475.976 283.189 526.179 244.293 526.179 244.293L526.054 244.048C544.168 229.863 555.828 207.79 555.828 182.976C555.828 140.172 521.174 105.472 478.428 105.472C469.8 105.472 461.513 106.906 453.764 109.515C398.026 117.34 387.843 39.0574 375.487 27.1931C351.869 2.17631 283.354 0.0325517 235.654 0" fill="white"/>
</mask>
<g mask="url(#mask39)">
<path fill-rule="evenodd" clip-rule="evenodd" d="M110.031 281.962H125.555C126.282 281.962 126.918 281.488 127.104 280.807L127.918 277.842C128.188 276.854 127.421 275.889 126.369 275.889H111.056C110.366 275.889 109.753 276.315 109.534 276.95L108.511 279.916C108.163 280.922 108.935 281.962 110.031 281.962Z" fill="#A4D6EF"/>
</g>
<mask id="mask40" mask-type="alpha" maskUnits="userSpaceOnUse" x="55" y="0" width="501" height="402">
<path d="M233.315 0C224.931 0.00465024 217.244 0.0666535 210.626 0.0666535C125.134 0.0666535 55.8276 69.4654 55.8276 155.075C55.8276 212.546 87.0629 262.711 133.461 289.479L131.948 289.715C131.948 289.715 208.814 329.574 267.835 380.429L267.351 379.003C286.58 393.16 310.315 401.538 336.013 401.538C380.913 401.538 419.832 375.999 439.147 338.651C475.976 283.189 526.179 244.293 526.179 244.293L526.054 244.048C544.168 229.863 555.828 207.79 555.828 182.976C555.828 140.172 521.174 105.472 478.428 105.472C469.8 105.472 461.513 106.906 453.764 109.515C398.026 117.34 387.843 39.0574 375.487 27.1931C351.869 2.17631 283.354 0.0325517 235.654 0H233.315Z" fill="white"/>
</mask>
<g mask="url(#mask40)">
<path fill-rule="evenodd" clip-rule="evenodd" d="M87.2048 279.228C86.5624 280.732 87.4122 281.963 89.0918 281.963H101.966C103.648 281.963 105.471 280.704 106.017 279.165L106.188 278.686C106.734 277.148 105.809 275.889 104.129 275.889H91.6862C90.0051 275.889 88.1042 277.12 87.4633 278.622L87.2048 279.228Z" fill="#A4D6EF"/>
</g>
<mask id="mask41" mask-type="alpha" maskUnits="userSpaceOnUse" x="55" y="0" width="501" height="402">
<path d="M233.315 0C224.931 0.00465024 217.244 0.0666535 210.626 0.0666535C125.134 0.0666535 55.8276 69.4654 55.8276 155.075C55.8276 212.546 87.0629 262.711 133.461 289.479L131.948 289.715C131.948 289.715 208.814 329.574 267.835 380.429L267.351 379.003C286.58 393.16 310.315 401.538 336.013 401.538C380.913 401.538 419.832 375.999 439.147 338.651C475.976 283.189 526.179 244.293 526.179 244.293L526.054 244.048C544.168 229.863 555.828 207.79 555.828 182.976C555.828 140.172 521.174 105.472 478.428 105.472C469.8 105.472 461.513 106.906 453.764 109.515C398.026 117.34 387.843 39.0574 375.487 27.1931C351.869 2.17631 283.354 0.0325517 235.654 0" fill="white"/>
</mask>
<g mask="url(#mask41)">
<path fill-rule="evenodd" clip-rule="evenodd" d="M66.3657 281.962H81.7078C82.3517 281.962 82.9322 281.59 83.183 281.018L84.4864 278.051C84.9369 277.025 84.1613 275.889 83.0112 275.889H67.8811C67.2697 275.889 66.714 276.223 66.4431 276.754L64.9276 279.72C64.4013 280.753 65.1768 281.962 66.3657 281.962Z" fill="#A4D6EF"/>
</g>
<mask id="mask42" mask-type="alpha" maskUnits="userSpaceOnUse" x="55" y="0" width="501" height="402">
<path d="M233.315 0C224.931 0.00465024 217.244 0.0666535 210.626 0.0666535C125.134 0.0666535 55.8276 69.4654 55.8276 155.075C55.8276 212.546 87.0629 262.711 133.461 289.479L131.948 289.715C131.948 289.715 208.814 329.574 267.835 380.429L267.351 379.003C286.58 393.16 310.315 401.538 336.013 401.538C380.913 401.538 419.832 375.999 439.147 338.651C475.976 283.189 526.179 244.293 526.179 244.293L526.054 244.048C544.168 229.863 555.828 207.79 555.828 182.976C555.828 140.172 521.174 105.472 478.428 105.472C469.8 105.472 461.513 106.906 453.764 109.515C398.026 117.34 387.843 39.0574 375.487 27.1931C351.869 2.17631 283.354 0.0325517 235.654 0" fill="white"/>
</mask>
<g mask="url(#mask42)">
<path fill-rule="evenodd" clip-rule="evenodd" d="M305.622 291.137H321.74C322.905 291.137 323.69 289.99 323.226 288.964L321.724 285.653C321.467 285.085 320.884 284.718 320.238 284.718H304.361C303.234 284.718 302.452 285.792 302.837 286.804L304.1 290.117C304.334 290.728 304.943 291.137 305.622 291.137Z" fill="#A4D6EF"/>
</g>
<mask id="mask43" mask-type="alpha" maskUnits="userSpaceOnUse" x="55" y="0" width="501" height="402">
<path d="M233.315 0C224.931 0.00465024 217.244 0.0666535 210.626 0.0666535C125.134 0.0666535 55.8276 69.4654 55.8276 155.075C55.8276 212.546 87.0629 262.711 133.461 289.479L131.948 289.715C131.948 289.715 208.814 329.574 267.835 380.429L267.351 379.003C286.58 393.16 310.315 401.538 336.013 401.538C380.913 401.538 419.832 375.999 439.147 338.651C475.976 283.189 526.179 244.293 526.179 244.293L526.054 244.048C544.168 229.863 555.828 207.79 555.828 182.976C555.828 140.172 521.174 105.472 478.428 105.472C469.8 105.472 461.513 106.906 453.764 109.515C398.026 117.34 387.843 39.0574 375.487 27.1931C351.869 2.17631 283.354 0.0325517 235.654 0" fill="white"/>
</mask>
<g mask="url(#mask43)">
<path fill-rule="evenodd" clip-rule="evenodd" d="M282.783 291.137H298.989C300.107 291.137 300.889 290.074 300.516 289.064L299.293 285.752C299.064 285.133 298.451 284.718 297.766 284.718H281.797C280.721 284.718 279.944 285.705 280.239 286.699L281.225 290.008C281.423 290.677 282.059 291.137 282.783 291.137Z" fill="#A4D6EF"/>
</g>
<mask id="mask44" mask-type="alpha" maskUnits="userSpaceOnUse" x="55" y="0" width="501" height="402">
<path d="M233.315 0C224.931 0.00465024 217.244 0.0666535 210.626 0.0666535C125.134 0.0666535 55.8276 69.4654 55.8276 155.075C55.8276 212.546 87.0629 262.711 133.461 289.479L131.948 289.715C131.948 289.715 208.814 329.574 267.835 380.429L267.351 379.003C286.58 393.16 310.315 401.538 336.013 401.538C380.913 401.538 419.832 375.999 439.147 338.651C475.976 283.189 526.179 244.293 526.179 244.293L526.054 244.048C544.168 229.863 555.828 207.79 555.828 182.976C555.828 140.172 521.174 105.472 478.428 105.472C469.8 105.472 461.513 106.906 453.764 109.515C398.026 117.34 387.843 39.0574 375.487 27.1931C351.869 2.17631 283.354 0.0325517 235.654 0" fill="white"/>
</mask>
<g mask="url(#mask44)">
<path fill-rule="evenodd" clip-rule="evenodd" d="M260.27 291.137H276.545C277.615 291.137 278.391 290.159 278.106 289.17L277.157 285.86C276.963 285.185 276.324 284.718 275.593 284.718H259.558C258.531 284.718 257.765 285.622 257.973 286.584L258.685 289.897C258.839 290.618 259.502 291.137 260.27 291.137Z" fill="#A4D6EF"/>
</g>
<mask id="mask45" mask-type="alpha" maskUnits="userSpaceOnUse" x="55" y="0" width="501" height="402">
<path d="M233.315 0C224.931 0.00465024 217.244 0.0666535 210.626 0.0666535C125.134 0.0666535 55.8276 69.4654 55.8276 155.075C55.8276 212.546 87.0629 262.711 133.461 289.479L131.948 289.715C131.948 289.715 208.814 329.574 267.835 380.429L267.351 379.003C286.58 393.16 310.315 401.538 336.013 401.538C380.913 401.538 419.832 375.999 439.147 338.651C475.976 283.189 526.179 244.293 526.179 244.293L526.054 244.048C544.168 229.863 555.828 207.79 555.828 182.976C555.828 140.172 521.174 105.472 478.428 105.472C469.8 105.472 461.513 106.906 453.764 109.515C398.026 117.34 387.843 39.0574 375.487 27.1931C351.869 2.17631 283.354 0.0325517 235.654 0" fill="white"/>
</mask>
<g mask="url(#mask45)">
<path fill-rule="evenodd" clip-rule="evenodd" d="M237.455 291.137H253.781C254.8 291.137 255.566 290.244 255.371 289.286L254.698 285.975C254.549 285.245 253.882 284.718 253.106 284.718H237.02C236.045 284.718 235.291 285.54 235.413 286.467L235.848 289.778C235.95 290.554 236.639 291.137 237.455 291.137Z" fill="#A4D6EF"/>
</g>
<mask id="mask46" mask-type="alpha" maskUnits="userSpaceOnUse" x="55" y="0" width="501" height="402">
<path d="M233.315 0C224.931 0.00465024 217.244 0.0666535 210.626 0.0666535C125.134 0.0666535 55.8276 69.4654 55.8276 155.075C55.8276 212.546 87.0629 262.711 133.461 289.479L131.948 289.715C131.948 289.715 208.814 329.574 267.835 380.429L267.351 379.003C286.58 393.16 310.315 401.538 336.013 401.538C380.913 401.538 419.832 375.999 439.147 338.651C475.976 283.189 526.179 244.293 526.179 244.293L526.054 244.048C544.168 229.863 555.828 207.79 555.828 182.976C555.828 140.172 521.174 105.472 478.428 105.472C469.8 105.472 461.513 106.906 453.764 109.515C398.026 117.34 387.843 39.0574 375.487 27.1931C351.869 2.17631 283.354 0.0325517 235.654 0" fill="white"/>
</mask>
<g mask="url(#mask46)">
<path fill-rule="evenodd" clip-rule="evenodd" d="M214.737 291.137H231.091C232.06 291.137 232.812 290.328 232.701 289.405L232.305 286.094C232.209 285.31 231.517 284.718 230.695 284.718H214.576C213.651 284.718 212.915 285.459 212.958 286.344L213.117 289.655C213.156 290.484 213.87 291.137 214.737 291.137Z" fill="#A4D6EF"/>
</g>
<mask id="mask47" mask-type="alpha" maskUnits="userSpaceOnUse" x="55" y="0" width="501" height="402">
<path d="M233.315 0C224.931 0.00465024 217.244 0.0666535 210.626 0.0666535C125.134 0.0666535 55.8276 69.4654 55.8276 155.075C55.8276 212.546 87.0629 262.711 133.461 289.479L131.948 289.715C131.948 289.715 208.814 329.574 267.835 380.429L267.351 379.003C286.58 393.16 310.315 401.538 336.013 401.538C380.913 401.538 419.832 375.999 439.147 338.651C475.976 283.189 526.179 244.293 526.179 244.293L526.054 244.048C544.168 229.863 555.828 207.79 555.828 182.976C555.828 140.172 521.174 105.472 478.428 105.472C469.8 105.472 461.513 106.906 453.764 109.515C398.026 117.34 387.843 39.0574 375.487 27.1931C351.869 2.17631 283.354 0.0325517 235.654 0" fill="white"/>
</mask>
<g mask="url(#mask47)">
<path fill-rule="evenodd" clip-rule="evenodd" d="M191.961 291.137H208.328C209.246 291.137 209.98 290.407 209.947 289.528L209.827 286.217C209.796 285.381 209.081 284.718 208.207 284.718H192.077C191.204 284.718 190.489 285.381 190.458 286.219L190.342 289.531C190.313 290.408 191.045 291.137 191.961 291.137Z" fill="#A4D6EF"/>
</g>
<mask id="mask48" mask-type="alpha" maskUnits="userSpaceOnUse" x="55" y="0" width="501" height="402">
<path d="M233.315 0C224.931 0.00465024 217.244 0.0666535 210.626 0.0666535C125.134 0.0666535 55.8276 69.4654 55.8276 155.075C55.8276 212.546 87.0629 262.711 133.461 289.479L131.948 289.715C131.948 289.715 208.814 329.574 267.835 380.429L267.351 379.003C286.58 393.16 310.315 401.538 336.013 401.538C380.913 401.538 419.832 375.999 439.147 338.651C475.976 283.189 526.179 244.293 526.179 244.293L526.054 244.048C544.168 229.863 555.828 207.79 555.828 182.976C555.828 140.172 521.174 105.472 478.428 105.472C469.8 105.472 461.513 106.906 453.764 109.515C398.026 117.34 387.843 39.0574 375.487 27.1931C351.869 2.17631 283.354 0.0325517 235.654 0" fill="white"/>
</mask>
<g mask="url(#mask48)">
<path fill-rule="evenodd" clip-rule="evenodd" d="M169.173 291.137H185.529C186.395 291.137 187.109 290.483 187.148 289.652L187.304 286.341C187.344 285.457 186.609 284.718 185.685 284.718H169.566C168.742 284.718 168.049 285.31 167.957 286.096L167.563 289.407C167.454 290.329 168.205 291.137 169.173 291.137Z" fill="#A4D6EF"/>
</g>
<mask id="mask49" mask-type="alpha" maskUnits="userSpaceOnUse" x="55" y="0" width="501" height="402">
<path d="M233.315 0C224.931 0.00465024 217.244 0.0666535 210.626 0.0666535C125.134 0.0666535 55.8276 69.4654 55.8276 155.075C55.8276 212.546 87.0629 262.711 133.461 289.479L131.948 289.715C131.948 289.715 208.814 329.574 267.835 380.429L267.351 379.003C286.58 393.16 310.315 401.538 336.013 401.538C380.913 401.538 419.832 375.999 439.147 338.651C475.976 283.189 526.179 244.293 526.179 244.293L526.054 244.048C544.168 229.863 555.828 207.79 555.828 182.976C555.828 140.172 521.174 105.472 478.428 105.472C469.8 105.472 461.513 106.906 453.764 109.515C398.026 117.34 387.843 39.0574 375.487 27.1931C351.869 2.17631 283.354 0.0325517 235.654 0" fill="white"/>
</mask>
<g mask="url(#mask49)">
<path fill-rule="evenodd" clip-rule="evenodd" d="M146.71 291.137H163.037C163.854 291.137 164.545 290.553 164.645 289.774L165.072 286.462C165.192 285.536 164.438 284.718 163.464 284.718H147.377C146.6 284.718 145.933 285.247 145.784 285.978L145.12 289.289C144.927 290.247 145.693 291.137 146.71 291.137Z" fill="#A4D6EF"/>
</g>
<mask id="mask50" mask-type="alpha" maskUnits="userSpaceOnUse" x="55" y="0" width="501" height="402">
<path d="M233.315 0C224.931 0.00465024 217.244 0.0666535 210.626 0.0666535C125.134 0.0666535 55.8276 69.4654 55.8276 155.075C55.8276 212.546 87.0629 262.711 133.461 289.479L131.948 289.715C131.948 289.715 208.814 329.574 267.835 380.429L267.351 379.003C286.58 393.16 310.315 401.538 336.013 401.538C380.913 401.538 419.832 375.999 439.147 338.651C475.976 283.189 526.179 244.293 526.179 244.293L526.054 244.048C544.168 229.863 555.828 207.79 555.828 182.976C555.828 140.172 521.174 105.472 478.428 105.472C469.8 105.472 461.513 106.906 453.764 109.515C398.026 117.34 387.843 39.0574 375.487 27.1931C351.869 2.17631 283.354 0.0325517 235.654 0" fill="white"/>
</mask>
<g mask="url(#mask50)">
<path fill-rule="evenodd" clip-rule="evenodd" d="M123.945 291.137H140.222C140.992 291.137 141.654 290.616 141.809 289.894L142.513 286.583C142.719 285.619 141.951 284.718 140.927 284.718H124.888C124.159 284.718 123.52 285.186 123.326 285.864L122.382 289.173C122.102 290.162 122.879 291.137 123.945 291.137Z" fill="#A4D6EF"/>
</g>
<mask id="mask51" mask-type="alpha" maskUnits="userSpaceOnUse" x="55" y="0" width="501" height="402">
<path d="M233.315 0C224.931 0.00465024 217.244 0.0666535 210.626 0.0666535C125.134 0.0666535 55.8276 69.4654 55.8276 155.075C55.8276 212.546 87.0629 262.711 133.461 289.479L131.948 289.715C131.948 289.715 208.814 329.574 267.835 380.429L267.351 379.003C286.58 393.16 310.315 401.538 336.013 401.538C380.913 401.538 419.832 375.999 439.147 338.651C475.976 283.189 526.179 244.293 526.179 244.293L526.054 244.048C544.168 229.863 555.828 207.79 555.828 182.976C555.828 140.172 521.174 105.472 478.428 105.472C469.8 105.472 461.513 106.906 453.764 109.515C398.026 117.34 387.843 39.0574 375.487 27.1931C351.869 2.17631 283.354 0.0325517 235.654 0" fill="white"/>
</mask>
<g mask="url(#mask51)">
<path fill-rule="evenodd" clip-rule="evenodd" d="M100.83 291.137H117.036C117.76 291.137 118.395 290.677 118.594 290.008L119.579 286.699C119.875 285.705 119.097 284.718 118.02 284.718H102.054C101.368 284.718 100.757 285.132 100.528 285.752L99.3033 289.063C98.9287 290.074 99.7105 291.137 100.83 291.137Z" fill="#A4D6EF"/>
</g>
<mask id="mask52" mask-type="alpha" maskUnits="userSpaceOnUse" x="55" y="0" width="501" height="402">
<path d="M233.315 0C224.931 0.00465024 217.244 0.0666535 210.626 0.0666535C125.134 0.0666535 55.8276 69.4654 55.8276 155.075C55.8276 212.546 87.0629 262.711 133.461 289.479L131.948 289.715C131.948 289.715 208.814 329.574 267.835 380.429L267.351 379.003C286.58 393.16 310.315 401.538 336.013 401.538C380.913 401.538 419.832 375.999 439.147 338.651C475.976 283.189 526.179 244.293 526.179 244.293L526.054 244.048C544.168 229.863 555.828 207.79 555.828 182.976C555.828 140.172 521.174 105.472 478.428 105.472C469.8 105.472 461.513 106.906 453.764 109.515C398.026 117.34 387.843 39.0574 375.487 27.1931C351.869 2.17631 283.354 0.0325517 235.654 0" fill="white"/>
</mask>
<g mask="url(#mask52)">
<path fill-rule="evenodd" clip-rule="evenodd" d="M78.3947 291.137H94.5139C95.195 291.137 95.8018 290.728 96.0356 290.115L97.2956 286.804C97.6795 285.791 96.8978 284.718 95.774 284.718H79.8916C79.2461 284.718 78.6625 285.087 78.4055 285.654L76.9086 288.965C76.4442 289.991 77.2291 291.137 78.3947 291.137Z" fill="#A4D6EF"/>
</g>
<mask id="mask53" mask-type="alpha" maskUnits="userSpaceOnUse" x="55" y="0" width="501" height="402">
<path d="M233.315 0C224.931 0.00465024 217.244 0.0666535 210.626 0.0666535C125.134 0.0666535 55.8276 69.4654 55.8276 155.075C55.8276 212.546 87.0629 262.711 133.461 289.479L131.948 289.715C131.948 289.715 208.814 329.574 267.835 380.429L267.351 379.003C286.58 393.16 310.315 401.538 336.013 401.538C380.913 401.538 419.832 375.999 439.147 338.651C475.976 283.189 526.179 244.293 526.179 244.293L526.054 244.048C544.168 229.863 555.828 207.79 555.828 182.976C555.828 140.172 521.174 105.472 478.428 105.472C469.8 105.472 461.513 106.906 453.764 109.515C398.026 117.34 387.843 39.0574 375.487 27.1931C351.869 2.17631 283.354 0.0325517 235.654 0" fill="white"/>
</mask>
<g mask="url(#mask53)">
<path fill-rule="evenodd" clip-rule="evenodd" d="M321.229 300.633H337.977C339.175 300.633 339.964 299.442 339.451 298.411L337.616 294.731C337.347 294.19 336.773 293.845 336.144 293.845H319.661C318.503 293.845 317.714 294.962 318.15 295.982L319.717 299.662C319.968 300.25 320.565 300.633 321.229 300.633Z" fill="#A4D6EF"/>
</g>
<mask id="mask54" mask-type="alpha" maskUnits="userSpaceOnUse" x="55" y="0" width="501" height="402">
<path d="M233.315 0C224.931 0.00465024 217.244 0.0666535 210.626 0.0666535C125.134 0.0666535 55.8276 69.4654 55.8276 155.075C55.8276 212.546 87.0629 262.711 133.461 289.479L131.948 289.715C131.948 289.715 208.814 329.574 267.835 380.429L267.351 379.003C286.58 393.16 310.315 401.538 336.013 401.538C380.913 401.538 419.832 375.999 439.147 338.651C475.976 283.189 526.179 244.293 526.179 244.293L526.054 244.048C544.168 229.863 555.828 207.79 555.828 182.976C555.828 140.172 521.174 105.472 478.428 105.472C469.8 105.472 461.513 106.906 453.764 109.515C398.026 117.34 387.843 39.0574 375.487 27.1931C351.869 2.17631 283.354 0.0325517 235.654 0" fill="white"/>
</mask>
<g mask="url(#mask54)">
<path fill-rule="evenodd" clip-rule="evenodd" d="M297.566 300.633H314.412C315.562 300.633 316.351 299.527 315.927 298.509L314.404 294.829C314.159 294.235 313.557 293.845 312.885 293.845H296.309C295.2 293.845 294.415 294.876 294.758 295.88L296.015 299.56C296.234 300.2 296.859 300.633 297.566 300.633Z" fill="#A4D6EF"/>
</g>
<mask id="mask55" mask-type="alpha" maskUnits="userSpaceOnUse" x="55" y="0" width="501" height="402">
<path d="M233.315 0C224.931 0.00465024 217.244 0.0666535 210.626 0.0666535C125.134 0.0666535 55.8276 69.4654 55.8276 155.075C55.8276 212.546 87.0629 262.711 133.461 289.479L131.948 289.715C131.948 289.715 208.814 329.574 267.835 380.429L267.351 379.003C286.58 393.16 310.315 401.538 336.013 401.538C380.913 401.538 419.832 375.999 439.147 338.651C475.976 283.189 526.179 244.293 526.179 244.293L526.054 244.048C544.168 229.863 555.828 207.79 555.828 182.976C555.828 140.172 521.174 105.472 478.428 105.472C469.8 105.472 461.513 106.906 453.764 109.515C398.026 117.34 387.843 39.0574 375.487 27.1931C351.869 2.17631 283.354 0.0325517 235.654 0" fill="white"/>
</mask>
<g mask="url(#mask55)">
<path fill-rule="evenodd" clip-rule="evenodd" d="M274.24 300.633H291.163C292.267 300.633 293.05 299.613 292.72 298.611L291.499 294.931C291.287 294.285 290.655 293.845 289.945 293.845H273.288C272.228 293.845 271.449 294.79 271.703 295.77L272.657 299.45C272.836 300.146 273.489 300.633 274.24 300.633Z" fill="#A4D6EF"/>
</g>
<mask id="mask56" mask-type="alpha" maskUnits="userSpaceOnUse" x="55" y="0" width="501" height="402">
<path d="M233.315 0C224.931 0.00465024 217.244 0.0666535 210.626 0.0666535C125.134 0.0666535 55.8276 69.4654 55.8276 155.075C55.8276 212.546 87.0629 262.711 133.461 289.479L131.948 289.715C131.948 289.715 208.814 329.574 267.835 380.429L267.351 379.003C286.58 393.16 310.315 401.538 336.013 401.538C380.913 401.538 419.832 375.999 439.147 338.651C475.976 283.189 526.179 244.293 526.179 244.293L526.054 244.048C544.168 229.863 555.828 207.79 555.828 182.976C555.828 140.172 521.174 105.472 478.428 105.472C469.8 105.472 461.513 106.906 453.764 109.515C398.026 117.34 387.843 39.0574 375.487 27.1931C351.869 2.17631 283.354 0.0325517 235.654 0" fill="white"/>
</mask>
<g mask="url(#mask56)">
<path fill-rule="evenodd" clip-rule="evenodd" d="M250.6 300.633H267.585C268.636 300.633 269.413 299.698 269.173 298.723L268.264 295.044C268.091 294.341 267.433 293.845 266.676 293.845H249.958C248.95 293.845 248.182 294.707 248.35 295.654L248.992 299.334C249.122 300.084 249.802 300.633 250.6 300.633Z" fill="#A4D6EF"/>
</g>
<mask id="mask57" mask-type="alpha" maskUnits="userSpaceOnUse" x="55" y="0" width="501" height="402">
<path d="M233.315 0C224.931 0.00465024 217.244 0.0666535 210.626 0.0666535C125.134 0.0666535 55.8276 69.4654 55.8276 155.075C55.8276 212.546 87.0629 262.711 133.461 289.479L131.948 289.715C131.948 289.715 208.814 329.574 267.835 380.429L267.351 379.003C286.58 393.16 310.315 401.538 336.013 401.538C380.913 401.538 419.832 375.999 439.147 338.651C475.976 283.189 526.179 244.293 526.179 244.293L526.054 244.048C544.168 229.863 555.828 207.79 555.828 182.976C555.828 140.172 521.174 105.472 478.428 105.472C469.8 105.472 461.513 106.906 453.764 109.515C398.026 117.34 387.843 39.0574 375.487 27.1931C351.869 2.17631 283.354 0.0325517 235.654 0" fill="white"/>
</mask>
<g mask="url(#mask57)">
<path fill-rule="evenodd" clip-rule="evenodd" d="M227.06 300.633H244.085C245.086 300.633 245.851 299.782 245.698 298.841L245.096 295.161C244.973 294.403 244.289 293.845 243.484 293.845H226.726C225.769 293.845 225.018 294.624 225.1 295.533L225.435 299.213C225.507 300.016 226.213 300.633 227.06 300.633Z" fill="#A4D6EF"/>
</g>
<mask id="mask58" mask-type="alpha" maskUnits="userSpaceOnUse" x="55" y="0" width="501" height="402">
<path d="M233.315 0C224.931 0.00465024 217.244 0.0666535 210.626 0.0666535C125.134 0.0666535 55.8276 69.4654 55.8276 155.075C55.8276 212.546 87.0629 262.711 133.461 289.479L131.948 289.715C131.948 289.715 208.814 329.574 267.835 380.429L267.351 379.003C286.58 393.16 310.315 401.538 336.013 401.538C380.913 401.538 419.832 375.999 439.147 338.651C475.976 283.189 526.179 244.293 526.179 244.293L526.054 244.048C544.168 229.863 555.828 207.79 555.828 182.976C555.828 140.172 521.174 105.472 478.428 105.472C469.8 105.472 461.513 106.906 453.764 109.515C398.026 117.34 387.843 39.0574 375.487 27.1931C351.869 2.17631 283.354 0.0325517 235.654 0" fill="white"/>
</mask>
<g mask="url(#mask58)">
<path fill-rule="evenodd" clip-rule="evenodd" d="M203.461 300.633H220.509C221.458 300.633 222.206 299.864 222.134 298.962L221.843 295.282C221.78 294.471 221.071 293.845 220.216 293.845H203.436C202.531 293.845 201.8 294.547 201.806 295.409L201.829 299.089C201.836 299.943 202.565 300.633 203.461 300.633Z" fill="#A4D6EF"/>
</g>
<mask id="mask59" mask-type="alpha" maskUnits="userSpaceOnUse" x="55" y="0" width="501" height="402">
<path d="M233.315 0C224.931 0.00465024 217.244 0.0666535 210.626 0.0666535C125.134 0.0666535 55.8276 69.4654 55.8276 155.075C55.8276 212.546 87.0629 262.711 133.461 289.479L131.948 289.715C131.948 289.715 208.814 329.574 267.835 380.429L267.351 379.003C286.58 393.16 310.315 401.538 336.013 401.538C380.913 401.538 419.832 375.999 439.147 338.651C475.976 283.189 526.179 244.293 526.179 244.293L526.054 244.048C544.168 229.863 555.828 207.79 555.828 182.976C555.828 140.172 521.174 105.472 478.428 105.472C469.8 105.472 461.513 106.906 453.764 109.515C398.026 117.34 387.843 39.0574 375.487 27.1931C351.869 2.17631 283.354 0.0325517 235.654 0" fill="white"/>
</mask>
<g mask="url(#mask59)">
<path fill-rule="evenodd" clip-rule="evenodd" d="M179.848 300.633H196.895C197.793 300.633 198.522 299.941 198.526 299.086L198.545 295.407C198.549 294.545 197.817 293.845 196.913 293.845H180.133C179.279 293.845 178.57 294.473 178.506 295.285L178.221 298.965C178.152 299.865 178.901 300.633 179.848 300.633Z" fill="#A4D6EF"/>
</g>
<mask id="mask60" mask-type="alpha" maskUnits="userSpaceOnUse" x="55" y="0" width="501" height="402">
<path d="M233.315 0C224.931 0.00465024 217.244 0.0666535 210.626 0.0666535C125.134 0.0666535 55.8276 69.4654 55.8276 155.075C55.8276 212.546 87.0629 262.711 133.461 289.479L131.948 289.715C131.948 289.715 208.814 329.574 267.835 380.429L267.351 379.003C286.58 393.16 310.315 401.538 336.013 401.538C380.913 401.538 419.832 375.999 439.147 338.651C475.976 283.189 526.179 244.293 526.179 244.293L526.054 244.048C544.168 229.863 555.828 207.79 555.828 182.976C555.828 140.172 521.174 105.472 478.428 105.472C469.8 105.472 461.513 106.906 453.764 109.515C398.026 117.34 387.843 39.0574 375.487 27.1931C351.869 2.17631 283.354 0.0325517 235.654 0" fill="white"/>
</mask>
<g mask="url(#mask60)">
<path fill-rule="evenodd" clip-rule="evenodd" d="M156.573 300.633H173.599C174.447 300.633 175.155 300.014 175.224 299.208L175.549 295.528C175.63 294.623 174.878 293.845 173.923 293.845H157.162C156.356 293.845 155.672 294.404 155.551 295.164L154.96 298.844C154.808 299.785 155.573 300.633 156.573 300.633Z" fill="#A4D6EF"/>
</g>
<mask id="mask61" mask-type="alpha" maskUnits="userSpaceOnUse" x="55" y="0" width="501" height="402">
<path d="M233.315 0C224.931 0.00465024 217.244 0.0666535 210.626 0.0666535C125.134 0.0666535 55.8276 69.4654 55.8276 155.075C55.8276 212.546 87.0629 262.711 133.461 289.479L131.948 289.715C131.948 289.715 208.814 329.574 267.835 380.429L267.351 379.003C286.58 393.16 310.315 401.538 336.013 401.538C380.913 401.538 419.832 375.999 439.147 338.651C475.976 283.189 526.179 244.293 526.179 244.293L526.054 244.048C544.168 229.863 555.828 207.79 555.828 182.976C555.828 140.172 521.174 105.472 478.428 105.472C469.8 105.472 461.513 106.906 453.764 109.515C398.026 117.34 387.843 39.0574 375.487 27.1931C351.869 2.17631 283.354 0.0325517 235.654 0" fill="white"/>
</mask>
<g mask="url(#mask61)">
<path fill-rule="evenodd" clip-rule="evenodd" d="M132.984 300.633H149.97C150.768 300.633 151.451 300.082 151.58 299.33L152.214 295.651C152.375 294.705 151.609 293.845 150.604 293.845H133.884C133.126 293.845 132.467 294.342 132.296 295.046L131.395 298.727C131.155 299.699 131.932 300.633 132.984 300.633Z" fill="#A4D6EF"/>
</g>
<mask id="mask62" mask-type="alpha" maskUnits="userSpaceOnUse" x="55" y="0" width="501" height="402">
<path d="M233.315 0C224.931 0.00465024 217.244 0.0666535 210.626 0.0666535C125.134 0.0666535 55.8276 69.4654 55.8276 155.075C55.8276 212.546 87.0629 262.711 133.461 289.479L131.948 289.715C131.948 289.715 208.814 329.574 267.835 380.429L267.351 379.003C286.58 393.16 310.315 401.538 336.013 401.538C380.913 401.538 419.832 375.999 439.147 338.651C475.976 283.189 526.179 244.293 526.179 244.293L526.054 244.048C544.168 229.863 555.828 207.79 555.828 182.976C555.828 140.172 521.174 105.472 478.428 105.472C469.8 105.472 461.513 106.906 453.764 109.515C398.026 117.34 387.843 39.0574 375.487 27.1931C351.869 2.17631 283.354 0.0325517 235.654 0" fill="white"/>
</mask>
<g mask="url(#mask62)">
<path fill-rule="evenodd" clip-rule="evenodd" d="M109.031 300.633H125.956C126.707 300.633 127.36 300.144 127.54 299.448L128.487 295.768C128.74 294.79 127.961 293.845 126.904 293.845H110.246C109.534 293.845 108.904 294.285 108.69 294.933L107.475 298.613C107.144 299.614 107.93 300.633 109.031 300.633Z" fill="#9DC5F5"/>
</g>
<mask id="mask63" mask-type="alpha" maskUnits="userSpaceOnUse" x="55" y="0" width="501" height="402">
<path d="M233.315 0C224.931 0.00465024 217.244 0.0666535 210.626 0.0666535C125.134 0.0666535 55.8276 69.4654 55.8276 155.075C55.8276 212.546 87.0629 262.711 133.461 289.479L131.948 289.715C131.948 289.715 208.814 329.574 267.835 380.429L267.351 379.003C286.58 393.16 310.315 401.538 336.013 401.538C380.913 401.538 419.832 375.999 439.147 338.651C475.976 283.189 526.179 244.293 526.179 244.293L526.054 244.048C544.168 229.863 555.828 207.79 555.828 182.976C555.828 140.172 521.174 105.472 478.428 105.472C469.8 105.472 461.513 106.906 453.764 109.515C398.026 117.34 387.843 39.0574 375.487 27.1931C351.869 2.17631 283.354 0.0325517 235.654 0" fill="white"/>
</mask>
<g mask="url(#mask63)">
<path fill-rule="evenodd" clip-rule="evenodd" d="M85.7834 300.633H102.63C103.336 300.633 103.963 300.199 104.181 299.558L105.435 295.878C105.777 294.874 104.991 293.845 103.882 293.845H87.3035C86.6332 293.845 86.0311 294.235 85.7865 294.831L84.2664 298.51C83.8438 299.529 84.6332 300.633 85.7834 300.633Z" fill="#9DC5F5"/>
</g>
<mask id="mask64" mask-type="alpha" maskUnits="userSpaceOnUse" x="55" y="0" width="501" height="402">
<path d="M233.315 0C224.931 0.00465024 217.244 0.0666535 210.626 0.0666535C125.134 0.0666535 55.8276 69.4654 55.8276 155.075C55.8276 212.546 87.0629 262.711 133.461 289.479L131.948 289.715C131.948 289.715 208.814 329.574 267.835 380.429L267.351 379.003C286.58 393.16 310.315 401.538 336.013 401.538C380.913 401.538 419.832 375.999 439.147 338.651C475.976 283.189 526.179 244.293 526.179 244.293L526.054 244.048C544.168 229.863 555.828 207.79 555.828 182.976C555.828 140.172 521.174 105.472 478.428 105.472C469.8 105.472 461.513 106.906 453.764 109.515C398.026 117.34 387.843 39.0574 375.487 27.1931C351.869 2.17631 283.354 0.0325517 235.654 0" fill="white"/>
</mask>
<g mask="url(#mask64)">
<path fill-rule="evenodd" clip-rule="evenodd" d="M32.5127 300.633H78.7341C79.3997 300.633 79.9972 300.248 80.2464 299.662L81.8146 295.982C82.248 294.961 81.4585 293.845 80.3022 293.845H34.7341C34.1505 293.845 33.6102 294.142 33.3192 294.624L31.0978 298.304C30.474 299.34 31.2573 300.633 32.5127 300.633Z" fill="#9DC5F5"/>
</g>
<mask id="mask65" mask-type="alpha" maskUnits="userSpaceOnUse" x="55" y="0" width="501" height="402">
<path d="M233.315 0C224.931 0.00465024 217.244 0.0666535 210.626 0.0666535C125.134 0.0666535 55.8276 69.4654 55.8276 155.075C55.8276 212.546 87.0629 262.711 133.461 289.479L131.948 289.715C131.948 289.715 208.814 329.574 267.835 380.429L267.351 379.003C286.58 393.16 310.315 401.538 336.013 401.538C380.913 401.538 419.832 375.999 439.147 338.651C475.976 283.189 526.179 244.293 526.179 244.293L526.054 244.048C544.168 229.863 555.828 207.79 555.828 182.976C555.828 140.172 521.174 105.472 478.428 105.472C469.8 105.472 461.513 106.906 453.764 109.515C398.026 117.34 387.843 39.0574 375.487 27.1931C351.869 2.17631 283.354 0.0325517 235.654 0" fill="white"/>
</mask>
<g mask="url(#mask65)">
<path fill-rule="evenodd" clip-rule="evenodd" d="M55.4667 291.137H71.4806C72.12 291.137 72.7005 290.776 72.9605 290.215L74.4977 286.905C74.976 285.876 74.1912 284.718 73.0178 284.718H57.2423C56.6354 284.718 56.0797 285.044 55.8026 285.561L54.0255 288.872C53.4714 289.906 54.2546 291.137 55.4667 291.137Z" fill="#9DC5F5"/>
</g>
<mask id="mask66" mask-type="alpha" maskUnits="userSpaceOnUse" x="55" y="0" width="501" height="402">
<path d="M233.315 0C224.931 0.00465024 217.244 0.0666535 210.626 0.0666535C125.134 0.0666535 55.8276 69.4654 55.8276 155.075C55.8276 212.546 87.0629 262.711 133.461 289.479L131.948 289.715C131.948 289.715 208.814 329.574 267.835 380.429L267.351 379.003C286.58 393.16 310.315 401.538 336.013 401.538C380.913 401.538 419.832 375.999 439.147 338.651C475.976 283.189 526.179 244.293 526.179 244.293L526.054 244.048C544.168 229.863 555.828 207.79 555.828 182.976C555.828 140.172 521.174 105.472 478.428 105.472C469.8 105.472 461.513 106.906 453.764 109.515C398.026 117.34 387.843 39.0574 375.487 27.1931C351.869 2.17631 283.354 0.0325517 235.654 0" fill="white"/>
</mask>
<g mask="url(#mask66)">
<path fill-rule="evenodd" clip-rule="evenodd" d="M81.1068 273.402H95.9659C96.6269 273.402 97.2214 272.988 97.4582 272.365L98.5108 269.603C98.9133 268.542 98.1393 267.405 97.0155 267.405H82.3467C81.7183 267.405 81.147 267.775 80.8885 268.353L79.6501 271.115C79.1687 272.187 79.9427 273.402 81.1068 273.402Z" fill="#9DC5F5"/>
</g>
<mask id="mask67" mask-type="alpha" maskUnits="userSpaceOnUse" x="55" y="0" width="501" height="402">
<path d="M233.315 0C224.931 0.00465024 217.244 0.0666535 210.626 0.0666535C125.134 0.0666535 55.8276 69.4654 55.8276 155.075C55.8276 212.546 87.0629 262.711 133.461 289.479L131.948 289.715C131.948 289.715 208.814 329.574 267.835 380.429L267.351 379.003C286.58 393.16 310.315 401.538 336.013 401.538C380.913 401.538 419.832 375.999 439.147 338.651C475.976 283.189 526.179 244.293 526.179 244.293L526.054 244.048C544.168 229.863 555.828 207.79 555.828 182.976C555.828 140.172 521.174 105.472 478.428 105.472C469.8 105.472 461.513 106.906 453.764 109.515C398.026 117.34 387.843 39.0574 375.487 27.1931C351.869 2.17631 283.354 0.0325517 235.654 0" fill="white"/>
</mask>
<g mask="url(#mask67)">
<path fill-rule="evenodd" clip-rule="evenodd" d="M47.548 275.939H61.5418C62.7972 275.939 63.6455 276.278 63.4303 276.694L61.0603 281.229C60.8359 281.66 59.6006 282.015 58.3173 282.015H56.0758C55.4798 282.015 54.9334 282.335 54.6563 282.846L51.5015 288.656C51.2554 289.112 49.9706 289.487 48.6501 289.487H39.6316C38.3096 289.487 37.4535 289.112 37.7229 288.656L44.8189 276.694C45.065 276.278 46.2925 275.939 47.548 275.939Z" fill="#9DC5F5"/>
</g>
<mask id="mask68" mask-type="alpha" maskUnits="userSpaceOnUse" x="55" y="0" width="501" height="402">
<path d="M233.315 0C224.931 0.00465024 217.244 0.0666535 210.626 0.0666535C125.134 0.0666535 55.8276 69.4654 55.8276 155.075C55.8276 212.546 87.0629 262.711 133.461 289.479L131.948 289.715C131.948 289.715 208.814 329.574 267.835 380.429L267.351 379.003C286.58 393.16 310.315 401.538 336.013 401.538C380.913 401.538 419.832 375.999 439.147 338.651C475.976 283.189 526.179 244.293 526.179 244.293L526.054 244.048C544.168 229.863 555.828 207.79 555.828 182.976C555.828 140.172 521.174 105.472 478.428 105.472C469.8 105.472 461.513 106.906 453.764 109.515C398.026 117.34 387.843 39.0574 375.487 27.1931C351.869 2.17631 283.354 0.0325517 235.654 0" fill="white"/>
</mask>
<g mask="url(#mask68)">
<path fill-rule="evenodd" clip-rule="evenodd" d="M49.0158 273.402H74.3331C74.957 273.402 75.522 273.038 75.7852 272.466L77.0576 269.705C77.553 268.634 76.7774 267.405 75.6071 267.405H50.587C50.0143 267.405 49.4848 267.715 49.1985 268.215L47.6288 270.979C47.0158 272.056 47.7851 273.402 49.0158 273.402Z" fill="#9DC5F5"/>
</g>
<mask id="mask69" mask-type="alpha" maskUnits="userSpaceOnUse" x="55" y="0" width="501" height="402">
<path d="M233.315 0C224.931 0.00465024 217.244 0.0666535 210.626 0.0666535C125.134 0.0666535 55.8276 69.4654 55.8276 155.075C55.8276 212.546 87.0629 262.711 133.461 289.479L131.948 289.715C131.948 289.715 208.814 329.574 267.835 380.429L267.351 379.003C286.58 393.16 310.315 401.538 336.013 401.538C380.913 401.538 419.832 375.999 439.147 338.651C475.976 283.189 526.179 244.293 526.179 244.293L526.054 244.048C544.168 229.863 555.828 207.79 555.828 182.976C555.828 140.172 521.174 105.472 478.428 105.472C469.8 105.472 461.513 106.906 453.764 109.515C398.026 117.34 387.843 39.0574 375.487 27.1931C351.869 2.17631 283.354 0.0325517 235.654 0" fill="white"/>
</mask>
<g mask="url(#mask69)">
<path fill-rule="evenodd" clip-rule="evenodd" d="M56.9569 52.6514H343.423C352.432 52.6514 359.739 59.8747 359.739 68.7877V252.031C359.739 255.99 356.533 259.198 352.579 259.198H47.8006C43.8454 259.198 40.6411 255.99 40.6411 252.031V68.7877C40.6411 59.8747 47.9461 52.6514 56.9569 52.6514Z" fill="#353C44"/>
</g>
<mask id="mask70" mask-type="alpha" maskUnits="userSpaceOnUse" x="55" y="0" width="501" height="402">
<path d="M233.315 0C224.931 0.00465024 217.244 0.0666535 210.626 0.0666535C125.134 0.0666535 55.8276 69.4654 55.8276 155.075C55.8276 212.546 87.0629 262.711 133.461 289.479L131.948 289.715C131.948 289.715 208.814 329.574 267.835 380.429L267.351 379.003C286.58 393.16 310.315 401.538 336.013 401.538C380.913 401.538 419.832 375.999 439.147 338.651C475.976 283.189 526.179 244.293 526.179 244.293L526.054 244.048C544.168 229.863 555.828 207.79 555.828 182.976C555.828 140.172 521.174 105.472 478.428 105.472C469.8 105.472 461.513 106.906 453.764 109.515C398.026 117.34 387.843 39.0574 375.487 27.1931C351.869 2.17631 283.354 0.0325517 235.654 0H233.315Z" fill="white"/>
</mask>
<g mask="url(#mask70)">
<path fill-rule="evenodd" clip-rule="evenodd" d="M54.1929 251.44H346.185V68.7212H54.1929V251.44Z" fill="#F5FCFF"/>
</g>
<mask id="mask71" mask-type="alpha" maskUnits="userSpaceOnUse" x="55" y="0" width="501" height="402">
<path d="M233.315 0C224.931 0.00465024 217.244 0.0666535 210.626 0.0666535C125.134 0.0666535 55.8276 69.4654 55.8276 155.075C55.8276 212.546 87.0629 262.711 133.461 289.479L131.948 289.715C131.948 289.715 208.814 329.574 267.835 380.429L267.351 379.003C286.58 393.16 310.315 401.538 336.013 401.538C380.913 401.538 419.832 375.999 439.147 338.651C475.976 283.189 526.179 244.293 526.179 244.293L526.054 244.048C544.168 229.863 555.828 207.79 555.828 182.976C555.828 140.172 521.174 105.472 478.428 105.472C469.8 105.472 461.513 106.906 453.764 109.515C398.026 117.34 387.843 39.0574 375.487 27.1931C351.869 2.17631 283.354 0.0325517 235.654 0H233.315Z" fill="white"/>
</mask>
<g mask="url(#mask71)">
<path opacity="0.85119" fill-rule="evenodd" clip-rule="evenodd" d="M281.291 124.848H377.035V38.0437H281.291V124.848Z" fill="#A4D6EF"/>
</g>
<mask id="mask72" mask-type="alpha" maskUnits="userSpaceOnUse" x="55" y="0" width="501" height="402">
<path d="M233.315 0C224.931 0.00465024 217.244 0.0666535 210.626 0.0666535C125.134 0.0666535 55.8276 69.4654 55.8276 155.075C55.8276 212.546 87.0629 262.711 133.461 289.479L131.948 289.715C131.948 289.715 208.814 329.574 267.835 380.429L267.351 379.003C286.58 393.16 310.315 401.538 336.013 401.538C380.913 401.538 419.832 375.999 439.147 338.651C475.976 283.189 526.179 244.293 526.179 244.293L526.054 244.048C544.168 229.863 555.828 207.79 555.828 182.976C555.828 140.172 521.174 105.472 478.428 105.472C469.8 105.472 461.513 106.906 453.764 109.515C398.026 117.34 387.843 39.0574 375.487 27.1931C351.869 2.17631 283.354 0.0325517 235.654 0H233.315Z" fill="white"/>
</mask>
<g mask="url(#mask72)">
<path opacity="0.845122" fill-rule="evenodd" clip-rule="evenodd" d="M334.21 197.84H392.515V141.372H334.21V197.84Z" fill="#D2EDFB"/>
</g>
<mask id="mask73" mask-type="alpha" maskUnits="userSpaceOnUse" x="55" y="0" width="501" height="402">
<path d="M233.315 0C224.931 0.00465024 217.244 0.0666535 210.626 0.0666535C125.134 0.0666535 55.8276 69.4654 55.8276 155.075C55.8276 212.546 87.0629 262.711 133.461 289.479L131.948 289.715C131.948 289.715 208.814 329.574 267.835 380.429L267.351 379.003C286.58 393.16 310.315 401.538 336.013 401.538C380.913 401.538 419.832 375.999 439.147 338.651C475.976 283.189 526.179 244.293 526.179 244.293L526.054 244.048C544.168 229.863 555.828 207.79 555.828 182.976C555.828 140.172 521.174 105.472 478.428 105.472C469.8 105.472 461.513 106.906 453.764 109.515C398.026 117.34 387.843 39.0574 375.487 27.1931C351.869 2.17631 283.354 0.0325517 235.654 0H233.315Z" fill="url(#paint3_linear)"/>
</mask>
<g mask="url(#mask73)">
<path fill-rule="evenodd" clip-rule="evenodd" d="M47.521 202.352H147.933V141.372H47.521V202.352Z" fill="#4285F4"/>
<path fill-rule="evenodd" clip-rule="evenodd" d="M274.868 179.848H324.927V141.372H274.868V179.848Z" fill="#CBDCE4"/>
<path fill-rule="evenodd" clip-rule="evenodd" d="M274.868 239.554H324.927V188.402H274.868V239.554Z" fill="#ECF0F4"/>
<path fill-rule="evenodd" clip-rule="evenodd" d="M188.181 131.049H265.58V81.446H188.181V131.049Z" fill="#ECF0F4"/>
<path fill-rule="evenodd" clip-rule="evenodd" d="M53.5054 131.049H177.923V81.446H53.5054V131.049Z" fill="#D2EDFB"/>
<path d="M159.542 238.779V240.329H161.09" stroke="#A4D6EF"/>
<path d="M164.01 240.329H174.226" stroke="#A4D6EF" stroke-dasharray="1.89 1.89 1.89 1.89"/>
<path d="M175.687 240.329H261.798" stroke="#A4D6EF" stroke-dasharray="1.89 1.89 1.89 1.89 1.89 1.89"/>
<path d="M263.258 240.329H264.806V238.779" stroke="#A4D6EF"/>
<path d="M264.806 235.518V224.105" stroke="#A4D6EF" stroke-dasharray="2.1 2.1 2.1 2.1"/>
<path d="M264.806 222.473V145.839" stroke="#A4D6EF" stroke-dasharray="2.1 2.1 2.1 2.1 2.1 2.1"/>
<path d="M264.806 144.208V142.658H263.258" stroke="#A4D6EF"/>
<path d="M260.339 142.658H250.122" stroke="#A4D6EF" stroke-dasharray="1.89 1.89 1.89 1.89"/>
<path d="M248.662 142.658H162.551" stroke="#A4D6EF" stroke-dasharray="1.89 1.89 1.89 1.89 1.89 1.89"/>
<path d="M161.09 142.658H159.542V144.208" stroke="#A4D6EF"/>
<path d="M159.542 147.47V158.883" stroke="#A4D6EF" stroke-dasharray="2.1 2.1 2.1 2.1"/>
<path d="M159.542 160.514V237.148" stroke="#A4D6EF" stroke-dasharray="2.1 2.1 2.1 2.1 2.1 2.1"/>
</g>
<path opacity="0.898205" fill-rule="evenodd" clip-rule="evenodd" d="M425.022 160.5H497.778V87.6462H425.022V160.5Z" fill="#CFEDF9"/>
<path fill-rule="evenodd" clip-rule="evenodd" d="M417.283 216.303H442.05V191.502H417.283V216.303Z" fill="#4285F4"/>
</g>
<defs>
<linearGradient id="paint0_linear" x1="3.10053" y1="236.451" x2="41.1617" y2="286.451" gradientUnits="userSpaceOnUse">
<stop stop-color="#BFE1F2"/>
<stop offset="1" stop-color="#ECF0F4"/>
</linearGradient>
<linearGradient id="paint1_linear" x1="36.7185" y1="311.307" x2="73.9204" y2="367.093" gradientUnits="userSpaceOnUse">
<stop stop-color="#F5FAFC"/>
<stop offset="1" stop-color="#BFE1F2"/>
</linearGradient>
<linearGradient id="paint2_linear" x1="151.331" y1="274.172" x2="385.078" y2="40.7408" gradientUnits="userSpaceOnUse">
<stop stop-color="#D2EDFB"/>
<stop offset="1" stop-color="#F5FAFC"/>
</linearGradient>
<linearGradient id="paint3_linear" x1="305.828" y1="0" x2="305.828" y2="401.538" gradientUnits="userSpaceOnUse">
<stop stop-color="#CBDCE4"/>
<stop offset="1" stop-color="white" stop-opacity="0"/>
</linearGradient>
<clipPath id="clip0">
<rect x="55.1196" width="505" height="410" fill="white"/>
</clipPath>
</defs>
</svg>
