<svg width="636" height="516" viewBox="0 0 636 516" fill="none" xmlns="http://www.w3.org/2000/svg">
<circle cx="613.3" cy="384.816" r="20" transform="rotate(97.3562 613.3 384.816)" fill="url(#paint0_linear)"/>
<circle cx="28.97" cy="116.896" r="20" transform="rotate(-43.7532 28.97 116.896)" fill="url(#paint1_linear)"/>
<g filter="url(#filter0_d)">
<rect x="218" y="171" width="180" height="180" rx="90" fill="white"/>
</g>
<rect opacity="0.8" x="295.696" y="243.545" width="16" height="16" rx="8" fill="#61DAFB" fill-opacity="0.8"/>
<rect opacity="0.8" x="305.696" y="243.545" width="16" height="16" rx="8" fill="#764ABC" fill-opacity="0.8"/>
<rect opacity="0.8" x="300.696" y="233.545" width="16" height="16" rx="8" fill="#ECF0F4"/>
<path d="M272.4 284.306L271.385 285.322V288.545H268.562V273.545H271.385V281.855L271.932 281.152L274.637 277.978H278.025L274.207 282.383L278.357 288.545H275.115L272.4 284.306ZM286.369 288.545C286.239 288.291 286.145 287.975 286.086 287.597C285.402 288.359 284.514 288.74 283.42 288.74C282.385 288.74 281.525 288.441 280.842 287.842C280.165 287.243 279.826 286.487 279.826 285.576C279.826 284.456 280.24 283.597 281.066 282.998C281.9 282.399 283.101 282.096 284.67 282.09H285.969V281.484C285.969 280.996 285.842 280.605 285.588 280.312C285.34 280.019 284.947 279.873 284.406 279.873C283.931 279.873 283.557 279.987 283.283 280.215C283.016 280.442 282.883 280.755 282.883 281.152H280.061C280.061 280.54 280.249 279.974 280.627 279.453C281.005 278.932 281.538 278.525 282.229 278.232C282.919 277.933 283.693 277.783 284.553 277.783C285.855 277.783 286.887 278.112 287.648 278.769C288.417 279.42 288.801 280.338 288.801 281.523V286.103C288.807 287.106 288.947 287.864 289.221 288.379V288.545H286.369ZM284.035 286.582C284.452 286.582 284.836 286.491 285.188 286.308C285.539 286.12 285.799 285.869 285.969 285.556V283.74H284.914C283.501 283.74 282.749 284.228 282.658 285.205L282.648 285.371C282.648 285.722 282.772 286.012 283.02 286.24C283.267 286.468 283.605 286.582 284.035 286.582ZM297.457 283.594H291.959V281.318H297.457V283.594ZM304.102 275.381V277.978H305.908V280.049H304.102V285.322C304.102 285.713 304.176 285.993 304.326 286.162C304.476 286.331 304.762 286.416 305.186 286.416C305.498 286.416 305.775 286.393 306.016 286.347V288.486C305.462 288.655 304.893 288.74 304.307 288.74C302.327 288.74 301.318 287.741 301.279 285.742V280.049H299.736V277.978H301.279V275.381H304.102ZM314.604 288.545C314.473 288.291 314.379 287.975 314.32 287.597C313.637 288.359 312.748 288.74 311.654 288.74C310.619 288.74 309.76 288.441 309.076 287.842C308.399 287.243 308.061 286.487 308.061 285.576C308.061 284.456 308.474 283.597 309.301 282.998C310.134 282.399 311.335 282.096 312.904 282.09H314.203V281.484C314.203 280.996 314.076 280.605 313.822 280.312C313.575 280.019 313.181 279.873 312.641 279.873C312.165 279.873 311.791 279.987 311.518 280.215C311.251 280.442 311.117 280.755 311.117 281.152H308.295C308.295 280.54 308.484 279.974 308.861 279.453C309.239 278.932 309.773 278.525 310.463 278.232C311.153 277.933 311.928 277.783 312.787 277.783C314.089 277.783 315.121 278.112 315.883 278.769C316.651 279.42 317.035 280.338 317.035 281.523V286.103C317.042 287.106 317.182 287.864 317.455 288.379V288.545H314.604ZM312.27 286.582C312.686 286.582 313.07 286.491 313.422 286.308C313.773 286.12 314.034 285.869 314.203 285.556V283.74H313.148C311.736 283.74 310.984 284.228 310.893 285.205L310.883 285.371C310.883 285.722 311.007 286.012 311.254 286.24C311.501 286.468 311.84 286.582 312.27 286.582ZM329.725 283.359C329.725 285.052 329.363 286.373 328.641 287.324C327.918 288.268 326.909 288.74 325.613 288.74C324.467 288.74 323.553 288.301 322.869 287.422L322.742 288.545H320.203V273.545H323.025V278.926C323.676 278.164 324.533 277.783 325.594 277.783C326.883 277.783 327.892 278.258 328.621 279.209C329.357 280.153 329.725 281.484 329.725 283.203V283.359ZM326.902 283.154C326.902 282.086 326.733 281.308 326.395 280.82C326.056 280.325 325.551 280.078 324.881 280.078C323.982 280.078 323.364 280.446 323.025 281.181V285.351C323.37 286.094 323.995 286.465 324.9 286.465C325.812 286.465 326.411 286.015 326.697 285.117C326.834 284.687 326.902 284.033 326.902 283.154ZM335.451 288.545H332.619V273.545H335.451V288.545ZM343.648 288.74C342.099 288.74 340.836 288.265 339.859 287.314C338.889 286.364 338.404 285.097 338.404 283.515V283.242C338.404 282.181 338.609 281.233 339.02 280.4C339.43 279.56 340.009 278.916 340.758 278.467C341.513 278.011 342.372 277.783 343.336 277.783C344.781 277.783 345.917 278.239 346.744 279.15C347.577 280.062 347.994 281.354 347.994 283.027V284.179H341.266C341.357 284.87 341.63 285.423 342.086 285.84C342.548 286.256 343.131 286.465 343.834 286.465C344.921 286.465 345.771 286.071 346.383 285.283L347.77 286.836C347.346 287.435 346.773 287.903 346.051 288.242C345.328 288.574 344.527 288.74 343.648 288.74ZM343.326 280.068C342.766 280.068 342.311 280.257 341.959 280.635C341.614 281.012 341.393 281.552 341.295 282.256H345.221V282.031C345.208 281.406 345.038 280.924 344.713 280.586C344.387 280.241 343.925 280.068 343.326 280.068Z" fill="#353C44"/>
<rect x="108.86" y="62.0447" width="399" height="399" rx="199.5" stroke="#CBDCE4"/>
<rect x="453.5" y="193" width="89" height="124" fill="url(#paint2_linear)"/>
<rect x="68" y="200" width="89" height="125" fill="url(#paint3_linear)"/>
<path d="M502.167 211C492.874 211 485.025 213.157 482.346 216.396C476.891 217.731 473.737 219.979 473.122 222.258C473.052 222.381 473 222.515 473 222.667V223.083V232.667V233.083V233.5V242.667V243.083V243.5V253.5C473 253.635 473.036 253.762 473.097 253.876C474.082 257.955 482.887 261 493.833 261C503.2 261 510.982 258.767 513.655 255.568C518.954 254.28 522.293 252.172 522.897 249.735C522.962 249.617 523 249.479 523 249.333V239.333V238.917V229.333V228.917V218.917C523 215.079 515.698 211 502.167 211ZM512.837 243.79C512.804 243.872 512.763 243.955 512.718 244.037C512.662 244.14 512.6 244.242 512.526 244.345C512.471 244.422 512.408 244.499 512.343 244.576C512.251 244.685 512.152 244.794 512.041 244.902C511.973 244.968 511.899 245.033 511.824 245.099C511.687 245.218 511.545 245.337 511.386 245.454C511.317 245.505 511.244 245.554 511.172 245.604C510.983 245.734 510.787 245.863 510.571 245.99C510.514 246.024 510.453 246.057 510.394 246.09C510.146 246.23 509.887 246.369 509.607 246.504C509.571 246.522 509.533 246.538 509.497 246.555C509.184 246.702 508.857 246.848 508.508 246.988C508.498 246.992 508.488 246.995 508.478 246.999C506.586 247.755 504.165 248.391 501.344 248.807C501.33 248.809 501.316 248.811 501.302 248.813C500.753 248.894 500.191 248.966 499.613 249.029C499.519 249.039 499.42 249.046 499.325 249.056C498.821 249.108 498.311 249.157 497.786 249.195C497.546 249.212 497.294 249.221 497.05 249.236C496.655 249.259 496.264 249.285 495.859 249.299C495.197 249.32 494.522 249.333 493.833 249.333C493.144 249.333 492.469 249.32 491.807 249.297C491.402 249.283 491.011 249.256 490.616 249.233C490.372 249.219 490.12 249.21 489.88 249.193C489.355 249.154 488.845 249.106 488.341 249.053C488.246 249.043 488.147 249.037 488.052 249.027C487.475 248.963 486.913 248.891 486.364 248.811C486.35 248.809 486.336 248.808 486.322 248.805C483.501 248.388 481.08 247.752 479.188 246.997C479.178 246.993 479.167 246.989 479.157 246.985C478.808 246.845 478.481 246.7 478.169 246.552C478.133 246.535 478.095 246.518 478.059 246.502C477.779 246.367 477.52 246.228 477.272 246.087C477.213 246.054 477.152 246.022 477.095 245.987C476.879 245.861 476.682 245.732 476.494 245.602C476.422 245.552 476.348 245.502 476.28 245.452C476.121 245.334 475.978 245.216 475.842 245.097C475.768 245.032 475.693 244.967 475.625 244.9C475.513 244.792 475.415 244.683 475.322 244.573C475.257 244.497 475.195 244.42 475.14 244.343C475.067 244.24 475.004 244.137 474.947 244.035C474.902 243.952 474.862 243.87 474.828 243.788C474.787 243.687 474.755 243.586 474.732 243.485C474.701 243.352 474.667 243.217 474.667 243.083C474.667 242.989 474.677 242.895 474.692 242.802C474.713 242.676 474.702 242.55 474.667 242.431V236.244C474.69 236.266 474.719 236.287 474.743 236.308C474.925 236.468 475.11 236.627 475.318 236.781C478.457 239.155 484.735 241 493.833 241C502.893 241 509.155 239.17 512.307 236.81C512.559 236.627 512.786 236.437 512.999 236.245L513 236.244V242.431C512.965 242.55 512.953 242.676 512.974 242.802C512.989 242.895 513 242.989 513 243.083C513 243.217 512.966 243.352 512.934 243.487C512.91 243.588 512.878 243.689 512.837 243.79ZM475.168 226.664C475.418 226.861 475.687 227.055 475.98 227.244C476.041 227.283 476.109 227.322 476.172 227.361C476.417 227.513 476.677 227.662 476.949 227.809C477.05 227.863 477.151 227.917 477.255 227.97C477.559 228.125 477.878 228.276 478.214 228.422C478.269 228.446 478.319 228.471 478.375 228.494C478.766 228.66 479.181 228.818 479.612 228.972C479.732 229.014 479.857 229.054 479.979 229.096C480.322 229.212 480.678 229.322 481.045 229.43C481.178 229.468 481.307 229.508 481.443 229.545C481.931 229.68 482.434 229.808 482.962 229.927C483.035 229.943 483.113 229.957 483.187 229.972C483.652 230.074 484.136 230.168 484.632 230.257C484.801 230.287 484.972 230.315 485.143 230.343C485.616 230.421 486.103 230.492 486.602 230.557C486.73 230.573 486.852 230.593 486.982 230.608C487.602 230.683 488.244 230.747 488.903 230.802C489.066 230.816 489.235 230.826 489.4 230.837C489.927 230.876 490.467 230.908 491.018 230.933C491.219 230.942 491.419 230.951 491.624 230.958C492.343 230.983 493.075 231 493.833 231C494.592 231 495.323 230.983 496.042 230.958C496.246 230.951 496.446 230.942 496.648 230.933C497.199 230.908 497.738 230.876 498.266 230.837C498.431 230.825 498.599 230.816 498.763 230.802C499.422 230.748 500.063 230.683 500.683 230.608C500.813 230.593 500.936 230.573 501.064 230.557C501.563 230.492 502.049 230.421 502.522 230.343C502.694 230.315 502.865 230.287 503.033 230.257C503.53 230.168 504.013 230.074 504.479 229.972C504.553 229.957 504.631 229.942 504.703 229.927C505.232 229.808 505.735 229.679 506.222 229.545C506.358 229.507 506.488 229.468 506.621 229.43C506.988 229.322 507.343 229.212 507.687 229.096C507.809 229.054 507.934 229.014 508.053 228.972C508.485 228.818 508.901 228.66 509.291 228.494C509.347 228.471 509.397 228.446 509.452 228.422C509.787 228.275 510.107 228.125 510.411 227.97C510.515 227.917 510.617 227.863 510.717 227.809C510.989 227.663 511.248 227.514 511.493 227.361C511.557 227.322 511.625 227.283 511.686 227.244C511.978 227.055 512.248 226.862 512.498 226.664C512.561 226.614 512.617 226.564 512.677 226.514C512.786 226.424 512.9 226.335 513 226.244V232.431C512.965 232.55 512.953 232.676 512.974 232.802C512.989 232.895 513 232.989 513 233.083C513 233.217 512.966 233.352 512.934 233.487C512.911 233.588 512.878 233.688 512.837 233.79C512.804 233.872 512.763 233.955 512.718 234.037C512.662 234.14 512.6 234.242 512.526 234.345C512.471 234.422 512.408 234.499 512.343 234.576C512.251 234.685 512.152 234.794 512.041 234.902C511.973 234.968 511.899 235.033 511.824 235.099C511.687 235.218 511.545 235.337 511.386 235.454C511.317 235.505 511.244 235.554 511.172 235.604C510.983 235.734 510.787 235.863 510.571 235.99C510.514 236.024 510.453 236.057 510.394 236.09C510.146 236.23 509.887 236.369 509.607 236.504C509.571 236.522 509.533 236.538 509.497 236.555C509.184 236.702 508.857 236.847 508.508 236.987C508.498 236.992 508.488 236.995 508.478 236.999C506.586 237.755 504.165 238.391 501.344 238.807C501.33 238.809 501.316 238.811 501.302 238.813C500.753 238.894 500.191 238.966 499.613 239.029C499.519 239.039 499.42 239.046 499.325 239.056C498.821 239.108 498.311 239.157 497.786 239.195C497.546 239.212 497.294 239.221 497.05 239.236C496.655 239.259 496.264 239.285 495.859 239.299C495.197 239.32 494.522 239.333 493.833 239.333C493.144 239.333 492.469 239.32 491.807 239.297C491.402 239.283 491.011 239.256 490.616 239.233C490.372 239.219 490.12 239.21 489.88 239.193C489.355 239.154 488.845 239.106 488.341 239.053C488.246 239.043 488.147 239.037 488.052 239.027C487.475 238.963 486.913 238.891 486.364 238.811C486.35 238.809 486.336 238.808 486.322 238.805C483.501 238.388 481.08 237.752 479.188 236.997C479.178 236.993 479.167 236.989 479.157 236.985C478.808 236.845 478.481 236.7 478.169 236.552C478.133 236.535 478.095 236.518 478.059 236.502C477.779 236.367 477.52 236.228 477.272 236.087C477.213 236.054 477.152 236.022 477.095 235.987C476.879 235.861 476.682 235.732 476.494 235.602C476.422 235.552 476.348 235.502 476.28 235.452C476.121 235.334 475.978 235.216 475.842 235.097C475.768 235.032 475.693 234.967 475.625 234.9C475.513 234.792 475.415 234.683 475.322 234.573C475.257 234.497 475.195 234.42 475.14 234.342C475.067 234.24 475.004 234.137 474.947 234.035C474.902 233.952 474.862 233.87 474.828 233.787C474.787 233.687 474.755 233.586 474.732 233.485C474.701 233.352 474.667 233.217 474.667 233.083C474.667 232.989 474.677 232.895 474.692 232.802C474.713 232.676 474.702 232.55 474.667 232.431V226.244C474.767 226.335 474.881 226.424 474.989 226.514C475.049 226.564 475.105 226.614 475.168 226.664ZM514.667 243.575V243.5V243.083V242.667V235.31C514.702 235.3 514.736 235.289 514.772 235.279C515.105 235.186 515.43 235.09 515.745 234.991C515.748 234.99 515.752 234.988 515.756 234.987C518.223 234.207 520.106 233.238 521.333 232.132V238.917C521.333 239.013 521.321 239.11 521.304 239.207C521.291 239.287 521.268 239.368 521.244 239.448C521.237 239.471 521.232 239.494 521.223 239.518C521.193 239.606 521.156 239.693 521.112 239.781C521.107 239.792 521.102 239.802 521.097 239.813C520.407 241.159 518.209 242.482 515.038 243.463C514.916 243.5 514.792 243.538 514.667 243.575ZM521.333 222.122V228.917C521.333 229.013 521.321 229.11 521.304 229.208C521.291 229.288 521.268 229.367 521.244 229.447C521.237 229.471 521.232 229.494 521.223 229.518C521.193 229.606 521.156 229.693 521.112 229.781C521.107 229.792 521.102 229.802 521.097 229.813C520.407 231.159 518.209 232.482 515.038 233.462C514.916 233.5 514.792 233.538 514.667 233.575V233.5V233.083V232.667V225.31C514.737 225.291 514.801 225.269 514.87 225.25C515.062 225.196 515.248 225.139 515.434 225.083C515.592 225.036 515.749 224.987 515.902 224.938C516.092 224.877 516.275 224.813 516.457 224.749C516.596 224.701 516.736 224.653 516.87 224.604C517.062 224.533 517.247 224.459 517.431 224.386C517.545 224.34 517.663 224.296 517.774 224.249C517.987 224.159 518.191 224.067 518.392 223.973C518.465 223.939 518.542 223.907 518.612 223.873C518.882 223.743 519.141 223.61 519.387 223.474C519.413 223.46 519.435 223.445 519.461 223.431C519.678 223.309 519.888 223.185 520.087 223.058C520.157 223.013 520.219 222.967 520.287 222.922C520.433 222.825 520.578 222.727 520.713 222.626C520.787 222.571 520.854 222.514 520.924 222.458C521.042 222.365 521.159 222.272 521.267 222.177C521.288 222.157 521.313 222.141 521.333 222.122ZM502.167 212.667C513.462 212.667 521.333 215.96 521.333 218.917C521.333 219.027 521.322 219.138 521.3 219.249C521.293 219.286 521.279 219.322 521.27 219.358C521.251 219.433 521.232 219.507 521.204 219.582C521.187 219.626 521.165 219.669 521.146 219.712C521.115 219.78 521.085 219.847 521.047 219.915C521.021 219.961 520.99 220.007 520.961 220.052C520.919 220.117 520.877 220.182 520.83 220.247C520.795 220.293 520.756 220.34 520.718 220.386C520.665 220.449 520.612 220.512 520.553 220.575C520.51 220.622 520.463 220.668 520.417 220.715C520.354 220.777 520.289 220.839 520.22 220.901C520.168 220.947 520.115 220.993 520.06 221.039C519.987 221.1 519.91 221.161 519.831 221.222C519.772 221.267 519.712 221.312 519.649 221.357C519.565 221.418 519.476 221.478 519.386 221.538C519.32 221.582 519.254 221.626 519.185 221.67C519.088 221.731 518.987 221.791 518.885 221.85C518.814 221.892 518.744 221.933 518.67 221.974C518.56 222.035 518.443 222.096 518.327 222.157C518.252 222.195 518.181 222.234 518.104 222.272C517.977 222.335 517.842 222.397 517.707 222.459C517.634 222.493 517.565 222.527 517.49 222.56C517.312 222.638 517.128 222.716 516.941 222.792C516.903 222.807 516.869 222.822 516.832 222.837C516.603 222.928 516.367 223.017 516.123 223.105C516.056 223.129 515.983 223.152 515.915 223.176C515.737 223.237 515.558 223.299 515.372 223.359C515.276 223.391 515.174 223.42 515.075 223.451C514.941 223.492 514.807 223.533 514.669 223.573V223.083V222.667C514.669 222.572 514.647 222.483 514.615 222.398C514.603 222.365 514.592 222.333 514.577 222.302C514.575 222.299 514.574 222.294 514.572 222.291C514.335 221.31 513.637 220.392 512.575 219.558C512.569 219.553 512.564 219.548 512.558 219.544C512.406 219.425 512.237 219.311 512.07 219.196C509.114 217.103 503.674 215.463 495.957 215.207C495.258 215.182 494.551 215.167 493.833 215.167C493.122 215.167 492.414 215.181 491.712 215.207C489.631 215.276 487.723 215.449 485.976 215.702C489.204 214.01 494.894 212.667 502.167 212.667ZM484.244 217.717C484.454 217.676 484.671 217.639 484.885 217.6C485.162 217.549 485.44 217.5 485.726 217.454C485.975 217.414 486.227 217.377 486.48 217.34C486.761 217.3 487.048 217.262 487.337 217.227C487.582 217.196 487.826 217.164 488.074 217.137C488.573 217.083 489.082 217.036 489.602 216.996C489.799 216.98 490 216.97 490.199 216.957C490.602 216.93 491.009 216.907 491.424 216.889C491.62 216.881 491.816 216.872 492.013 216.866C492.612 216.847 493.215 216.833 493.833 216.833C494.522 216.833 495.197 216.847 495.861 216.87C496.261 216.884 496.647 216.91 497.037 216.932C497.287 216.947 497.542 216.957 497.788 216.974C498.306 217.012 498.808 217.06 499.306 217.111C499.408 217.121 499.516 217.128 499.617 217.14C500.182 217.202 500.731 217.272 501.268 217.351C501.295 217.355 501.324 217.358 501.351 217.362C504.158 217.777 506.568 218.408 508.456 219.159C508.477 219.168 508.499 219.176 508.52 219.184C508.858 219.32 509.175 219.461 509.477 219.603C509.524 219.625 509.573 219.647 509.618 219.668C509.889 219.799 510.139 219.933 510.38 220.068C510.447 220.106 510.517 220.143 510.581 220.182C510.788 220.304 510.978 220.428 511.161 220.554C511.24 220.608 511.32 220.663 511.394 220.718C511.548 220.832 511.685 220.946 511.817 221.061C511.896 221.13 511.975 221.199 512.047 221.269C512.154 221.374 512.25 221.479 512.339 221.585C512.407 221.665 512.473 221.745 512.529 221.826C512.601 221.925 512.662 222.025 512.717 222.125C512.763 222.21 512.804 222.294 512.838 222.378C512.878 222.477 512.91 222.577 512.933 222.677C512.966 222.813 513 222.948 513 223.083C513 226.04 505.129 229.333 493.833 229.333C482.537 229.333 474.667 226.04 474.667 223.083C474.667 221.067 478.333 218.896 484.244 217.717ZM493.833 259.333C482.97 259.333 475.166 256.248 474.693 253.365C474.687 253.328 474.678 253.291 474.667 253.256V246.244C474.69 246.266 474.719 246.287 474.743 246.308C474.925 246.468 475.11 246.627 475.318 246.781C478.457 249.155 484.735 251 493.833 251C502.893 251 509.155 249.17 512.307 246.81C512.559 246.627 512.786 246.437 512.999 246.245L513 246.244V253.252C512.988 253.289 512.98 253.327 512.973 253.365C512.946 253.535 512.887 253.706 512.81 253.876C512.78 253.942 512.733 254.007 512.696 254.073C511.188 256.731 503.809 259.333 493.833 259.333ZM521.307 249.198C521.042 250.816 518.545 252.441 514.663 253.577C514.666 253.552 514.667 253.526 514.667 253.5V245.31C514.702 245.3 514.736 245.289 514.772 245.279C515.105 245.186 515.43 245.09 515.745 244.991C515.748 244.99 515.752 244.988 515.756 244.987C518.223 244.207 520.106 243.238 521.333 242.132V249.087C521.322 249.122 521.313 249.16 521.307 249.198Z" fill="#353C44"/>
<rect x="263.5" y="394" width="89" height="122" fill="#F6FAFC"/>
<rect x="259" width="100" height="122" fill="url(#paint4_linear)"/>
<path d="M89.8613 298.689H84.3535L83.2012 302H80.6328L86.0039 287.781H88.2207L93.6016 302H91.0234L89.8613 298.689ZM85.0469 296.697H89.168L87.1074 290.799L85.0469 296.697ZM100.334 300.301C100.926 300.301 101.418 300.128 101.809 299.783C102.199 299.438 102.408 299.012 102.434 298.504H104.67C104.644 299.161 104.439 299.777 104.055 300.35C103.671 300.916 103.15 301.365 102.492 301.697C101.835 302.029 101.125 302.195 100.363 302.195C98.8854 302.195 97.7135 301.717 96.8477 300.76C95.9818 299.803 95.5488 298.481 95.5488 296.795V296.551C95.5488 294.943 95.9785 293.657 96.8379 292.693C97.6973 291.723 98.8691 291.238 100.354 291.238C101.61 291.238 102.632 291.606 103.42 292.342C104.214 293.071 104.631 294.031 104.67 295.223H102.434C102.408 294.617 102.199 294.119 101.809 293.729C101.424 293.338 100.933 293.143 100.334 293.143C99.5658 293.143 98.9733 293.423 98.5566 293.982C98.14 294.536 97.9284 295.379 97.9219 296.512V296.893C97.9219 298.038 98.127 298.895 98.5371 299.461C98.9538 300.021 99.5527 300.301 100.334 300.301ZM110.436 288.865V291.434H112.301V293.191H110.436V299.09C110.436 299.493 110.514 299.786 110.67 299.969C110.833 300.145 111.119 300.232 111.529 300.232C111.803 300.232 112.079 300.2 112.359 300.135V301.971C111.819 302.12 111.298 302.195 110.797 302.195C108.974 302.195 108.062 301.189 108.062 299.178V293.191H106.324V291.434H108.062V288.865H110.436ZM117.646 302H115.273V291.434H117.646V302ZM115.127 288.689C115.127 288.325 115.241 288.022 115.469 287.781C115.703 287.54 116.035 287.42 116.465 287.42C116.895 287.42 117.227 287.54 117.461 287.781C117.695 288.022 117.812 288.325 117.812 288.689C117.812 289.048 117.695 289.347 117.461 289.588C117.227 289.822 116.895 289.939 116.465 289.939C116.035 289.939 115.703 289.822 115.469 289.588C115.241 289.347 115.127 289.048 115.127 288.689ZM120.795 296.619C120.795 295.584 121 294.653 121.41 293.826C121.82 292.993 122.396 292.355 123.139 291.912C123.881 291.463 124.734 291.238 125.697 291.238C127.123 291.238 128.279 291.697 129.164 292.615C130.056 293.533 130.538 294.751 130.609 296.268L130.619 296.824C130.619 297.866 130.417 298.797 130.014 299.617C129.617 300.438 129.044 301.072 128.295 301.521C127.553 301.971 126.693 302.195 125.717 302.195C124.226 302.195 123.031 301.701 122.133 300.711C121.241 299.715 120.795 298.39 120.795 296.736V296.619ZM123.168 296.824C123.168 297.911 123.393 298.764 123.842 299.383C124.291 299.995 124.916 300.301 125.717 300.301C126.518 300.301 127.139 299.988 127.582 299.363C128.031 298.738 128.256 297.824 128.256 296.619C128.256 295.551 128.025 294.705 127.562 294.08C127.107 293.455 126.485 293.143 125.697 293.143C124.923 293.143 124.307 293.452 123.852 294.07C123.396 294.682 123.168 295.6 123.168 296.824ZM135.828 291.434L135.896 292.654C136.678 291.71 137.703 291.238 138.973 291.238C141.173 291.238 142.293 292.498 142.332 295.018V302H139.959V295.154C139.959 294.484 139.812 293.989 139.52 293.67C139.233 293.344 138.761 293.182 138.104 293.182C137.146 293.182 136.434 293.615 135.965 294.48V302H133.592V291.434H135.828Z" fill="#868A8F"/>
<path d="M136.726 219.885C136.44 219.59 136 219.507 135.627 219.679L87.5645 241.737C87.1782 241.915 86.9526 242.323 87.0087 242.745C87.0649 243.167 87.3893 243.502 87.8085 243.572L109.366 247.185L111.831 267.556C111.883 267.98 112.207 268.322 112.628 268.394C112.684 268.404 112.738 268.408 112.792 268.408C113.155 268.408 113.495 268.204 113.66 267.87L136.899 220.989C137.081 220.622 137.012 220.179 136.726 219.885ZM113.363 264.106L111.202 246.234C111.15 245.808 110.823 245.466 110.4 245.395L91.2354 242.182L133.949 222.58L113.363 264.106Z" fill="#353C44"/>
<path d="M275.736 95.5215H272.982V101H270.512V86.7812H275.512C277.152 86.7812 278.419 87.1491 279.311 87.8848C280.202 88.6204 280.648 89.6849 280.648 91.0781C280.648 92.0286 280.417 92.8262 279.955 93.4707C279.499 94.1087 278.861 94.6003 278.041 94.9453L281.234 100.873V101H278.588L275.736 95.5215ZM272.982 93.5391H275.521C276.355 93.5391 277.006 93.3307 277.475 92.9141C277.943 92.4909 278.178 91.9147 278.178 91.1855C278.178 90.4238 277.96 89.8346 277.523 89.418C277.094 89.0013 276.449 88.7865 275.59 88.7734H272.982V93.5391ZM288.416 101.195C286.912 101.195 285.691 100.723 284.754 99.7793C283.823 98.8288 283.357 97.5658 283.357 95.9902V95.6973C283.357 94.6426 283.559 93.7018 283.963 92.875C284.373 92.0417 284.946 91.3939 285.682 90.9316C286.417 90.4694 287.238 90.2383 288.143 90.2383C289.581 90.2383 290.691 90.6973 291.473 91.6152C292.26 92.5332 292.654 93.832 292.654 95.5117V96.4688H285.75C285.822 97.3411 286.111 98.0312 286.619 98.5391C287.133 99.0469 287.778 99.3008 288.553 99.3008C289.64 99.3008 290.525 98.8613 291.209 97.9824L292.488 99.2031C292.065 99.8346 291.499 100.326 290.789 100.678C290.086 101.023 289.295 101.195 288.416 101.195ZM288.133 92.1426C287.482 92.1426 286.954 92.3704 286.551 92.8262C286.154 93.2819 285.9 93.9167 285.789 94.7305H290.311V94.5547C290.258 93.7604 290.047 93.1615 289.676 92.7578C289.305 92.3477 288.79 92.1426 288.133 92.1426ZM295.061 95.6387C295.061 94.0111 295.438 92.7057 296.193 91.7227C296.949 90.7331 297.961 90.2383 299.23 90.2383C300.35 90.2383 301.255 90.6289 301.945 91.4102V86H304.318V101H302.17L302.053 99.9062C301.343 100.766 300.396 101.195 299.211 101.195C297.974 101.195 296.971 100.697 296.203 99.7012C295.441 98.7051 295.061 97.3509 295.061 95.6387ZM297.434 95.8438C297.434 96.918 297.639 97.7578 298.049 98.3633C298.465 98.9622 299.055 99.2617 299.816 99.2617C300.786 99.2617 301.496 98.8288 301.945 97.9629V93.4512C301.509 92.6048 300.806 92.1816 299.836 92.1816C299.068 92.1816 298.475 92.4876 298.059 93.0996C297.642 93.7051 297.434 94.6198 297.434 95.8438ZM314.195 99.9648C313.499 100.785 312.509 101.195 311.227 101.195C310.081 101.195 309.212 100.86 308.619 100.189C308.033 99.5189 307.74 98.5488 307.74 97.2793V90.4336H310.113V97.25C310.113 98.5911 310.67 99.2617 311.783 99.2617C312.936 99.2617 313.714 98.8483 314.117 98.0215V90.4336H316.49V101H314.254L314.195 99.9648ZM324.248 99.3008C324.84 99.3008 325.332 99.1283 325.723 98.7832C326.113 98.4382 326.322 98.0117 326.348 97.5039H328.584C328.558 98.1615 328.353 98.7767 327.969 99.3496C327.585 99.916 327.064 100.365 326.406 100.697C325.749 101.029 325.039 101.195 324.277 101.195C322.799 101.195 321.628 100.717 320.762 99.7598C319.896 98.8027 319.463 97.4811 319.463 95.7949V95.5508C319.463 93.9427 319.893 92.6569 320.752 91.6934C321.611 90.7233 322.783 90.2383 324.268 90.2383C325.524 90.2383 326.546 90.6061 327.334 91.3418C328.128 92.071 328.545 93.0312 328.584 94.2227H326.348C326.322 93.6172 326.113 93.1191 325.723 92.7285C325.339 92.3379 324.847 92.1426 324.248 92.1426C323.48 92.1426 322.887 92.4225 322.471 92.9824C322.054 93.5358 321.842 94.3789 321.836 95.5117V95.8926C321.836 97.0384 322.041 97.8945 322.451 98.4609C322.868 99.0208 323.467 99.3008 324.248 99.3008ZM336.029 101.195C334.525 101.195 333.305 100.723 332.367 99.7793C331.436 98.8288 330.971 97.5658 330.971 95.9902V95.6973C330.971 94.6426 331.173 93.7018 331.576 92.875C331.986 92.0417 332.559 91.3939 333.295 90.9316C334.031 90.4694 334.851 90.2383 335.756 90.2383C337.195 90.2383 338.305 90.6973 339.086 91.6152C339.874 92.5332 340.268 93.832 340.268 95.5117V96.4688H333.363C333.435 97.3411 333.725 98.0312 334.232 98.5391C334.747 99.0469 335.391 99.3008 336.166 99.3008C337.253 99.3008 338.139 98.8613 338.822 97.9824L340.102 99.2031C339.678 99.8346 339.112 100.326 338.402 100.678C337.699 101.023 336.908 101.195 336.029 101.195ZM335.746 92.1426C335.095 92.1426 334.568 92.3704 334.164 92.8262C333.767 93.2819 333.513 93.9167 333.402 94.7305H337.924V94.5547C337.872 93.7604 337.66 93.1615 337.289 92.7578C336.918 92.3477 336.404 92.1426 335.746 92.1426ZM348.65 92.6016C348.338 92.5495 348.016 92.5234 347.684 92.5234C346.596 92.5234 345.864 92.9401 345.486 93.7734V101H343.113V90.4336H345.379L345.438 91.6152C346.01 90.6973 346.805 90.2383 347.82 90.2383C348.159 90.2383 348.439 90.2839 348.66 90.375L348.65 92.6016Z" fill="#868A8F"/>
<g clip-path="url(#clip0)">
<path d="M333.004 24.7208C333.004 20.3081 320.928 18 309.001 18C297.073 18 284.998 20.3081 284.998 24.7208C284.998 25.7213 285.623 26.6113 286.722 27.3928L303.24 49.994V66.8229C303.24 67.2357 303.486 67.6035 303.866 67.7629L304.525 67.999L314.762 57.7613V49.9969L331.261 27.4178L331.26 27.4063C332.37 26.6218 333.004 25.7261 333.004 24.7208ZM309.001 19.9202C322.481 19.9202 331.084 22.7631 331.084 24.7208C331.084 25.126 330.696 25.5686 329.994 26.016L329.945 26.0103L329.961 26.0362C327.237 27.7461 319.653 29.5214 309.001 29.5214C298.339 29.5214 290.749 27.7433 288.033 26.0314L288.049 26.0055L287.654 25.7702C287.182 25.4073 286.918 25.0511 286.918 24.7208C286.918 22.7631 295.521 19.9202 309.001 19.9202ZM312.841 56.9673L305.16 64.6482V50.644H312.841V56.9673ZM313.316 48.7237H304.687L290.352 29.1057C294.982 30.6486 302.015 31.4416 309.001 31.4416C315.987 31.4416 323.019 30.6486 327.65 29.1066L313.316 48.7237Z" fill="#353C44"/>
</g>
<path d="M310 479.781V489.283C310 490.794 309.515 491.992 308.545 492.877C307.581 493.756 306.296 494.195 304.688 494.195C303.06 494.195 301.768 493.762 300.811 492.896C299.854 492.024 299.375 490.816 299.375 489.273V479.781H301.836V489.293C301.836 490.243 302.077 490.969 302.559 491.471C303.04 491.972 303.75 492.223 304.688 492.223C306.589 492.223 307.539 491.22 307.539 489.215V479.781H310ZM316.254 494H313.793V479.781H316.254V494Z" fill="#868A8F"/>
<path d="M298.163 457.25H317.837L308 441.511L298.163 457.25ZM301.171 455.583L308 444.656L314.829 455.583H301.171Z" fill="#353C44"/>
<path d="M283 414.75V448.083H301.333C301.794 448.083 302.167 447.711 302.167 447.25C302.167 446.789 301.794 446.417 301.333 446.417H284.667V416.417H331.333V446.417H314.667C314.206 446.417 313.833 446.789 313.833 447.25C313.833 447.711 314.206 448.083 314.667 448.083H333V414.75H283Z" fill="#353C44"/>
<defs>
<filter id="filter0_d" x="201" y="161" width="220" height="220" filterUnits="userSpaceOnUse" color-interpolation-filters="sRGB">
<feFlood flood-opacity="0" result="BackgroundImageFix"/>
<feColorMatrix in="SourceAlpha" type="matrix" values="0 0 0 0 0 0 0 0 0 0 0 0 0 0 0 0 0 0 127 0"/>
<feOffset dx="3" dy="10"/>
<feGaussianBlur stdDeviation="10"/>
<feColorMatrix type="matrix" values="0 0 0 0 0 0 0 0 0 0 0 0 0 0 0 0 0 0 0.06 0"/>
<feBlend mode="normal" in2="BackgroundImageFix" result="effect1_dropShadow"/>
<feBlend mode="normal" in="SourceGraphic" in2="effect1_dropShadow" result="shape"/>
</filter>
<linearGradient id="paint0_linear" x1="593.3" y1="364.816" x2="623.749" y2="404.816" gradientUnits="userSpaceOnUse">
<stop stop-color="#BFE1F2"/>
<stop offset="1" stop-color="#ECF0F4"/>
</linearGradient>
<linearGradient id="paint1_linear" x1="-22.4431" y1="41.6752" x2="39.4189" y2="136.896" gradientUnits="userSpaceOnUse">
<stop stop-color="#BFE1F2"/>
<stop offset="1" stop-color="#F9FBFC"/>
</linearGradient>
<linearGradient id="paint2_linear" x1="498" y1="193" x2="498" y2="317" gradientUnits="userSpaceOnUse">
<stop stop-color="#F7FBFC"/>
<stop offset="1" stop-color="#F5FAFC"/>
</linearGradient>
<linearGradient id="paint3_linear" x1="68" y1="192.114" x2="114.652" y2="463.117" gradientUnits="userSpaceOnUse">
<stop stop-color="#FBFDFE"/>
<stop offset="1" stop-color="#F5FAFC"/>
<stop offset="1" stop-color="#FAFCFD"/>
</linearGradient>
<linearGradient id="paint4_linear" x1="309" y1="0" x2="309" y2="122" gradientUnits="userSpaceOnUse">
<stop stop-color="#FAFCFE"/>
<stop offset="1" stop-color="#F9FCFD"/>
</linearGradient>
<clipPath id="clip0">
<rect x="284" y="18" width="50" height="50" fill="white"/>
</clipPath>
</defs>
</svg>
