<svg width="636" height="517" viewBox="0 0 636 517" fill="none" xmlns="http://www.w3.org/2000/svg">
<circle cx="613.597" cy="385.474" r="20" transform="rotate(97.3562 613.597 385.474)" fill="url(#paint0_linear)"/>
<circle cx="29.2668" cy="117.555" r="20" transform="rotate(-43.7532 29.2668 117.555)" fill="url(#paint1_linear)"/>
<g filter="url(#filter0_d)">
<rect x="218.297" y="171.659" width="180" height="180" rx="90" fill="white"/>
</g>
<rect opacity="0.8" x="295.993" y="244.203" width="16" height="16" rx="8" fill="#61DAFB" fill-opacity="0.8"/>
<rect opacity="0.8" x="305.993" y="244.203" width="16" height="16" rx="8" fill="#764ABC" fill-opacity="0.8"/>
<rect opacity="0.8" x="300.993" y="234.203" width="16" height="16" rx="8" fill="#ECF0F4"/>
<path d="M272.697 284.965L271.682 285.981V289.203H268.859V274.203H271.682V282.514L272.229 281.811L274.934 278.637H278.322L274.504 283.041L278.654 289.203H275.412L272.697 284.965ZM286.666 289.203C286.536 288.949 286.441 288.634 286.383 288.256C285.699 289.018 284.811 289.398 283.717 289.398C282.682 289.398 281.822 289.099 281.139 288.5C280.462 287.901 280.123 287.146 280.123 286.234C280.123 285.115 280.536 284.255 281.363 283.656C282.197 283.057 283.398 282.755 284.967 282.748H286.266V282.143C286.266 281.654 286.139 281.264 285.885 280.971C285.637 280.678 285.243 280.531 284.703 280.531C284.228 280.531 283.854 280.645 283.58 280.873C283.313 281.101 283.18 281.413 283.18 281.811H280.357C280.357 281.199 280.546 280.632 280.924 280.111C281.301 279.591 281.835 279.184 282.525 278.891C283.215 278.591 283.99 278.441 284.85 278.441C286.152 278.441 287.184 278.77 287.945 279.428C288.714 280.079 289.098 280.997 289.098 282.182V286.762C289.104 287.764 289.244 288.523 289.518 289.037V289.203H286.666ZM284.332 287.24C284.749 287.24 285.133 287.149 285.484 286.967C285.836 286.778 286.096 286.527 286.266 286.215V284.398H285.211C283.798 284.398 283.046 284.887 282.955 285.863L282.945 286.029C282.945 286.381 283.069 286.671 283.316 286.898C283.564 287.126 283.902 287.24 284.332 287.24ZM297.754 284.252H292.256V281.977H297.754V284.252ZM304.398 276.039V278.637H306.205V280.707H304.398V285.981C304.398 286.371 304.473 286.651 304.623 286.82C304.773 286.99 305.059 287.074 305.482 287.074C305.795 287.074 306.072 287.051 306.312 287.006V289.145C305.759 289.314 305.189 289.398 304.604 289.398C302.624 289.398 301.615 288.399 301.576 286.4V280.707H300.033V278.637H301.576V276.039H304.398ZM314.9 289.203C314.77 288.949 314.676 288.634 314.617 288.256C313.934 289.018 313.045 289.398 311.951 289.398C310.916 289.398 310.057 289.099 309.373 288.5C308.696 287.901 308.357 287.146 308.357 286.234C308.357 285.115 308.771 284.255 309.598 283.656C310.431 283.057 311.632 282.755 313.201 282.748H314.5V282.143C314.5 281.654 314.373 281.264 314.119 280.971C313.872 280.678 313.478 280.531 312.938 280.531C312.462 280.531 312.088 280.645 311.814 280.873C311.548 281.101 311.414 281.413 311.414 281.811H308.592C308.592 281.199 308.781 280.632 309.158 280.111C309.536 279.591 310.07 279.184 310.76 278.891C311.45 278.591 312.225 278.441 313.084 278.441C314.386 278.441 315.418 278.77 316.18 279.428C316.948 280.079 317.332 280.997 317.332 282.182V286.762C317.339 287.764 317.479 288.523 317.752 289.037V289.203H314.9ZM312.566 287.24C312.983 287.24 313.367 287.149 313.719 286.967C314.07 286.778 314.331 286.527 314.5 286.215V284.398H313.445C312.033 284.398 311.281 284.887 311.189 285.863L311.18 286.029C311.18 286.381 311.303 286.671 311.551 286.898C311.798 287.126 312.137 287.24 312.566 287.24ZM330.021 284.018C330.021 285.71 329.66 287.032 328.938 287.982C328.215 288.926 327.206 289.398 325.91 289.398C324.764 289.398 323.85 288.959 323.166 288.08L323.039 289.203H320.5V274.203H323.322V279.584C323.973 278.822 324.829 278.441 325.891 278.441C327.18 278.441 328.189 278.917 328.918 279.867C329.654 280.811 330.021 282.143 330.021 283.861V284.018ZM327.199 283.813C327.199 282.745 327.03 281.967 326.691 281.479C326.353 280.984 325.848 280.736 325.178 280.736C324.279 280.736 323.661 281.104 323.322 281.84V286.01C323.667 286.752 324.292 287.123 325.197 287.123C326.109 287.123 326.708 286.674 326.994 285.775C327.131 285.346 327.199 284.691 327.199 283.813ZM335.748 289.203H332.916V274.203H335.748V289.203ZM343.945 289.398C342.396 289.398 341.133 288.923 340.156 287.973C339.186 287.022 338.701 285.756 338.701 284.174V283.9C338.701 282.839 338.906 281.892 339.316 281.059C339.727 280.219 340.306 279.574 341.055 279.125C341.81 278.669 342.669 278.441 343.633 278.441C345.078 278.441 346.214 278.897 347.041 279.809C347.874 280.72 348.291 282.012 348.291 283.686V284.838H341.562C341.654 285.528 341.927 286.081 342.383 286.498C342.845 286.915 343.428 287.123 344.131 287.123C345.218 287.123 346.068 286.729 346.68 285.941L348.066 287.494C347.643 288.093 347.07 288.562 346.348 288.9C345.625 289.232 344.824 289.398 343.945 289.398ZM343.623 280.727C343.063 280.727 342.607 280.915 342.256 281.293C341.911 281.671 341.689 282.211 341.592 282.914H345.518V282.69C345.505 282.065 345.335 281.583 345.01 281.244C344.684 280.899 344.222 280.727 343.623 280.727Z" fill="#353C44"/>
<rect x="109.157" y="62.7032" width="399" height="399" rx="199.5" stroke="#CBDCE4"/>
<rect x="453.797" y="193.659" width="89" height="124" fill="url(#paint2_linear)"/>
<rect x="68.2969" y="200.659" width="89" height="125" fill="url(#paint3_linear)"/>
<path d="M474.482 289.375V294.659H472.012V280.44H477.451C479.04 280.44 480.299 280.853 481.23 281.68C482.168 282.507 482.637 283.601 482.637 284.961C482.637 286.354 482.178 287.438 481.26 288.213C480.348 288.988 479.069 289.375 477.422 289.375H474.482ZM474.482 287.393H477.451C478.33 287.393 479.001 287.188 479.463 286.778C479.925 286.361 480.156 285.762 480.156 284.981C480.156 284.213 479.922 283.601 479.453 283.145C478.984 282.683 478.34 282.445 477.52 282.432H474.482V287.393ZM491.107 286.26C490.795 286.208 490.473 286.182 490.141 286.182C489.053 286.182 488.321 286.599 487.943 287.432V294.659H485.57V284.092H487.836L487.895 285.274C488.467 284.356 489.262 283.897 490.277 283.897C490.616 283.897 490.896 283.942 491.117 284.034L491.107 286.26ZM492.811 289.278C492.811 288.242 493.016 287.312 493.426 286.485C493.836 285.651 494.412 285.013 495.154 284.571C495.896 284.121 496.749 283.897 497.713 283.897C499.139 283.897 500.294 284.356 501.18 285.274C502.072 286.192 502.553 287.409 502.625 288.926L502.635 289.483C502.635 290.524 502.433 291.455 502.029 292.276C501.632 293.096 501.059 293.731 500.311 294.18C499.568 294.629 498.709 294.854 497.732 294.854C496.242 294.854 495.047 294.359 494.148 293.369C493.257 292.373 492.811 291.048 492.811 289.395V289.278ZM495.184 289.483C495.184 290.57 495.408 291.423 495.857 292.041C496.307 292.653 496.932 292.959 497.732 292.959C498.533 292.959 499.155 292.647 499.598 292.022C500.047 291.397 500.271 290.482 500.271 289.278C500.271 288.21 500.04 287.364 499.578 286.739C499.122 286.114 498.501 285.801 497.713 285.801C496.938 285.801 496.323 286.11 495.867 286.729C495.411 287.341 495.184 288.259 495.184 289.483ZM514.895 289.483C514.895 291.117 514.523 292.422 513.781 293.399C513.039 294.369 512.043 294.854 510.793 294.854C509.634 294.854 508.706 294.473 508.01 293.711V298.721H505.637V284.092H507.824L507.922 285.166C508.618 284.32 509.566 283.897 510.764 283.897C512.053 283.897 513.062 284.379 513.791 285.342C514.527 286.299 514.895 287.631 514.895 289.336V289.483ZM512.531 289.278C512.531 288.223 512.32 287.386 511.896 286.768C511.48 286.149 510.881 285.84 510.1 285.84C509.13 285.84 508.433 286.241 508.01 287.041V291.729C508.439 292.549 509.143 292.959 510.119 292.959C510.874 292.959 511.464 292.657 511.887 292.051C512.316 291.439 512.531 290.515 512.531 289.278ZM523.834 291.787C523.834 291.364 523.658 291.042 523.307 290.821C522.962 290.599 522.385 290.404 521.578 290.235C520.771 290.065 520.097 289.851 519.557 289.59C518.372 289.017 517.779 288.187 517.779 287.1C517.779 286.188 518.163 285.427 518.932 284.815C519.7 284.203 520.676 283.897 521.861 283.897C523.124 283.897 524.143 284.209 524.918 284.834C525.699 285.459 526.09 286.27 526.09 287.266H523.717C523.717 286.81 523.548 286.433 523.209 286.133C522.87 285.827 522.421 285.674 521.861 285.674C521.34 285.674 520.914 285.795 520.582 286.035C520.257 286.276 520.094 286.599 520.094 287.002C520.094 287.367 520.247 287.65 520.553 287.852C520.859 288.054 521.477 288.259 522.408 288.467C523.339 288.669 524.068 288.913 524.596 289.2C525.13 289.479 525.523 289.818 525.777 290.215C526.038 290.612 526.168 291.094 526.168 291.66C526.168 292.611 525.774 293.382 524.986 293.975C524.199 294.561 523.167 294.854 521.891 294.854C521.025 294.854 520.253 294.698 519.576 294.385C518.899 294.073 518.372 293.643 517.994 293.096C517.617 292.549 517.428 291.96 517.428 291.328H519.732C519.765 291.888 519.977 292.321 520.367 292.627C520.758 292.927 521.275 293.076 521.92 293.076C522.545 293.076 523.02 292.959 523.346 292.725C523.671 292.484 523.834 292.172 523.834 291.787Z" fill="#868A8F"/>
<rect x="263.797" y="394.659" width="89" height="122" fill="white"/>
<rect x="259.297" y="0.658508" width="100" height="122" fill="url(#paint4_linear)"/>
<path d="M90.1582 299.348H84.6504L83.498 302.659H80.9297L86.3008 288.44H88.5176L93.8984 302.659H91.3203L90.1582 299.348ZM85.3438 297.356H89.4648L87.4043 291.457L85.3438 297.356ZM100.631 300.959C101.223 300.959 101.715 300.787 102.105 300.442C102.496 300.097 102.704 299.67 102.73 299.162H104.967C104.941 299.82 104.736 300.435 104.352 301.008C103.967 301.575 103.447 302.024 102.789 302.356C102.132 302.688 101.422 302.854 100.66 302.854C99.1823 302.854 98.0104 302.375 97.1445 301.418C96.2786 300.461 95.8457 299.14 95.8457 297.453V297.209C95.8457 295.601 96.2754 294.315 97.1348 293.352C97.9941 292.382 99.166 291.897 100.65 291.897C101.907 291.897 102.929 292.265 103.717 293C104.511 293.729 104.928 294.69 104.967 295.881H102.73C102.704 295.276 102.496 294.778 102.105 294.387C101.721 293.996 101.23 293.801 100.631 293.801C99.8626 293.801 99.2702 294.081 98.8535 294.641C98.4368 295.194 98.2253 296.037 98.2188 297.17V297.551C98.2188 298.697 98.4238 299.553 98.834 300.119C99.2507 300.679 99.8496 300.959 100.631 300.959ZM110.732 289.524V292.092H112.598V293.85H110.732V299.748C110.732 300.152 110.811 300.445 110.967 300.627C111.13 300.803 111.416 300.891 111.826 300.891C112.1 300.891 112.376 300.858 112.656 300.793V302.629C112.116 302.779 111.595 302.854 111.094 302.854C109.271 302.854 108.359 301.848 108.359 299.836V293.85H106.621V292.092H108.359V289.524H110.732ZM117.943 302.659H115.57V292.092H117.943V302.659ZM115.424 289.348C115.424 288.983 115.538 288.681 115.766 288.44C116 288.199 116.332 288.078 116.762 288.078C117.191 288.078 117.523 288.199 117.758 288.44C117.992 288.681 118.109 288.983 118.109 289.348C118.109 289.706 117.992 290.006 117.758 290.246C117.523 290.481 117.191 290.598 116.762 290.598C116.332 290.598 116 290.481 115.766 290.246C115.538 290.006 115.424 289.706 115.424 289.348ZM121.092 297.278C121.092 296.242 121.297 295.312 121.707 294.485C122.117 293.651 122.693 293.013 123.436 292.571C124.178 292.121 125.031 291.897 125.994 291.897C127.42 291.897 128.576 292.356 129.461 293.274C130.353 294.192 130.835 295.409 130.906 296.926L130.916 297.483C130.916 298.524 130.714 299.455 130.311 300.276C129.913 301.096 129.34 301.731 128.592 302.18C127.85 302.629 126.99 302.854 126.014 302.854C124.523 302.854 123.328 302.359 122.43 301.369C121.538 300.373 121.092 299.048 121.092 297.395V297.278ZM123.465 297.483C123.465 298.57 123.689 299.423 124.139 300.041C124.588 300.653 125.213 300.959 126.014 300.959C126.814 300.959 127.436 300.647 127.879 300.022C128.328 299.397 128.553 298.482 128.553 297.278C128.553 296.21 128.322 295.364 127.859 294.739C127.404 294.114 126.782 293.801 125.994 293.801C125.219 293.801 124.604 294.11 124.148 294.729C123.693 295.341 123.465 296.259 123.465 297.483ZM136.125 292.092L136.193 293.313C136.975 292.369 138 291.897 139.27 291.897C141.47 291.897 142.59 293.157 142.629 295.676V302.659H140.256V295.813C140.256 295.142 140.109 294.647 139.816 294.328C139.53 294.003 139.058 293.84 138.4 293.84C137.443 293.84 136.73 294.273 136.262 295.139V302.659H133.889V292.092H136.125Z" fill="#868A8F"/>
<g clip-path="url(#clip0)">
<path d="M137.023 220.544C136.737 220.248 136.297 220.166 135.924 220.337L87.8614 242.396C87.475 242.574 87.2494 242.981 87.3056 243.404C87.3618 243.826 87.6861 244.161 88.1054 244.231L109.663 247.843L112.127 268.215C112.18 268.639 112.504 268.981 112.925 269.052C112.981 269.062 113.035 269.067 113.089 269.067C113.452 269.067 113.792 268.863 113.957 268.528L137.196 221.647C137.378 221.28 137.308 220.838 137.023 220.544ZM113.66 264.765L111.499 246.892C111.447 246.466 111.12 246.125 110.697 246.054L91.5323 242.841L134.246 223.238L113.66 264.765Z" fill="#353C44"/>
</g>
<path d="M276.033 96.18H273.279V101.659H270.809V87.4398H275.809C277.449 87.4398 278.715 87.8076 279.607 88.5433C280.499 89.279 280.945 90.3434 280.945 91.7366C280.945 92.6872 280.714 93.4847 280.252 94.1292C279.796 94.7672 279.158 95.2588 278.338 95.6038L281.531 101.532V101.659H278.885L276.033 96.18ZM273.279 94.1976H275.818C276.652 94.1976 277.303 93.9892 277.771 93.5726C278.24 93.1494 278.475 92.5732 278.475 91.8441C278.475 91.0823 278.257 90.4931 277.82 90.0765C277.391 89.6598 276.746 89.445 275.887 89.4319H273.279V94.1976ZM288.713 101.854C287.209 101.854 285.988 101.382 285.051 100.438C284.12 99.4873 283.654 98.2243 283.654 96.6487V96.3558C283.654 95.3011 283.856 94.3603 284.26 93.5335C284.67 92.7002 285.243 92.0524 285.979 91.5901C286.714 91.1279 287.535 90.8968 288.439 90.8968C289.878 90.8968 290.988 91.3558 291.77 92.2737C292.557 93.1917 292.951 94.4905 292.951 96.1702V97.1273H286.047C286.118 97.9997 286.408 98.6898 286.916 99.1976C287.43 99.7054 288.075 99.9593 288.85 99.9593C289.937 99.9593 290.822 99.5198 291.506 98.6409L292.785 99.8616C292.362 100.493 291.796 100.985 291.086 101.336C290.383 101.681 289.592 101.854 288.713 101.854ZM288.43 92.8011C287.779 92.8011 287.251 93.029 286.848 93.4847C286.451 93.9404 286.197 94.5752 286.086 95.389H290.607V95.2132C290.555 94.4189 290.344 93.82 289.973 93.4163C289.602 93.0062 289.087 92.8011 288.43 92.8011ZM295.357 96.2972C295.357 94.6696 295.735 93.3642 296.49 92.3812C297.245 91.3916 298.258 90.8968 299.527 90.8968C300.647 90.8968 301.552 91.2874 302.242 92.0687V86.6585H304.615V101.659H302.467L302.35 100.565C301.64 101.424 300.693 101.854 299.508 101.854C298.271 101.854 297.268 101.356 296.5 100.36C295.738 99.3636 295.357 98.0094 295.357 96.2972ZM297.73 96.5023C297.73 97.5765 297.936 98.4163 298.346 99.0218C298.762 99.6207 299.352 99.9202 300.113 99.9202C301.083 99.9202 301.793 99.4873 302.242 98.6214V94.1097C301.806 93.2633 301.103 92.8401 300.133 92.8401C299.365 92.8401 298.772 93.1461 298.355 93.7581C297.939 94.3636 297.73 95.2783 297.73 96.5023ZM314.492 100.623C313.796 101.444 312.806 101.854 311.523 101.854C310.378 101.854 309.508 101.519 308.916 100.848C308.33 100.177 308.037 99.2073 308.037 97.9378V91.0921H310.41V97.9085C310.41 99.2497 310.967 99.9202 312.08 99.9202C313.232 99.9202 314.01 99.5068 314.414 98.68V91.0921H316.787V101.659H314.551L314.492 100.623ZM324.545 99.9593C325.137 99.9593 325.629 99.7868 326.02 99.4417C326.41 99.0967 326.618 98.6702 326.645 98.1624H328.881C328.855 98.82 328.65 99.4352 328.266 100.008C327.882 100.575 327.361 101.024 326.703 101.356C326.046 101.688 325.336 101.854 324.574 101.854C323.096 101.854 321.924 101.375 321.059 100.418C320.193 99.4612 319.76 98.1396 319.76 96.4534V96.2093C319.76 94.6012 320.189 93.3154 321.049 92.3519C321.908 91.3818 323.08 90.8968 324.564 90.8968C325.821 90.8968 326.843 91.2646 327.631 92.0003C328.425 92.7295 328.842 93.6898 328.881 94.8812H326.645C326.618 94.2757 326.41 93.7776 326.02 93.387C325.635 92.9964 325.144 92.8011 324.545 92.8011C323.777 92.8011 323.184 93.081 322.768 93.6409C322.351 94.1943 322.139 95.0374 322.133 96.1702V96.5511C322.133 97.6969 322.338 98.553 322.748 99.1194C323.165 99.6793 323.764 99.9593 324.545 99.9593ZM336.326 101.854C334.822 101.854 333.602 101.382 332.664 100.438C331.733 99.4873 331.268 98.2243 331.268 96.6487V96.3558C331.268 95.3011 331.469 94.3603 331.873 93.5335C332.283 92.7002 332.856 92.0524 333.592 91.5901C334.327 91.1279 335.148 90.8968 336.053 90.8968C337.492 90.8968 338.602 91.3558 339.383 92.2737C340.171 93.1917 340.564 94.4905 340.564 96.1702V97.1273H333.66C333.732 97.9997 334.021 98.6898 334.529 99.1976C335.044 99.7054 335.688 99.9593 336.463 99.9593C337.55 99.9593 338.436 99.5198 339.119 98.6409L340.398 99.8616C339.975 100.493 339.409 100.985 338.699 101.336C337.996 101.681 337.205 101.854 336.326 101.854ZM336.043 92.8011C335.392 92.8011 334.865 93.029 334.461 93.4847C334.064 93.9404 333.81 94.5752 333.699 95.389H338.221V95.2132C338.169 94.4189 337.957 93.82 337.586 93.4163C337.215 93.0062 336.701 92.8011 336.043 92.8011ZM348.947 93.2601C348.635 93.208 348.312 93.1819 347.98 93.1819C346.893 93.1819 346.161 93.5986 345.783 94.4319V101.659H343.41V91.0921H345.676L345.734 92.2737C346.307 91.3558 347.102 90.8968 348.117 90.8968C348.456 90.8968 348.736 90.9424 348.957 91.0335L348.947 93.2601Z" fill="#868A8F"/>
<g clip-path="url(#clip1)">
<path d="M333.301 25.3793C333.301 20.9666 321.225 18.6585 309.298 18.6585C297.37 18.6585 285.295 20.9666 285.295 25.3793C285.295 26.3798 285.92 27.2698 287.019 28.0513L303.537 50.6525V67.4814C303.537 67.8943 303.783 68.262 304.163 68.4214L304.822 68.6575L315.059 58.4198V50.6554L331.558 28.0763L331.557 28.0648C332.667 27.2804 333.301 26.3846 333.301 25.3793ZM309.298 20.5787C322.778 20.5787 331.381 23.4216 331.381 25.3793C331.381 25.7845 330.993 26.2271 330.291 26.6745L330.242 26.6688L330.258 26.6947C327.534 28.4047 319.949 30.1799 309.298 30.1799C298.636 30.1799 291.046 28.4018 288.33 26.6899L288.346 26.664L287.951 26.4287C287.479 26.0658 287.215 25.7096 287.215 25.3793C287.215 23.4216 295.818 20.5787 309.298 20.5787ZM313.138 57.6258L305.457 65.3067V51.3025H313.138V57.6258ZM313.613 49.3822H304.984L290.649 29.7642C295.279 31.3071 302.312 32.1001 309.298 32.1001C316.284 32.1001 323.316 31.3071 327.947 29.7651L313.613 49.3822Z" fill="#353C44"/>
</g>
<path d="M310.297 480.44V489.942C310.297 491.452 309.812 492.65 308.842 493.535C307.878 494.414 306.592 494.854 304.984 494.854C303.357 494.854 302.064 494.421 301.107 493.555C300.15 492.683 299.672 491.475 299.672 489.932V480.44H302.133V489.951C302.133 490.902 302.374 491.628 302.855 492.129C303.337 492.631 304.047 492.881 304.984 492.881C306.885 492.881 307.836 491.879 307.836 489.873V480.44H310.297ZM316.551 494.659H314.09V480.44H316.551V494.659Z" fill="#868A8F"/>
<g clip-path="url(#clip2)">
<path d="M298.459 457.909H318.134L308.297 442.169L298.459 457.909ZM301.468 456.242L308.297 445.314L315.126 456.242H301.468Z" fill="#353C44"/>
<path d="M283.297 415.409V448.742H301.63C302.091 448.742 302.464 448.369 302.464 447.909C302.464 447.448 302.091 447.075 301.63 447.075H284.964V417.075H331.63V447.075H314.964C314.503 447.075 314.13 447.448 314.13 447.909C314.13 448.369 314.503 448.742 314.964 448.742H333.297V415.409H283.297Z" fill="#353C44"/>
</g>
<path d="M475.782 226.277L475.78 226.296V226.315V235.916C475.747 237.998 474.712 239.935 473 241.121L472.585 241.409L473 241.696C474.712 242.882 475.747 244.819 475.78 246.901V256.502V256.521L475.782 256.54C476.059 259.101 478.329 260.973 480.894 260.759C481.569 260.766 482.114 261.315 482.114 261.992C482.114 262.673 481.561 263.225 480.88 263.225H480.871L480.862 263.226C476.925 263.43 473.558 260.425 473.314 256.492V246.898V246.879L473.312 246.86C473.034 244.299 470.765 242.428 468.2 242.642C467.525 242.634 466.98 242.085 466.98 241.409C466.98 240.732 467.525 240.183 468.2 240.175C470.765 240.389 473.034 238.518 473.312 235.957L473.314 235.938V235.919V226.325C473.558 222.392 476.925 219.387 480.862 219.591L480.871 219.592H480.88C481.561 219.592 482.114 220.144 482.114 220.825C482.114 221.502 481.569 222.051 480.894 222.058C478.329 221.844 476.059 223.716 475.782 226.277Z" fill="#353C44" stroke="#F7FBFD" stroke-width="0.7"/>
<path d="M523.282 246.86L523.28 246.879V246.898V256.492C523.036 260.425 519.669 263.43 515.732 263.226L515.723 263.225H515.714C515.032 263.225 514.48 262.673 514.48 261.992C514.48 261.315 515.025 260.766 515.7 260.759C518.265 260.973 520.534 259.101 520.812 256.54L520.814 256.521V256.502V246.901C520.847 244.819 521.882 242.882 523.594 241.696L524.009 241.409L523.594 241.121C521.882 239.935 520.847 237.998 520.814 235.916V226.315V226.296L520.812 226.277C520.534 223.716 518.265 221.844 515.7 222.058C515.025 222.051 514.48 221.502 514.48 220.825C514.48 220.144 515.032 219.592 515.714 219.592H515.723L515.732 219.591C519.669 219.387 523.036 222.392 523.28 226.325V235.919V235.938L523.282 235.957C523.559 238.518 525.829 240.389 528.394 240.175C529.069 240.183 529.614 240.732 529.614 241.409C529.614 242.085 529.069 242.634 528.394 242.642C525.829 242.428 523.559 244.299 523.282 246.86Z" fill="#353C44" stroke="#F5FAFC" stroke-width="0.7"/>
<path d="M487.214 252.492C488.088 252.492 488.797 251.783 488.797 250.908C488.797 250.034 488.088 249.325 487.214 249.325C486.339 249.325 485.63 250.034 485.63 250.908C485.63 251.783 486.339 252.492 487.214 252.492Z" fill="#353C44"/>
<path d="M498.297 252.492C499.171 252.492 499.88 251.783 499.88 250.908C499.88 250.034 499.171 249.325 498.297 249.325C497.423 249.325 496.714 250.034 496.714 250.908C496.714 251.783 497.423 252.492 498.297 252.492Z" fill="#353C44"/>
<path d="M509.38 252.492C510.255 252.492 510.964 251.783 510.964 250.908C510.964 250.034 510.255 249.325 509.38 249.325C508.506 249.325 507.797 250.034 507.797 250.908C507.797 251.783 508.506 252.492 509.38 252.492Z" fill="#353C44"/>
<defs>
<filter id="filter0_d" x="201.297" y="161.659" width="220" height="220" filterUnits="userSpaceOnUse" color-interpolation-filters="sRGB">
<feFlood flood-opacity="0" result="BackgroundImageFix"/>
<feColorMatrix in="SourceAlpha" type="matrix" values="0 0 0 0 0 0 0 0 0 0 0 0 0 0 0 0 0 0 127 0"/>
<feOffset dx="3" dy="10"/>
<feGaussianBlur stdDeviation="10"/>
<feColorMatrix type="matrix" values="0 0 0 0 0 0 0 0 0 0 0 0 0 0 0 0 0 0 0.06 0"/>
<feBlend mode="normal" in2="BackgroundImageFix" result="effect1_dropShadow"/>
<feBlend mode="normal" in="SourceGraphic" in2="effect1_dropShadow" result="shape"/>
</filter>
<linearGradient id="paint0_linear" x1="593.597" y1="365.474" x2="624.045" y2="405.474" gradientUnits="userSpaceOnUse">
<stop stop-color="#BFE1F2"/>
<stop offset="1" stop-color="#ECF0F4"/>
</linearGradient>
<linearGradient id="paint1_linear" x1="-22.1463" y1="42.3337" x2="39.7157" y2="137.555" gradientUnits="userSpaceOnUse">
<stop stop-color="#BFE1F2"/>
<stop offset="1" stop-color="#F9FBFC"/>
</linearGradient>
<linearGradient id="paint2_linear" x1="498.297" y1="193.659" x2="498.297" y2="317.659" gradientUnits="userSpaceOnUse">
<stop stop-color="white"/>
<stop offset="1" stop-color="white"/>
</linearGradient>
<linearGradient id="paint3_linear" x1="68.2969" y1="192.772" x2="114.949" y2="463.776" gradientUnits="userSpaceOnUse">
<stop stop-color="white"/>
<stop offset="1" stop-color="#F5FAFC"/>
<stop offset="1" stop-color="white"/>
</linearGradient>
<linearGradient id="paint4_linear" x1="309" y1="123" x2="309" y2="123" gradientUnits="userSpaceOnUse">
<stop offset="0.9999" stop-color="white"/>
<stop offset="1" stop-color="white"/>
</linearGradient>
<clipPath id="clip0">
<rect x="87.2969" y="219.659" width="50" height="50" fill="white"/>
</clipPath>
<clipPath id="clip1">
<rect x="284.297" y="18.6585" width="50" height="50" fill="white"/>
</clipPath>
<clipPath id="clip2">
<rect x="283.297" y="411.659" width="50" height="50" fill="white"/>
</clipPath>
</defs>
</svg>
