<svg width="616" height="516" viewBox="0 0 616 516" fill="none" xmlns="http://www.w3.org/2000/svg">
<circle cx="593.299" cy="384.816" r="20" transform="rotate(97.3562 593.299 384.816)" fill="url(#paint0_linear)"/>
<circle cx="28.97" cy="116.896" r="20" transform="rotate(-43.7532 28.97 116.896)" fill="url(#paint1_linear)"/>
<g filter="url(#filter0_d)">
<rect x="229" y="171" width="180" height="180" rx="90" fill="white"/>
</g>
<rect opacity="0.8" x="306.695" y="243.545" width="16" height="16" rx="8" fill="#61DAFB" fill-opacity="0.8"/>
<rect opacity="0.8" x="316.695" y="243.545" width="16" height="16" rx="8" fill="#764ABC" fill-opacity="0.8"/>
<rect opacity="0.8" x="311.695" y="233.545" width="16" height="16" rx="8" fill="#ECF0F4"/>
<path d="M283.4 284.306L282.385 285.322V288.545H279.562V273.545H282.385V281.855L282.932 281.152L285.637 277.978H289.025L285.207 282.383L289.357 288.545H286.115L283.4 284.306ZM297.369 288.545C297.239 288.291 297.145 287.975 297.086 287.597C296.402 288.359 295.514 288.74 294.42 288.74C293.385 288.74 292.525 288.441 291.842 287.842C291.165 287.243 290.826 286.487 290.826 285.576C290.826 284.456 291.24 283.597 292.066 282.998C292.9 282.399 294.101 282.096 295.67 282.09H296.969V281.484C296.969 280.996 296.842 280.605 296.588 280.312C296.34 280.019 295.947 279.873 295.406 279.873C294.931 279.873 294.557 279.987 294.283 280.215C294.016 280.442 293.883 280.755 293.883 281.152H291.061C291.061 280.54 291.249 279.974 291.627 279.453C292.005 278.932 292.538 278.525 293.229 278.232C293.919 277.933 294.693 277.783 295.553 277.783C296.855 277.783 297.887 278.112 298.648 278.769C299.417 279.42 299.801 280.338 299.801 281.523V286.103C299.807 287.106 299.947 287.864 300.221 288.379V288.545H297.369ZM295.035 286.582C295.452 286.582 295.836 286.491 296.188 286.308C296.539 286.12 296.799 285.869 296.969 285.556V283.74H295.914C294.501 283.74 293.749 284.228 293.658 285.205L293.648 285.371C293.648 285.722 293.772 286.012 294.02 286.24C294.267 286.468 294.605 286.582 295.035 286.582ZM308.457 283.594H302.959V281.318H308.457V283.594ZM315.102 275.381V277.978H316.908V280.049H315.102V285.322C315.102 285.713 315.176 285.993 315.326 286.162C315.476 286.331 315.762 286.416 316.186 286.416C316.498 286.416 316.775 286.393 317.016 286.347V288.486C316.462 288.655 315.893 288.74 315.307 288.74C313.327 288.74 312.318 287.741 312.279 285.742V280.049H310.736V277.978H312.279V275.381H315.102ZM325.604 288.545C325.473 288.291 325.379 287.975 325.32 287.597C324.637 288.359 323.748 288.74 322.654 288.74C321.619 288.74 320.76 288.441 320.076 287.842C319.399 287.243 319.061 286.487 319.061 285.576C319.061 284.456 319.474 283.597 320.301 282.998C321.134 282.399 322.335 282.096 323.904 282.09H325.203V281.484C325.203 280.996 325.076 280.605 324.822 280.312C324.575 280.019 324.181 279.873 323.641 279.873C323.165 279.873 322.791 279.987 322.518 280.215C322.251 280.442 322.117 280.755 322.117 281.152H319.295C319.295 280.54 319.484 279.974 319.861 279.453C320.239 278.932 320.773 278.525 321.463 278.232C322.153 277.933 322.928 277.783 323.787 277.783C325.089 277.783 326.121 278.112 326.883 278.769C327.651 279.42 328.035 280.338 328.035 281.523V286.103C328.042 287.106 328.182 287.864 328.455 288.379V288.545H325.604ZM323.27 286.582C323.686 286.582 324.07 286.491 324.422 286.308C324.773 286.12 325.034 285.869 325.203 285.556V283.74H324.148C322.736 283.74 321.984 284.228 321.893 285.205L321.883 285.371C321.883 285.722 322.007 286.012 322.254 286.24C322.501 286.468 322.84 286.582 323.27 286.582ZM340.725 283.359C340.725 285.052 340.363 286.373 339.641 287.324C338.918 288.268 337.909 288.74 336.613 288.74C335.467 288.74 334.553 288.301 333.869 287.422L333.742 288.545H331.203V273.545H334.025V278.926C334.676 278.164 335.533 277.783 336.594 277.783C337.883 277.783 338.892 278.258 339.621 279.209C340.357 280.153 340.725 281.484 340.725 283.203V283.359ZM337.902 283.154C337.902 282.086 337.733 281.308 337.395 280.82C337.056 280.325 336.551 280.078 335.881 280.078C334.982 280.078 334.364 280.446 334.025 281.181V285.351C334.37 286.094 334.995 286.465 335.9 286.465C336.812 286.465 337.411 286.015 337.697 285.117C337.834 284.687 337.902 284.033 337.902 283.154ZM346.451 288.545H343.619V273.545H346.451V288.545ZM354.648 288.74C353.099 288.74 351.836 288.265 350.859 287.314C349.889 286.364 349.404 285.097 349.404 283.515V283.242C349.404 282.181 349.609 281.233 350.02 280.4C350.43 279.56 351.009 278.916 351.758 278.467C352.513 278.011 353.372 277.783 354.336 277.783C355.781 277.783 356.917 278.239 357.744 279.15C358.577 280.062 358.994 281.354 358.994 283.027V284.179H352.266C352.357 284.87 352.63 285.423 353.086 285.84C353.548 286.256 354.131 286.465 354.834 286.465C355.921 286.465 356.771 286.071 357.383 285.283L358.77 286.836C358.346 287.435 357.773 287.903 357.051 288.242C356.328 288.574 355.527 288.74 354.648 288.74ZM354.326 280.068C353.766 280.068 353.311 280.257 352.959 280.635C352.614 281.012 352.393 281.552 352.295 282.256H356.221V282.031C356.208 281.406 356.038 280.924 355.713 280.586C355.387 280.241 354.925 280.068 354.326 280.068Z" fill="#1E266D"/>
<rect x="119.859" y="62.0447" width="399" height="399" rx="199.5" stroke="#CBDCE4"/>
<rect x="464.5" y="193" width="89" height="124" fill="white"/>
<rect x="79" y="200" width="89" height="125" fill="white"/>
<path d="M485.186 288.717V294H482.715V279.781H488.154C489.743 279.781 491.003 280.195 491.934 281.021C492.871 281.848 493.34 282.942 493.34 284.303C493.34 285.696 492.881 286.78 491.963 287.555C491.051 288.329 489.772 288.717 488.125 288.717H485.186ZM485.186 286.734H488.154C489.033 286.734 489.704 286.529 490.166 286.119C490.628 285.702 490.859 285.104 490.859 284.322C490.859 283.554 490.625 282.942 490.156 282.486C489.688 282.024 489.043 281.786 488.223 281.773H485.186V286.734ZM501.811 285.602C501.498 285.549 501.176 285.523 500.844 285.523C499.757 285.523 499.024 285.94 498.646 286.773V294H496.273V283.434H498.539L498.598 284.615C499.171 283.697 499.965 283.238 500.98 283.238C501.319 283.238 501.599 283.284 501.82 283.375L501.811 285.602ZM503.514 288.619C503.514 287.584 503.719 286.653 504.129 285.826C504.539 284.993 505.115 284.355 505.857 283.912C506.6 283.463 507.452 283.238 508.416 283.238C509.842 283.238 510.997 283.697 511.883 284.615C512.775 285.533 513.257 286.751 513.328 288.268L513.338 288.824C513.338 289.866 513.136 290.797 512.732 291.617C512.335 292.438 511.762 293.072 511.014 293.521C510.271 293.971 509.412 294.195 508.436 294.195C506.945 294.195 505.75 293.701 504.852 292.711C503.96 291.715 503.514 290.39 503.514 288.736V288.619ZM505.887 288.824C505.887 289.911 506.111 290.764 506.561 291.383C507.01 291.995 507.635 292.301 508.436 292.301C509.236 292.301 509.858 291.988 510.301 291.363C510.75 290.738 510.975 289.824 510.975 288.619C510.975 287.551 510.743 286.705 510.281 286.08C509.826 285.455 509.204 285.143 508.416 285.143C507.641 285.143 507.026 285.452 506.57 286.07C506.115 286.682 505.887 287.6 505.887 288.824ZM525.598 288.824C525.598 290.458 525.227 291.764 524.484 292.74C523.742 293.71 522.746 294.195 521.496 294.195C520.337 294.195 519.41 293.814 518.713 293.053V298.062H516.34V283.434H518.527L518.625 284.508C519.322 283.661 520.269 283.238 521.467 283.238C522.756 283.238 523.765 283.72 524.494 284.684C525.23 285.641 525.598 286.972 525.598 288.678V288.824ZM523.234 288.619C523.234 287.564 523.023 286.728 522.6 286.109C522.183 285.491 521.584 285.182 520.803 285.182C519.833 285.182 519.136 285.582 518.713 286.383V291.07C519.143 291.891 519.846 292.301 520.822 292.301C521.577 292.301 522.167 291.998 522.59 291.393C523.02 290.781 523.234 289.856 523.234 288.619ZM534.537 291.129C534.537 290.706 534.361 290.383 534.01 290.162C533.665 289.941 533.089 289.745 532.281 289.576C531.474 289.407 530.8 289.192 530.26 288.932C529.075 288.359 528.482 287.529 528.482 286.441C528.482 285.53 528.867 284.768 529.635 284.156C530.403 283.544 531.38 283.238 532.564 283.238C533.827 283.238 534.846 283.551 535.621 284.176C536.402 284.801 536.793 285.611 536.793 286.607H534.42C534.42 286.152 534.251 285.774 533.912 285.475C533.574 285.169 533.124 285.016 532.564 285.016C532.044 285.016 531.617 285.136 531.285 285.377C530.96 285.618 530.797 285.94 530.797 286.344C530.797 286.708 530.95 286.992 531.256 287.193C531.562 287.395 532.18 287.6 533.111 287.809C534.042 288.01 534.771 288.255 535.299 288.541C535.833 288.821 536.227 289.16 536.48 289.557C536.741 289.954 536.871 290.436 536.871 291.002C536.871 291.952 536.477 292.724 535.689 293.316C534.902 293.902 533.87 294.195 532.594 294.195C531.728 294.195 530.956 294.039 530.279 293.727C529.602 293.414 529.075 292.984 528.697 292.438C528.32 291.891 528.131 291.301 528.131 290.67H530.436C530.468 291.23 530.68 291.663 531.07 291.969C531.461 292.268 531.979 292.418 532.623 292.418C533.248 292.418 533.723 292.301 534.049 292.066C534.374 291.826 534.537 291.513 534.537 291.129Z" fill="#455880"/>
<rect x="274.5" y="394" width="89" height="122" fill="white"/>
<rect x="270" width="100" height="122" fill="white"/>
<path d="M100.861 298.689H95.3535L94.2012 302H91.6328L97.0039 287.781H99.2207L104.602 302H102.023L100.861 298.689ZM96.0469 296.697H100.168L98.1074 290.799L96.0469 296.697ZM111.334 300.301C111.926 300.301 112.418 300.128 112.809 299.783C113.199 299.438 113.408 299.012 113.434 298.504H115.67C115.644 299.161 115.439 299.777 115.055 300.35C114.671 300.916 114.15 301.365 113.492 301.697C112.835 302.029 112.125 302.195 111.363 302.195C109.885 302.195 108.714 301.717 107.848 300.76C106.982 299.803 106.549 298.481 106.549 296.795V296.551C106.549 294.943 106.979 293.657 107.838 292.693C108.697 291.723 109.869 291.238 111.354 291.238C112.61 291.238 113.632 291.606 114.42 292.342C115.214 293.071 115.631 294.031 115.67 295.223H113.434C113.408 294.617 113.199 294.119 112.809 293.729C112.424 293.338 111.933 293.143 111.334 293.143C110.566 293.143 109.973 293.423 109.557 293.982C109.14 294.536 108.928 295.379 108.922 296.512V296.893C108.922 298.038 109.127 298.895 109.537 299.461C109.954 300.021 110.553 300.301 111.334 300.301ZM121.436 288.865V291.434H123.301V293.191H121.436V299.09C121.436 299.493 121.514 299.786 121.67 299.969C121.833 300.145 122.119 300.232 122.529 300.232C122.803 300.232 123.079 300.2 123.359 300.135V301.971C122.819 302.12 122.298 302.195 121.797 302.195C119.974 302.195 119.062 301.189 119.062 299.178V293.191H117.324V291.434H119.062V288.865H121.436ZM128.646 302H126.273V291.434H128.646V302ZM126.127 288.689C126.127 288.325 126.241 288.022 126.469 287.781C126.703 287.54 127.035 287.42 127.465 287.42C127.895 287.42 128.227 287.54 128.461 287.781C128.695 288.022 128.812 288.325 128.812 288.689C128.812 289.048 128.695 289.347 128.461 289.588C128.227 289.822 127.895 289.939 127.465 289.939C127.035 289.939 126.703 289.822 126.469 289.588C126.241 289.347 126.127 289.048 126.127 288.689ZM131.795 296.619C131.795 295.584 132 294.653 132.41 293.826C132.82 292.993 133.396 292.355 134.139 291.912C134.881 291.463 135.734 291.238 136.697 291.238C138.123 291.238 139.279 291.697 140.164 292.615C141.056 293.533 141.538 294.751 141.609 296.268L141.619 296.824C141.619 297.866 141.417 298.797 141.014 299.617C140.617 300.438 140.044 301.072 139.295 301.521C138.553 301.971 137.693 302.195 136.717 302.195C135.226 302.195 134.031 301.701 133.133 300.711C132.241 299.715 131.795 298.39 131.795 296.736V296.619ZM134.168 296.824C134.168 297.911 134.393 298.764 134.842 299.383C135.291 299.995 135.916 300.301 136.717 300.301C137.518 300.301 138.139 299.988 138.582 299.363C139.031 298.738 139.256 297.824 139.256 296.619C139.256 295.551 139.025 294.705 138.562 294.08C138.107 293.455 137.485 293.143 136.697 293.143C135.923 293.143 135.307 293.452 134.852 294.07C134.396 294.682 134.168 295.6 134.168 296.824ZM146.828 291.434L146.896 292.654C147.678 291.71 148.703 291.238 149.973 291.238C152.173 291.238 153.293 292.498 153.332 295.018V302H150.959V295.154C150.959 294.484 150.812 293.989 150.52 293.67C150.233 293.344 149.761 293.182 149.104 293.182C148.146 293.182 147.434 293.615 146.965 294.48V302H144.592V291.434H146.828Z" fill="#455880"/>
<path d="M147.726 219.885C147.44 219.59 147 219.507 146.627 219.679L98.5643 241.737C98.178 241.915 97.9524 242.323 98.0085 242.745C98.0647 243.167 98.3891 243.502 98.8083 243.572L120.366 247.185L122.83 267.556C122.883 267.98 123.207 268.322 123.628 268.394C123.683 268.404 123.738 268.408 123.792 268.408C124.155 268.408 124.495 268.204 124.659 267.87L147.899 220.989C148.081 220.622 148.011 220.179 147.726 219.885ZM124.363 264.106L122.202 246.234C122.15 245.808 121.823 245.466 121.4 245.395L102.235 242.182L144.949 222.58L124.363 264.106Z" fill="#455880"/>
<path d="M286.736 95.5215H283.982V101H281.512V86.7812H286.512C288.152 86.7812 289.419 87.1491 290.311 87.8848C291.202 88.6204 291.648 89.6849 291.648 91.0781C291.648 92.0286 291.417 92.8262 290.955 93.4707C290.499 94.1087 289.861 94.6003 289.041 94.9453L292.234 100.873V101H289.588L286.736 95.5215ZM283.982 93.5391H286.521C287.355 93.5391 288.006 93.3307 288.475 92.9141C288.943 92.4909 289.178 91.9147 289.178 91.1855C289.178 90.4238 288.96 89.8346 288.523 89.418C288.094 89.0013 287.449 88.7865 286.59 88.7734H283.982V93.5391ZM299.416 101.195C297.912 101.195 296.691 100.723 295.754 99.7793C294.823 98.8288 294.357 97.5658 294.357 95.9902V95.6973C294.357 94.6426 294.559 93.7018 294.963 92.875C295.373 92.0417 295.946 91.3939 296.682 90.9316C297.417 90.4694 298.238 90.2383 299.143 90.2383C300.581 90.2383 301.691 90.6973 302.473 91.6152C303.26 92.5332 303.654 93.832 303.654 95.5117V96.4688H296.75C296.822 97.3411 297.111 98.0312 297.619 98.5391C298.133 99.0469 298.778 99.3008 299.553 99.3008C300.64 99.3008 301.525 98.8613 302.209 97.9824L303.488 99.2031C303.065 99.8346 302.499 100.326 301.789 100.678C301.086 101.023 300.295 101.195 299.416 101.195ZM299.133 92.1426C298.482 92.1426 297.954 92.3704 297.551 92.8262C297.154 93.2819 296.9 93.9167 296.789 94.7305H301.311V94.5547C301.258 93.7604 301.047 93.1615 300.676 92.7578C300.305 92.3477 299.79 92.1426 299.133 92.1426ZM306.061 95.6387C306.061 94.0111 306.438 92.7057 307.193 91.7227C307.949 90.7331 308.961 90.2383 310.23 90.2383C311.35 90.2383 312.255 90.6289 312.945 91.4102V86H315.318V101H313.17L313.053 99.9062C312.343 100.766 311.396 101.195 310.211 101.195C308.974 101.195 307.971 100.697 307.203 99.7012C306.441 98.7051 306.061 97.3509 306.061 95.6387ZM308.434 95.8438C308.434 96.918 308.639 97.7578 309.049 98.3633C309.465 98.9622 310.055 99.2617 310.816 99.2617C311.786 99.2617 312.496 98.8288 312.945 97.9629V93.4512C312.509 92.6048 311.806 92.1816 310.836 92.1816C310.068 92.1816 309.475 92.4876 309.059 93.0996C308.642 93.7051 308.434 94.6198 308.434 95.8438ZM325.195 99.9648C324.499 100.785 323.509 101.195 322.227 101.195C321.081 101.195 320.212 100.86 319.619 100.189C319.033 99.5189 318.74 98.5488 318.74 97.2793V90.4336H321.113V97.25C321.113 98.5911 321.67 99.2617 322.783 99.2617C323.936 99.2617 324.714 98.8483 325.117 98.0215V90.4336H327.49V101H325.254L325.195 99.9648ZM335.248 99.3008C335.84 99.3008 336.332 99.1283 336.723 98.7832C337.113 98.4382 337.322 98.0117 337.348 97.5039H339.584C339.558 98.1615 339.353 98.7767 338.969 99.3496C338.585 99.916 338.064 100.365 337.406 100.697C336.749 101.029 336.039 101.195 335.277 101.195C333.799 101.195 332.628 100.717 331.762 99.7598C330.896 98.8027 330.463 97.4811 330.463 95.7949V95.5508C330.463 93.9427 330.893 92.6569 331.752 91.6934C332.611 90.7233 333.783 90.2383 335.268 90.2383C336.524 90.2383 337.546 90.6061 338.334 91.3418C339.128 92.071 339.545 93.0312 339.584 94.2227H337.348C337.322 93.6172 337.113 93.1191 336.723 92.7285C336.339 92.3379 335.847 92.1426 335.248 92.1426C334.48 92.1426 333.887 92.4225 333.471 92.9824C333.054 93.5358 332.842 94.3789 332.836 95.5117V95.8926C332.836 97.0384 333.041 97.8945 333.451 98.4609C333.868 99.0208 334.467 99.3008 335.248 99.3008ZM347.029 101.195C345.525 101.195 344.305 100.723 343.367 99.7793C342.436 98.8288 341.971 97.5658 341.971 95.9902V95.6973C341.971 94.6426 342.173 93.7018 342.576 92.875C342.986 92.0417 343.559 91.3939 344.295 90.9316C345.031 90.4694 345.851 90.2383 346.756 90.2383C348.195 90.2383 349.305 90.6973 350.086 91.6152C350.874 92.5332 351.268 93.832 351.268 95.5117V96.4688H344.363C344.435 97.3411 344.725 98.0312 345.232 98.5391C345.747 99.0469 346.391 99.3008 347.166 99.3008C348.253 99.3008 349.139 98.8613 349.822 97.9824L351.102 99.2031C350.678 99.8346 350.112 100.326 349.402 100.678C348.699 101.023 347.908 101.195 347.029 101.195ZM346.746 92.1426C346.095 92.1426 345.568 92.3704 345.164 92.8262C344.767 93.2819 344.513 93.9167 344.402 94.7305H348.924V94.5547C348.872 93.7604 348.66 93.1615 348.289 92.7578C347.918 92.3477 347.404 92.1426 346.746 92.1426ZM359.65 92.6016C359.338 92.5495 359.016 92.5234 358.684 92.5234C357.596 92.5234 356.864 92.9401 356.486 93.7734V101H354.113V90.4336H356.379L356.438 91.6152C357.01 90.6973 357.805 90.2383 358.82 90.2383C359.159 90.2383 359.439 90.2839 359.66 90.375L359.65 92.6016Z" fill="#455880"/>
<path d="M344.004 24.7208C344.004 20.3081 331.928 18 320.001 18C308.073 18 295.998 20.3081 295.998 24.7208C295.998 25.7213 296.623 26.6113 297.722 27.3928L314.24 49.994V66.8229C314.24 67.2357 314.486 67.6035 314.866 67.7629L315.525 67.999L325.762 57.7613V49.9969L342.261 27.4178L342.26 27.4063C343.37 26.6218 344.004 25.7261 344.004 24.7208ZM320.001 19.9202C333.481 19.9202 342.084 22.7631 342.084 24.7208C342.084 25.126 341.696 25.5686 340.994 26.016L340.945 26.0103L340.961 26.0362C338.237 27.7461 330.653 29.5214 320.001 29.5214C309.339 29.5214 301.749 27.7433 299.033 26.0314L299.049 26.0055L298.654 25.7702C298.182 25.4073 297.918 25.0511 297.918 24.7208C297.918 22.7631 306.521 19.9202 320.001 19.9202ZM323.841 56.9673L316.16 64.6482V50.644H323.841V56.9673ZM324.316 48.7237H315.687L301.352 29.1057C305.982 30.6486 313.015 31.4416 320.001 31.4416C326.987 31.4416 334.019 30.6486 338.65 29.1066L324.316 48.7237Z" fill="#455880"/>
<path d="M321 479.781V489.283C321 490.794 320.515 491.992 319.545 492.877C318.581 493.756 317.296 494.195 315.688 494.195C314.06 494.195 312.768 493.762 311.811 492.896C310.854 492.024 310.375 490.816 310.375 489.273V479.781H312.836V489.293C312.836 490.243 313.077 490.969 313.559 491.471C314.04 491.972 314.75 492.223 315.688 492.223C317.589 492.223 318.539 491.22 318.539 489.215V479.781H321ZM327.254 494H324.793V479.781H327.254V494Z" fill="#455880"/>
<path d="M309.162 457.25H328.836L319 441.511L309.162 457.25ZM312.17 455.583L319 444.656L325.829 455.583H312.17Z" fill="#455880"/>
<path d="M294 414.75V448.083H312.333C312.794 448.083 313.167 447.711 313.167 447.25C313.167 446.789 312.794 446.417 312.333 446.417H295.667V416.417H342.333V446.417H325.667C325.206 446.417 324.833 446.789 324.833 447.25C324.833 447.711 325.206 448.083 325.667 448.083H344V414.75H294Z" fill="#455880"/>
<path d="M486.485 225.618L486.483 225.637V225.656V235.258C486.449 237.339 485.414 239.277 483.703 240.462L483.288 240.75L483.703 241.038C485.414 242.223 486.449 244.161 486.483 246.242V255.844V255.863L486.485 255.882C486.762 258.443 489.032 260.314 491.597 260.1C492.272 260.108 492.816 260.657 492.816 261.333C492.816 262.014 492.264 262.567 491.583 262.567H491.574L491.565 262.567C487.628 262.771 484.261 259.767 484.016 255.833V246.239V246.221L484.014 246.202C483.737 243.641 481.468 241.769 478.902 241.983C478.228 241.976 477.683 241.426 477.683 240.75C477.683 240.073 478.228 239.524 478.902 239.517C481.468 239.731 483.737 237.859 484.014 235.298L484.016 235.279V235.261V225.667C484.261 221.733 487.628 218.729 491.565 218.933L491.574 218.933H491.583C492.264 218.933 492.816 219.485 492.816 220.167C492.816 220.843 492.272 221.392 491.597 221.4C489.032 221.186 486.762 223.057 486.485 225.618Z" fill="#455880" stroke="#F7FBFD" stroke-width="0.7"/>
<path d="M533.985 246.202L533.983 246.221V246.239V255.833C533.739 259.767 530.372 262.771 526.434 262.567L526.425 262.567H526.416C525.735 262.567 525.183 262.014 525.183 261.333C525.183 260.657 525.728 260.108 526.402 260.1C528.968 260.314 531.237 258.443 531.514 255.882L531.516 255.863V255.844V246.242C531.55 244.161 532.585 242.223 534.296 241.038L534.712 240.75L534.296 240.462C532.585 239.277 531.55 237.339 531.516 235.258V225.656V225.637L531.514 225.618C531.237 223.057 528.968 221.186 526.402 221.4C525.728 221.392 525.183 220.843 525.183 220.167C525.183 219.485 525.735 218.933 526.416 218.933H526.425L526.434 218.933C530.372 218.729 533.739 221.733 533.983 225.667V235.261V235.279L533.985 235.298C534.262 237.859 536.532 239.731 539.097 239.517C539.772 239.524 540.316 240.073 540.316 240.75C540.316 241.426 539.772 241.976 539.097 241.983C536.532 241.769 534.262 243.641 533.985 246.202Z" fill="#455880" stroke="#F5FAFC" stroke-width="0.7"/>
<path d="M497.916 251.833C498.791 251.833 499.5 251.124 499.5 250.25C499.5 249.376 498.791 248.667 497.916 248.667C497.042 248.667 496.333 249.376 496.333 250.25C496.333 251.124 497.042 251.833 497.916 251.833Z" fill="#455880"/>
<path d="M509 251.833C509.875 251.833 510.584 251.124 510.584 250.25C510.584 249.376 509.875 248.667 509 248.667C508.126 248.667 507.417 249.376 507.417 250.25C507.417 251.124 508.126 251.833 509 251.833Z" fill="#455880"/>
<path d="M520.083 251.833C520.958 251.833 521.667 251.124 521.667 250.25C521.667 249.376 520.958 248.667 520.083 248.667C519.209 248.667 518.5 249.376 518.5 250.25C518.5 251.124 519.209 251.833 520.083 251.833Z" fill="#455880"/>
<defs>
<filter id="filter0_d" x="212" y="161" width="220" height="220" filterUnits="userSpaceOnUse" color-interpolation-filters="sRGB">
<feFlood flood-opacity="0" result="BackgroundImageFix"/>
<feColorMatrix in="SourceAlpha" type="matrix" values="0 0 0 0 0 0 0 0 0 0 0 0 0 0 0 0 0 0 127 0"/>
<feOffset dx="3" dy="10"/>
<feGaussianBlur stdDeviation="10"/>
<feColorMatrix type="matrix" values="0 0 0 0 0 0 0 0 0 0 0 0 0 0 0 0 0 0 0.06 0"/>
<feBlend mode="normal" in2="BackgroundImageFix" result="effect1_dropShadow"/>
<feBlend mode="normal" in="SourceGraphic" in2="effect1_dropShadow" result="shape"/>
</filter>
<linearGradient id="paint0_linear" x1="573.855" y1="360.152" x2="622.648" y2="378.468" gradientUnits="userSpaceOnUse">
<stop stop-color="#E5EDFC" stop-opacity="0.1"/>
<stop offset="1" stop-color="#E5EDFC"/>
</linearGradient>
<linearGradient id="paint1_linear" x1="9.52551" y1="92.2326" x2="58.3186" y2="110.548" gradientUnits="userSpaceOnUse">
<stop stop-color="#E5EDFC" stop-opacity="0.1"/>
<stop offset="1" stop-color="#E5EDFC"/>
</linearGradient>
</defs>
</svg>
