
<svg width="616" height="516" viewBox="0 0 616 516" fill="none" xmlns="http://www.w3.org/2000/svg">
<circle cx="593.299" cy="384.816" r="20" transform="rotate(97.3562 593.299 384.816)" fill="url(#paint0_linear)"/>
<circle cx="28.97" cy="116.896" r="20" transform="rotate(-43.7532 28.97 116.896)" fill="url(#paint1_linear)"/>
<g filter="url(#filter0_d)">
<rect x="229" y="171" width="180" height="180" rx="90" fill="white"/>
</g>
<rect opacity="0.8" x="306.695" y="243.545" width="16" height="16" rx="8" fill="#61DAFB" fill-opacity="0.8"/>
<rect opacity="0.8" x="316.695" y="243.545" width="16" height="16" rx="8" fill="#764ABC" fill-opacity="0.8"/>
<rect opacity="0.8" x="311.695" y="233.545" width="16" height="16" rx="8" fill="#ECF0F4"/>
<path d="M283.4 284.306L282.385 285.322V288.545H279.562V273.545H282.385V281.855L282.932 281.152L285.637 277.978H289.025L285.207 282.383L289.357 288.545H286.115L283.4 284.306ZM297.369 288.545C297.239 288.291 297.145 287.975 297.086 287.597C296.402 288.359 295.514 288.74 294.42 288.74C293.385 288.74 292.525 288.441 291.842 287.842C291.165 287.243 290.826 286.487 290.826 285.576C290.826 284.456 291.24 283.597 292.066 282.998C292.9 282.399 294.101 282.096 295.67 282.09H296.969V281.484C296.969 280.996 296.842 280.605 296.588 280.312C296.34 280.019 295.947 279.873 295.406 279.873C294.931 279.873 294.557 279.987 294.283 280.215C294.016 280.442 293.883 280.755 293.883 281.152H291.061C291.061 280.54 291.249 279.974 291.627 279.453C292.005 278.932 292.538 278.525 293.229 278.232C293.919 277.933 294.693 277.783 295.553 277.783C296.855 277.783 297.887 278.112 298.648 278.769C299.417 279.42 299.801 280.338 299.801 281.523V286.103C299.807 287.106 299.947 287.864 300.221 288.379V288.545H297.369ZM295.035 286.582C295.452 286.582 295.836 286.491 296.188 286.308C296.539 286.12 296.799 285.869 296.969 285.556V283.74H295.914C294.501 283.74 293.749 284.228 293.658 285.205L293.648 285.371C293.648 285.722 293.772 286.012 294.02 286.24C294.267 286.468 294.605 286.582 295.035 286.582ZM308.457 283.594H302.959V281.318H308.457V283.594ZM315.102 275.381V277.978H316.908V280.049H315.102V285.322C315.102 285.713 315.176 285.993 315.326 286.162C315.476 286.331 315.762 286.416 316.186 286.416C316.498 286.416 316.775 286.393 317.016 286.347V288.486C316.462 288.655 315.893 288.74 315.307 288.74C313.327 288.74 312.318 287.741 312.279 285.742V280.049H310.736V277.978H312.279V275.381H315.102ZM325.604 288.545C325.473 288.291 325.379 287.975 325.32 287.597C324.637 288.359 323.748 288.74 322.654 288.74C321.619 288.74 320.76 288.441 320.076 287.842C319.399 287.243 319.061 286.487 319.061 285.576C319.061 284.456 319.474 283.597 320.301 282.998C321.134 282.399 322.335 282.096 323.904 282.09H325.203V281.484C325.203 280.996 325.076 280.605 324.822 280.312C324.575 280.019 324.181 279.873 323.641 279.873C323.165 279.873 322.791 279.987 322.518 280.215C322.251 280.442 322.117 280.755 322.117 281.152H319.295C319.295 280.54 319.484 279.974 319.861 279.453C320.239 278.932 320.773 278.525 321.463 278.232C322.153 277.933 322.928 277.783 323.787 277.783C325.089 277.783 326.121 278.112 326.883 278.769C327.651 279.42 328.035 280.338 328.035 281.523V286.103C328.042 287.106 328.182 287.864 328.455 288.379V288.545H325.604ZM323.27 286.582C323.686 286.582 324.07 286.491 324.422 286.308C324.773 286.12 325.034 285.869 325.203 285.556V283.74H324.148C322.736 283.74 321.984 284.228 321.893 285.205L321.883 285.371C321.883 285.722 322.007 286.012 322.254 286.24C322.501 286.468 322.84 286.582 323.27 286.582ZM340.725 283.359C340.725 285.052 340.363 286.373 339.641 287.324C338.918 288.268 337.909 288.74 336.613 288.74C335.467 288.74 334.553 288.301 333.869 287.422L333.742 288.545H331.203V273.545H334.025V278.926C334.676 278.164 335.533 277.783 336.594 277.783C337.883 277.783 338.892 278.258 339.621 279.209C340.357 280.153 340.725 281.484 340.725 283.203V283.359ZM337.902 283.154C337.902 282.086 337.733 281.308 337.395 280.82C337.056 280.325 336.551 280.078 335.881 280.078C334.982 280.078 334.364 280.446 334.025 281.181V285.351C334.37 286.094 334.995 286.465 335.9 286.465C336.812 286.465 337.411 286.015 337.697 285.117C337.834 284.687 337.902 284.033 337.902 283.154ZM346.451 288.545H343.619V273.545H346.451V288.545ZM354.648 288.74C353.099 288.74 351.836 288.265 350.859 287.314C349.889 286.364 349.404 285.097 349.404 283.515V283.242C349.404 282.181 349.609 281.233 350.02 280.4C350.43 279.56 351.009 278.916 351.758 278.467C352.513 278.011 353.372 277.783 354.336 277.783C355.781 277.783 356.917 278.239 357.744 279.15C358.577 280.062 358.994 281.354 358.994 283.027V284.179H352.266C352.357 284.87 352.63 285.423 353.086 285.84C353.548 286.256 354.131 286.465 354.834 286.465C355.921 286.465 356.771 286.071 357.383 285.283L358.77 286.836C358.346 287.435 357.773 287.903 357.051 288.242C356.328 288.574 355.527 288.74 354.648 288.74ZM354.326 280.068C353.766 280.068 353.311 280.257 352.959 280.635C352.614 281.012 352.393 281.552 352.295 282.256H356.221V282.031C356.208 281.406 356.038 280.924 355.713 280.586C355.387 280.241 354.925 280.068 354.326 280.068Z" fill="#1E266D"/>
<rect x="119.859" y="62.0447" width="399" height="399" rx="199.5" stroke="#CBDCE4"/>
<rect x="464.5" y="193" width="89" height="124" fill="white"/>
<rect x="79" y="200" width="89" height="125" fill="white"/>
<path d="M484.407 280.31H489.951C491.307 280.31 492.363 280.652 493.119 281.336C493.875 282.008 494.253 282.956 494.253 284.18C494.253 285.404 493.875 286.358 493.119 287.042C492.363 287.726 491.307 288.068 489.951 288.068H486.729V293H484.407V280.31ZM489.663 286.286C491.259 286.286 492.057 285.59 492.057 284.198C492.057 283.49 491.859 282.968 491.463 282.632C491.067 282.284 490.467 282.11 489.663 282.11H486.729V286.286H489.663ZM502.612 285.854L501.298 285.98C499.81 286.136 499.066 286.892 499.066 288.248V293H496.816V284.198H498.958V285.746C499.414 284.69 500.356 284.114 501.784 284.018L502.468 283.964L502.612 285.854ZM508.445 293.144C507.545 293.144 506.753 292.958 506.069 292.586C505.397 292.214 504.875 291.68 504.503 290.984C504.131 290.288 503.945 289.478 503.945 288.554C503.945 287.63 504.131 286.826 504.503 286.142C504.875 285.446 505.397 284.912 506.069 284.54C506.753 284.168 507.545 283.982 508.445 283.982C509.345 283.982 510.131 284.168 510.803 284.54C511.487 284.912 512.009 285.446 512.369 286.142C512.741 286.826 512.927 287.63 512.927 288.554C512.927 289.478 512.741 290.288 512.369 290.984C512.009 291.68 511.487 292.214 510.803 292.586C510.131 292.958 509.345 293.144 508.445 293.144ZM508.427 291.398C509.159 291.398 509.717 291.158 510.101 290.678C510.485 290.198 510.677 289.49 510.677 288.554C510.677 287.63 510.485 286.928 510.101 286.448C509.717 285.956 509.165 285.71 508.445 285.71C507.725 285.71 507.167 285.956 506.771 286.448C506.387 286.928 506.195 287.63 506.195 288.554C506.195 289.49 506.387 290.198 506.771 290.678C507.155 291.158 507.707 291.398 508.427 291.398ZM520.742 283.982C521.498 283.982 522.17 284.174 522.758 284.558C523.358 284.942 523.82 285.488 524.144 286.196C524.48 286.892 524.648 287.696 524.648 288.608C524.648 289.52 524.48 290.318 524.144 291.002C523.82 291.686 523.364 292.214 522.776 292.586C522.188 292.958 521.51 293.144 520.742 293.144C520.118 293.144 519.56 293.012 519.068 292.748C518.576 292.484 518.198 292.118 517.934 291.65V296.24H515.684V284.198H517.898V285.53C518.162 285.038 518.54 284.66 519.032 284.396C519.536 284.12 520.106 283.982 520.742 283.982ZM520.148 291.398C520.856 291.398 521.408 291.158 521.804 290.678C522.2 290.186 522.398 289.496 522.398 288.608C522.398 287.696 522.2 286.988 521.804 286.484C521.408 285.98 520.856 285.728 520.148 285.728C519.428 285.728 518.87 285.974 518.474 286.466C518.09 286.958 517.898 287.66 517.898 288.572C517.898 289.472 518.09 290.168 518.474 290.66C518.87 291.152 519.428 291.398 520.148 291.398ZM530.635 293.144C529.855 293.144 529.135 293.048 528.475 292.856C527.827 292.664 527.275 292.388 526.819 292.028L527.449 290.462C528.385 291.146 529.459 291.488 530.671 291.488C531.187 291.488 531.577 291.404 531.841 291.236C532.117 291.068 532.255 290.828 532.255 290.516C532.255 290.252 532.159 290.048 531.967 289.904C531.787 289.76 531.457 289.628 530.977 289.508L529.537 289.184C528.721 289.004 528.115 288.71 527.719 288.302C527.323 287.894 527.125 287.366 527.125 286.718C527.125 286.178 527.275 285.704 527.575 285.296C527.887 284.876 528.313 284.552 528.853 284.324C529.405 284.096 530.041 283.982 530.761 283.982C531.385 283.982 531.985 284.078 532.561 284.27C533.149 284.462 533.665 284.732 534.109 285.08L533.479 286.61C532.567 285.95 531.655 285.62 530.743 285.62C530.251 285.62 529.867 285.71 529.591 285.89C529.315 286.07 529.177 286.322 529.177 286.646C529.177 286.886 529.261 287.084 529.429 287.24C529.609 287.396 529.891 287.516 530.275 287.6L531.769 287.942C532.645 288.134 533.287 288.44 533.695 288.86C534.103 289.268 534.307 289.808 534.307 290.48C534.307 291.296 533.977 291.944 533.317 292.424C532.657 292.904 531.763 293.144 530.635 293.144Z" fill="#455880"/>
<rect x="274.5" y="394" width="89" height="122" fill="white"/>
<rect x="270" width="100" height="122" fill="white"/>
<path d="M103.893 298.03H97.7186L96.4406 301H94.1006L99.8426 288.31H101.733L107.475 301H105.171L103.893 298.03ZM103.119 296.23L100.797 290.83L98.4746 296.23H103.119ZM113.544 301.144C112.62 301.144 111.816 300.958 111.132 300.586C110.46 300.214 109.944 299.686 109.584 299.002C109.224 298.318 109.044 297.52 109.044 296.608C109.044 295.696 109.23 294.892 109.602 294.196C109.986 293.488 110.526 292.942 111.222 292.558C111.918 292.174 112.722 291.982 113.634 291.982C114.258 291.982 114.864 292.084 115.452 292.288C116.052 292.48 116.532 292.744 116.892 293.08L116.244 294.664C115.872 294.364 115.476 294.136 115.056 293.98C114.648 293.824 114.24 293.746 113.832 293.746C113.052 293.746 112.446 293.992 112.014 294.484C111.582 294.964 111.366 295.66 111.366 296.572C111.366 297.472 111.582 298.168 112.014 298.66C112.446 299.14 113.052 299.38 113.832 299.38C114.24 299.38 114.648 299.302 115.056 299.146C115.476 298.99 115.872 298.762 116.244 298.462L116.892 300.028C116.508 300.376 116.016 300.652 115.416 300.856C114.816 301.048 114.192 301.144 113.544 301.144ZM123.772 299.452C124.036 299.452 124.312 299.434 124.6 299.398L124.492 301.072C124.132 301.108 123.802 301.126 123.502 301.126C122.266 301.126 121.354 300.844 120.766 300.28C120.178 299.704 119.884 298.852 119.884 297.724V293.89H118.192V292.198H119.884V289.57H122.134V292.198H124.456V293.89H122.134V297.688C122.134 298.864 122.68 299.452 123.772 299.452ZM126.816 292.198H129.066V301H126.816V292.198ZM129.174 288.112V290.326H126.69V288.112H129.174ZM136.301 301.144C135.401 301.144 134.609 300.958 133.925 300.586C133.253 300.214 132.731 299.68 132.359 298.984C131.987 298.288 131.801 297.478 131.801 296.554C131.801 295.63 131.987 294.826 132.359 294.142C132.731 293.446 133.253 292.912 133.925 292.54C134.609 292.168 135.401 291.982 136.301 291.982C137.201 291.982 137.987 292.168 138.659 292.54C139.343 292.912 139.865 293.446 140.225 294.142C140.597 294.826 140.783 295.63 140.783 296.554C140.783 297.478 140.597 298.288 140.225 298.984C139.865 299.68 139.343 300.214 138.659 300.586C137.987 300.958 137.201 301.144 136.301 301.144ZM136.283 299.398C137.015 299.398 137.573 299.158 137.957 298.678C138.341 298.198 138.533 297.49 138.533 296.554C138.533 295.63 138.341 294.928 137.957 294.448C137.573 293.956 137.021 293.71 136.301 293.71C135.581 293.71 135.023 293.956 134.627 294.448C134.243 294.928 134.051 295.63 134.051 296.554C134.051 297.49 134.243 298.198 134.627 298.678C135.011 299.158 135.563 299.398 136.283 299.398ZM148.652 291.982C149.708 291.982 150.494 292.282 151.01 292.882C151.526 293.482 151.784 294.388 151.784 295.6V301H149.534V295.726C149.534 295.042 149.402 294.544 149.138 294.232C148.886 293.92 148.484 293.764 147.932 293.764C147.284 293.764 146.762 293.968 146.366 294.376C145.982 294.784 145.79 295.33 145.79 296.014V301H143.54V292.198H145.736V293.512C146.036 293.02 146.438 292.642 146.942 292.378C147.446 292.114 148.016 291.982 148.652 291.982Z" fill="#455880"/>
<path d="M147.726 219.885C147.44 219.59 147 219.507 146.627 219.679L98.5643 241.737C98.178 241.915 97.9524 242.323 98.0085 242.745C98.0647 243.167 98.3891 243.502 98.8083 243.572L120.366 247.185L122.83 267.556C122.883 267.98 123.207 268.322 123.628 268.394C123.683 268.404 123.738 268.408 123.792 268.408C124.155 268.408 124.495 268.204 124.659 267.87L147.899 220.989C148.081 220.622 148.011 220.179 147.726 219.885ZM124.363 264.106L122.202 246.234C122.15 245.808 121.823 245.466 121.4 245.395L102.235 242.182L144.949 222.58L124.363 264.106Z" fill="#455880"/>
<path d="M295.029 100H292.509L290.331 95.95C290.127 95.566 289.875 95.296 289.575 95.14C289.275 94.984 288.897 94.906 288.441 94.906H286.677V100H284.391V87.31H290.007C291.447 87.31 292.539 87.634 293.283 88.282C294.039 88.918 294.417 89.842 294.417 91.054C294.417 92.026 294.141 92.83 293.589 93.466C293.049 94.09 292.281 94.498 291.285 94.69C291.957 94.87 292.497 95.344 292.905 96.112L295.029 100ZM289.683 93.124C290.559 93.124 291.201 92.962 291.609 92.638C292.017 92.302 292.221 91.792 292.221 91.108C292.221 90.412 292.017 89.908 291.609 89.596C291.201 89.272 290.559 89.11 289.683 89.11H286.659V93.124H289.683ZM305.33 96.004H299.336C299.408 96.82 299.654 97.426 300.074 97.822C300.494 98.218 301.094 98.416 301.874 98.416C302.846 98.416 303.734 98.104 304.538 97.48L305.186 99.028C304.778 99.364 304.262 99.634 303.638 99.838C303.026 100.042 302.408 100.144 301.784 100.144C300.344 100.144 299.204 99.736 298.364 98.92C297.536 98.104 297.122 96.988 297.122 95.572C297.122 94.672 297.302 93.874 297.662 93.178C298.022 92.482 298.526 91.942 299.174 91.558C299.834 91.174 300.578 90.982 301.406 90.982C302.618 90.982 303.572 91.372 304.268 92.152C304.976 92.932 305.33 94.006 305.33 95.374V96.004ZM301.46 92.566C300.86 92.566 300.374 92.758 300.002 93.142C299.642 93.526 299.42 94.078 299.336 94.798H303.404C303.38 94.066 303.2 93.514 302.864 93.142C302.528 92.758 302.06 92.566 301.46 92.566ZM316.567 87.31V100H314.335V98.578C314.071 99.07 313.687 99.454 313.183 99.73C312.691 100.006 312.127 100.144 311.491 100.144C310.735 100.144 310.057 99.952 309.457 99.568C308.869 99.184 308.407 98.644 308.071 97.948C307.747 97.24 307.585 96.43 307.585 95.518C307.585 94.606 307.747 93.808 308.071 93.124C308.407 92.44 308.869 91.912 309.457 91.54C310.045 91.168 310.723 90.982 311.491 90.982C312.127 90.982 312.691 91.114 313.183 91.378C313.675 91.642 314.053 92.014 314.317 92.494V87.31H316.567ZM312.085 98.398C312.805 98.398 313.357 98.152 313.741 97.66C314.137 97.168 314.335 96.466 314.335 95.554C314.335 94.642 314.137 93.946 313.741 93.466C313.357 92.974 312.811 92.728 312.103 92.728C311.383 92.728 310.825 92.968 310.429 93.448C310.033 93.928 309.835 94.618 309.835 95.518C309.835 96.43 310.033 97.138 310.429 97.642C310.825 98.146 311.377 98.398 312.085 98.398ZM327.863 91.198V100H325.667V98.65C325.391 99.13 325.019 99.502 324.551 99.766C324.083 100.018 323.555 100.144 322.967 100.144C320.807 100.144 319.727 98.932 319.727 96.508V91.198H321.977V96.526C321.977 97.15 322.103 97.612 322.355 97.912C322.607 98.212 323.003 98.362 323.543 98.362C324.167 98.362 324.665 98.158 325.037 97.75C325.421 97.33 325.613 96.778 325.613 96.094V91.198H327.863ZM335.119 100.144C334.195 100.144 333.391 99.958 332.707 99.586C332.035 99.214 331.519 98.686 331.159 98.002C330.799 97.318 330.619 96.52 330.619 95.608C330.619 94.696 330.805 93.892 331.177 93.196C331.561 92.488 332.101 91.942 332.797 91.558C333.493 91.174 334.297 90.982 335.209 90.982C335.833 90.982 336.439 91.084 337.027 91.288C337.627 91.48 338.107 91.744 338.467 92.08L337.819 93.664C337.447 93.364 337.051 93.136 336.631 92.98C336.223 92.824 335.815 92.746 335.407 92.746C334.627 92.746 334.021 92.992 333.589 93.484C333.157 93.964 332.941 94.66 332.941 95.572C332.941 96.472 333.157 97.168 333.589 97.66C334.021 98.14 334.627 98.38 335.407 98.38C335.815 98.38 336.223 98.302 336.631 98.146C337.051 97.99 337.447 97.762 337.819 97.462L338.467 99.028C338.083 99.376 337.591 99.652 336.991 99.856C336.391 100.048 335.767 100.144 335.119 100.144ZM348.516 96.004H342.522C342.594 96.82 342.84 97.426 343.26 97.822C343.68 98.218 344.28 98.416 345.06 98.416C346.032 98.416 346.92 98.104 347.724 97.48L348.372 99.028C347.964 99.364 347.448 99.634 346.824 99.838C346.212 100.042 345.594 100.144 344.97 100.144C343.53 100.144 342.39 99.736 341.55 98.92C340.722 98.104 340.308 96.988 340.308 95.572C340.308 94.672 340.488 93.874 340.848 93.178C341.208 92.482 341.712 91.942 342.36 91.558C343.02 91.174 343.764 90.982 344.592 90.982C345.804 90.982 346.758 91.372 347.454 92.152C348.162 92.932 348.516 94.006 348.516 95.374V96.004ZM344.646 92.566C344.046 92.566 343.56 92.758 343.188 93.142C342.828 93.526 342.606 94.078 342.522 94.798H346.59C346.566 94.066 346.386 93.514 346.05 93.142C345.714 92.758 345.246 92.566 344.646 92.566ZM357.053 92.854L355.739 92.98C354.251 93.136 353.507 93.892 353.507 95.248V100H351.257V91.198H353.399V92.746C353.855 91.69 354.797 91.114 356.225 91.018L356.909 90.964L357.053 92.854Z" fill="#455880"/>
<path d="M344.004 24.7208C344.004 20.3081 331.928 18 320.001 18C308.073 18 295.998 20.3081 295.998 24.7208C295.998 25.7213 296.623 26.6113 297.722 27.3928L314.24 49.994V66.8229C314.24 67.2357 314.486 67.6035 314.866 67.7629L315.525 67.999L325.762 57.7613V49.9969L342.261 27.4178L342.26 27.4063C343.37 26.6218 344.004 25.7261 344.004 24.7208ZM320.001 19.9202C333.481 19.9202 342.084 22.7631 342.084 24.7208C342.084 25.126 341.696 25.5686 340.994 26.016L340.945 26.0103L340.961 26.0362C338.237 27.7461 330.653 29.5214 320.001 29.5214C309.339 29.5214 301.749 27.7433 299.033 26.0314L299.049 26.0055L298.654 25.7702C298.182 25.4073 297.918 25.0511 297.918 24.7208C297.918 22.7631 306.521 19.9202 320.001 19.9202ZM323.841 56.9673L316.16 64.6482V50.644H323.841V56.9673ZM324.316 48.7237H315.687L301.352 29.1057C305.982 30.6486 313.015 31.4416 320.001 31.4416C326.987 31.4416 334.019 30.6486 338.65 29.1066L324.316 48.7237Z" fill="#455880"/>
<path d="M316.024 493.162C314.284 493.162 312.964 492.712 312.064 491.812C311.164 490.912 310.714 489.598 310.714 487.87V480.31H312.982V487.996C312.982 489.088 313.24 489.916 313.756 490.48C314.272 491.032 315.028 491.308 316.024 491.308C317.008 491.308 317.758 491.026 318.274 490.462C318.79 489.898 319.048 489.076 319.048 487.996V480.31H321.316V487.87C321.316 489.586 320.866 490.9 319.966 491.812C319.066 492.712 317.752 493.162 316.024 493.162ZM324.887 480.31H327.209V493H324.887V480.31Z" fill="#455880"/>
<path d="M309.162 457.25H328.836L319 441.511L309.162 457.25ZM312.17 455.583L319 444.656L325.829 455.583H312.17Z" fill="#455880"/>
<path d="M294 414.75V448.083H312.333C312.794 448.083 313.167 447.711 313.167 447.25C313.167 446.789 312.794 446.417 312.333 446.417H295.667V416.417H342.333V446.417H325.667C325.206 446.417 324.833 446.789 324.833 447.25C324.833 447.711 325.206 448.083 325.667 448.083H344V414.75H294Z" fill="#455880"/>
<path d="M486.485 225.618L486.483 225.637V225.656V235.258C486.449 237.339 485.414 239.277 483.703 240.462L483.288 240.75L483.703 241.038C485.414 242.223 486.449 244.161 486.483 246.242V255.844V255.863L486.485 255.882C486.762 258.443 489.032 260.314 491.597 260.1C492.272 260.108 492.816 260.657 492.816 261.333C492.816 262.014 492.264 262.567 491.583 262.567H491.574L491.565 262.567C487.628 262.771 484.261 259.767 484.016 255.833V246.239V246.221L484.014 246.202C483.737 243.641 481.468 241.769 478.902 241.983C478.228 241.976 477.683 241.426 477.683 240.75C477.683 240.073 478.228 239.524 478.902 239.517C481.468 239.731 483.737 237.859 484.014 235.298L484.016 235.279V235.261V225.667C484.261 221.733 487.628 218.729 491.565 218.933L491.574 218.933H491.583C492.264 218.933 492.816 219.485 492.816 220.167C492.816 220.843 492.272 221.392 491.597 221.4C489.032 221.186 486.762 223.057 486.485 225.618Z" fill="#455880" stroke="#F7FBFD" stroke-width="0.7"/>
<path d="M533.985 246.202L533.983 246.221V246.239V255.833C533.739 259.767 530.372 262.771 526.434 262.567L526.425 262.567H526.416C525.735 262.567 525.183 262.014 525.183 261.333C525.183 260.657 525.728 260.108 526.402 260.1C528.968 260.314 531.237 258.443 531.514 255.882L531.516 255.863V255.844V246.242C531.55 244.161 532.585 242.223 534.296 241.038L534.712 240.75L534.296 240.462C532.585 239.277 531.55 237.339 531.516 235.258V225.656V225.637L531.514 225.618C531.237 223.057 528.968 221.186 526.402 221.4C525.728 221.392 525.183 220.843 525.183 220.167C525.183 219.485 525.735 218.933 526.416 218.933H526.425L526.434 218.933C530.372 218.729 533.739 221.733 533.983 225.667V235.261V235.279L533.985 235.298C534.262 237.859 536.532 239.731 539.097 239.517C539.772 239.524 540.316 240.073 540.316 240.75C540.316 241.426 539.772 241.976 539.097 241.983C536.532 241.769 534.262 243.641 533.985 246.202Z" fill="#455880" stroke="#F5FAFC" stroke-width="0.7"/>
<path d="M497.916 251.833C498.791 251.833 499.5 251.124 499.5 250.25C499.5 249.376 498.791 248.667 497.916 248.667C497.042 248.667 496.333 249.376 496.333 250.25C496.333 251.124 497.042 251.833 497.916 251.833Z" fill="#455880"/>
<path d="M509 251.833C509.875 251.833 510.584 251.124 510.584 250.25C510.584 249.376 509.875 248.667 509 248.667C508.126 248.667 507.417 249.376 507.417 250.25C507.417 251.124 508.126 251.833 509 251.833Z" fill="#455880"/>
<path d="M520.083 251.833C520.958 251.833 521.667 251.124 521.667 250.25C521.667 249.376 520.958 248.667 520.083 248.667C519.209 248.667 518.5 249.376 518.5 250.25C518.5 251.124 519.209 251.833 520.083 251.833Z" fill="#455880"/>
<defs>
<filter id="filter0_d" x="212" y="161" width="220" height="220" filterUnits="userSpaceOnUse" color-interpolation-filters="sRGB">
<feFlood flood-opacity="0" result="BackgroundImageFix"/>
<feColorMatrix in="SourceAlpha" type="matrix" values="0 0 0 0 0 0 0 0 0 0 0 0 0 0 0 0 0 0 127 0"/>
<feOffset dx="3" dy="10"/>
<feGaussianBlur stdDeviation="10"/>
<feColorMatrix type="matrix" values="0 0 0 0 0 0 0 0 0 0 0 0 0 0 0 0 0 0 0.06 0"/>
<feBlend mode="normal" in2="BackgroundImageFix" result="effect1_dropShadow"/>
<feBlend mode="normal" in="SourceGraphic" in2="effect1_dropShadow" result="shape"/>
</filter>
<linearGradient id="paint0_linear" x1="573.855" y1="360.152" x2="622.648" y2="378.468" gradientUnits="userSpaceOnUse">
<stop stop-color="#E5EDFC" stop-opacity="0.1"/>
<stop offset="1" stop-color="#E5EDFC"/>
</linearGradient>
<linearGradient id="paint1_linear" x1="9.52551" y1="92.2326" x2="58.3186" y2="110.548" gradientUnits="userSpaceOnUse">
<stop stop-color="#E5EDFC" stop-opacity="0.1"/>
<stop offset="1" stop-color="#E5EDFC"/>
</linearGradient>
</defs>
</svg>
