<svg width="1384" height="786" viewBox="0 0 1384 786" fill="none" xmlns="http://www.w3.org/2000/svg">
<path opacity="0.854" d="M375.693 783.943C285.741 774.928 202.649 728.251 164.453 665.64C132.237 612.531 131.885 552.794 120.179 495.669C106.083 425.208 74.039 356.672 39.7656 289.795C21.1499 253.756 1.67982 216.976 0.728076 178.768C-0.39851 125.788 36.6202 75.7026 91.6508 44.3592C146.382 12.995 217.387 -0.656459 287.666 0.398025C325.082 0.744112 363.7 5.48747 395.836 20.9028C429.727 37.1229 453.529 63.7617 487.737 79.7763C519.303 94.6977 557.336 99.1734 593.819 99.908C641.753 100.99 689.448 96.8328 735.102 87.3109C787.194 76.4227 836.122 58.957 887.929 47.8209C939.735 36.6867 997.394 32.5444 1048.52 48.3797C1096.39 63.3065 1133.21 93.8073 1166.11 124.261C1219.96 174.57 1268.78 227.706 1311.67 283.605C1340.74 321.284 1367.28 360.601 1378.21 402.914C1399.14 483.615 1356.55 570.092 1271.67 618.191C1201.53 658.242 1110.05 671.143 1020.89 676.714C939.621 681.703 846.728 675.888 770.552 698.714C697.776 720.417 631.169 748.906 555.673 766.332C497.668 779.758 436.863 790.036 375.693 783.943V783.943Z" fill="url(#paint0_linear)"/>
<circle cx="1301.3" cy="507.816" r="20" transform="rotate(97.3562 1301.3 507.816)" fill="url(#paint1_linear)"/>
<circle cx="716.97" cy="239.896" r="20" transform="rotate(-43.7532 716.97 239.896)" fill="url(#paint2_linear)"/>
<g filter="url(#filter0_d)">
<rect x="906" y="294" width="180" height="180" rx="90" fill="white"/>
</g>
<rect opacity="0.8" x="983.696" y="366.545" width="16" height="16" rx="8" fill="#61DAFB" fill-opacity="0.8"/>
<rect opacity="0.8" x="993.696" y="366.545" width="16" height="16" rx="8" fill="#764ABC" fill-opacity="0.8"/>
<rect opacity="0.8" x="988.696" y="356.545" width="16" height="16" rx="8" fill="#ECF0F4"/>
<path d="M960.4 407.306L959.385 408.322V411.545H956.562V396.545H959.385V404.855L959.932 404.152L962.637 400.978H966.025L962.207 405.383L966.357 411.545H963.115L960.4 407.306ZM974.369 411.545C974.239 411.291 974.145 410.975 974.086 410.597C973.402 411.359 972.514 411.74 971.42 411.74C970.385 411.74 969.525 411.441 968.842 410.842C968.165 410.243 967.826 409.487 967.826 408.576C967.826 407.456 968.24 406.597 969.066 405.998C969.9 405.399 971.101 405.096 972.67 405.09H973.969V404.484C973.969 403.996 973.842 403.605 973.588 403.312C973.34 403.019 972.947 402.873 972.406 402.873C971.931 402.873 971.557 402.987 971.283 403.215C971.016 403.442 970.883 403.755 970.883 404.152H968.061C968.061 403.54 968.249 402.974 968.627 402.453C969.005 401.932 969.538 401.525 970.229 401.232C970.919 400.933 971.693 400.783 972.553 400.783C973.855 400.783 974.887 401.112 975.648 401.769C976.417 402.42 976.801 403.338 976.801 404.523V409.103C976.807 410.106 976.947 410.864 977.221 411.379V411.545H974.369ZM972.035 409.582C972.452 409.582 972.836 409.491 973.188 409.308C973.539 409.12 973.799 408.869 973.969 408.556V406.74H972.914C971.501 406.74 970.749 407.228 970.658 408.205L970.648 408.371C970.648 408.722 970.772 409.012 971.02 409.24C971.267 409.468 971.605 409.582 972.035 409.582ZM985.457 406.594H979.959V404.318H985.457V406.594ZM992.102 398.381V400.978H993.908V403.049H992.102V408.322C992.102 408.713 992.176 408.993 992.326 409.162C992.476 409.331 992.762 409.416 993.186 409.416C993.498 409.416 993.775 409.393 994.016 409.347V411.486C993.462 411.655 992.893 411.74 992.307 411.74C990.327 411.74 989.318 410.741 989.279 408.742V403.049H987.736V400.978H989.279V398.381H992.102ZM1002.6 411.545C1002.47 411.291 1002.38 410.975 1002.32 410.597C1001.64 411.359 1000.75 411.74 999.654 411.74C998.619 411.74 997.76 411.441 997.076 410.842C996.399 410.243 996.061 409.487 996.061 408.576C996.061 407.456 996.474 406.597 997.301 405.998C998.134 405.399 999.335 405.096 1000.9 405.09H1002.2V404.484C1002.2 403.996 1002.08 403.605 1001.82 403.312C1001.57 403.019 1001.18 402.873 1000.64 402.873C1000.17 402.873 999.791 402.987 999.518 403.215C999.251 403.442 999.117 403.755 999.117 404.152H996.295C996.295 403.54 996.484 402.974 996.861 402.453C997.239 401.932 997.773 401.525 998.463 401.232C999.153 400.933 999.928 400.783 1000.79 400.783C1002.09 400.783 1003.12 401.112 1003.88 401.769C1004.65 402.42 1005.04 403.338 1005.04 404.523V409.103C1005.04 410.106 1005.18 410.864 1005.46 411.379V411.545H1002.6ZM1000.27 409.582C1000.69 409.582 1001.07 409.491 1001.42 409.308C1001.77 409.12 1002.03 408.869 1002.2 408.556V406.74H1001.15C999.736 406.74 998.984 407.228 998.893 408.205L998.883 408.371C998.883 408.722 999.007 409.012 999.254 409.24C999.501 409.468 999.84 409.582 1000.27 409.582ZM1017.72 406.359C1017.72 408.052 1017.36 409.373 1016.64 410.324C1015.92 411.268 1014.91 411.74 1013.61 411.74C1012.47 411.74 1011.55 411.301 1010.87 410.422L1010.74 411.545H1008.2V396.545H1011.03V401.926C1011.68 401.164 1012.53 400.783 1013.59 400.783C1014.88 400.783 1015.89 401.258 1016.62 402.209C1017.36 403.153 1017.72 404.484 1017.72 406.203V406.359ZM1014.9 406.154C1014.9 405.086 1014.73 404.308 1014.39 403.82C1014.06 403.325 1013.55 403.078 1012.88 403.078C1011.98 403.078 1011.36 403.446 1011.03 404.181V408.351C1011.37 409.094 1012 409.465 1012.9 409.465C1013.81 409.465 1014.41 409.015 1014.7 408.117C1014.83 407.687 1014.9 407.033 1014.9 406.154ZM1023.45 411.545H1020.62V396.545H1023.45V411.545ZM1031.65 411.74C1030.1 411.74 1028.84 411.265 1027.86 410.314C1026.89 409.364 1026.4 408.097 1026.4 406.515V406.242C1026.4 405.181 1026.61 404.233 1027.02 403.4C1027.43 402.56 1028.01 401.916 1028.76 401.467C1029.51 401.011 1030.37 400.783 1031.34 400.783C1032.78 400.783 1033.92 401.239 1034.74 402.15C1035.58 403.062 1035.99 404.354 1035.99 406.027V407.179H1029.27C1029.36 407.87 1029.63 408.423 1030.09 408.84C1030.55 409.256 1031.13 409.465 1031.83 409.465C1032.92 409.465 1033.77 409.071 1034.38 408.283L1035.77 409.836C1035.35 410.435 1034.77 410.903 1034.05 411.242C1033.33 411.574 1032.53 411.74 1031.65 411.74ZM1031.33 403.068C1030.77 403.068 1030.31 403.257 1029.96 403.635C1029.61 404.012 1029.39 404.552 1029.29 405.256H1033.22V405.031C1033.21 404.406 1033.04 403.924 1032.71 403.586C1032.39 403.241 1031.93 403.068 1031.33 403.068Z" fill="#353C44"/>
<rect x="796.86" y="185.045" width="399" height="399" rx="199.5" stroke="#CBDCE4"/>
<rect x="1141.5" y="316" width="89" height="124" fill="url(#paint3_linear)"/>
<rect x="756" y="323" width="89" height="125" fill="url(#paint4_linear)"/>
<path d="M1190.17 334C1180.87 334 1173.02 336.157 1170.35 339.396C1164.89 340.731 1161.74 342.979 1161.12 345.258C1161.05 345.381 1161 345.515 1161 345.667V346.083V355.667V356.083V356.5V365.667V366.083V366.5V376.5C1161 376.635 1161.04 376.762 1161.1 376.876C1162.08 380.955 1170.89 384 1181.83 384C1191.2 384 1198.98 381.767 1201.65 378.568C1206.95 377.28 1210.29 375.172 1210.9 372.735C1210.96 372.617 1211 372.479 1211 372.333V362.333V361.917V352.333V351.917V341.917C1211 338.079 1203.7 334 1190.17 334ZM1200.84 366.79C1200.8 366.872 1200.76 366.955 1200.72 367.037C1200.66 367.14 1200.6 367.242 1200.53 367.345C1200.47 367.422 1200.41 367.499 1200.34 367.576C1200.25 367.685 1200.15 367.794 1200.04 367.902C1199.97 367.968 1199.9 368.033 1199.82 368.099C1199.69 368.218 1199.54 368.337 1199.39 368.454C1199.32 368.505 1199.24 368.554 1199.17 368.604C1198.98 368.734 1198.79 368.863 1198.57 368.99C1198.51 369.024 1198.45 369.057 1198.39 369.09C1198.15 369.23 1197.89 369.369 1197.61 369.504C1197.57 369.522 1197.53 369.538 1197.5 369.555C1197.18 369.702 1196.86 369.848 1196.51 369.988C1196.5 369.992 1196.49 369.995 1196.48 369.999C1194.59 370.755 1192.16 371.391 1189.34 371.807C1189.33 371.809 1189.32 371.811 1189.3 371.813C1188.75 371.894 1188.19 371.966 1187.61 372.029C1187.52 372.039 1187.42 372.046 1187.32 372.056C1186.82 372.108 1186.31 372.157 1185.79 372.195C1185.55 372.212 1185.29 372.221 1185.05 372.236C1184.65 372.259 1184.26 372.285 1183.86 372.299C1183.2 372.32 1182.52 372.333 1181.83 372.333C1181.14 372.333 1180.47 372.32 1179.81 372.297C1179.4 372.283 1179.01 372.256 1178.62 372.233C1178.37 372.219 1178.12 372.21 1177.88 372.193C1177.36 372.154 1176.84 372.106 1176.34 372.053C1176.25 372.043 1176.15 372.037 1176.05 372.027C1175.47 371.963 1174.91 371.891 1174.36 371.811C1174.35 371.809 1174.34 371.808 1174.32 371.805C1171.5 371.388 1169.08 370.752 1167.19 369.997C1167.18 369.993 1167.17 369.989 1167.16 369.985C1166.81 369.845 1166.48 369.7 1166.17 369.552C1166.13 369.535 1166.09 369.518 1166.06 369.502C1165.78 369.367 1165.52 369.228 1165.27 369.087C1165.21 369.054 1165.15 369.022 1165.09 368.987C1164.88 368.861 1164.68 368.732 1164.49 368.602C1164.42 368.552 1164.35 368.502 1164.28 368.452C1164.12 368.334 1163.98 368.216 1163.84 368.097C1163.77 368.032 1163.69 367.967 1163.63 367.9C1163.51 367.792 1163.41 367.683 1163.32 367.573C1163.26 367.497 1163.2 367.42 1163.14 367.343C1163.07 367.24 1163 367.137 1162.95 367.035C1162.9 366.952 1162.86 366.87 1162.83 366.788C1162.79 366.687 1162.76 366.586 1162.73 366.485C1162.7 366.352 1162.67 366.217 1162.67 366.083C1162.67 365.989 1162.68 365.895 1162.69 365.802C1162.71 365.676 1162.7 365.55 1162.67 365.431V359.244C1162.69 359.266 1162.72 359.287 1162.74 359.308C1162.92 359.468 1163.11 359.627 1163.32 359.781C1166.46 362.155 1172.73 364 1181.83 364C1190.89 364 1197.15 362.17 1200.31 359.81C1200.56 359.627 1200.79 359.437 1201 359.245L1201 359.244V365.431C1200.96 365.55 1200.95 365.676 1200.97 365.802C1200.99 365.895 1201 365.989 1201 366.083C1201 366.217 1200.97 366.352 1200.93 366.487C1200.91 366.588 1200.88 366.689 1200.84 366.79ZM1163.17 349.664C1163.42 349.861 1163.69 350.055 1163.98 350.244C1164.04 350.283 1164.11 350.322 1164.17 350.361C1164.42 350.513 1164.68 350.662 1164.95 350.809C1165.05 350.863 1165.15 350.917 1165.25 350.97C1165.56 351.125 1165.88 351.276 1166.21 351.422C1166.27 351.446 1166.32 351.471 1166.37 351.494C1166.77 351.66 1167.18 351.818 1167.61 351.972C1167.73 352.014 1167.86 352.054 1167.98 352.096C1168.32 352.212 1168.68 352.322 1169.05 352.43C1169.18 352.468 1169.31 352.508 1169.44 352.545C1169.93 352.68 1170.43 352.808 1170.96 352.927C1171.03 352.943 1171.11 352.957 1171.19 352.972C1171.65 353.074 1172.14 353.168 1172.63 353.257C1172.8 353.287 1172.97 353.315 1173.14 353.343C1173.62 353.421 1174.1 353.492 1174.6 353.557C1174.73 353.573 1174.85 353.593 1174.98 353.608C1175.6 353.683 1176.24 353.747 1176.9 353.802C1177.07 353.816 1177.23 353.826 1177.4 353.837C1177.93 353.876 1178.47 353.908 1179.02 353.933C1179.22 353.942 1179.42 353.951 1179.62 353.958C1180.34 353.983 1181.07 354 1181.83 354C1182.59 354 1183.32 353.983 1184.04 353.958C1184.25 353.951 1184.45 353.942 1184.65 353.933C1185.2 353.908 1185.74 353.876 1186.27 353.837C1186.43 353.825 1186.6 353.816 1186.76 353.802C1187.42 353.748 1188.06 353.683 1188.68 353.608C1188.81 353.593 1188.94 353.573 1189.06 353.557C1189.56 353.492 1190.05 353.421 1190.52 353.343C1190.69 353.315 1190.87 353.287 1191.03 353.257C1191.53 353.168 1192.01 353.074 1192.48 352.972C1192.55 352.957 1192.63 352.942 1192.7 352.927C1193.23 352.808 1193.73 352.679 1194.22 352.545C1194.36 352.507 1194.49 352.468 1194.62 352.43C1194.99 352.322 1195.34 352.212 1195.69 352.096C1195.81 352.054 1195.93 352.014 1196.05 351.972C1196.48 351.818 1196.9 351.66 1197.29 351.494C1197.35 351.471 1197.4 351.446 1197.45 351.422C1197.79 351.275 1198.11 351.125 1198.41 350.97C1198.52 350.917 1198.62 350.863 1198.72 350.809C1198.99 350.663 1199.25 350.514 1199.49 350.361C1199.56 350.322 1199.62 350.283 1199.69 350.244C1199.98 350.055 1200.25 349.862 1200.5 349.664C1200.56 349.614 1200.62 349.564 1200.68 349.514C1200.79 349.424 1200.9 349.335 1201 349.244V355.431C1200.96 355.55 1200.95 355.676 1200.97 355.802C1200.99 355.895 1201 355.989 1201 356.083C1201 356.217 1200.97 356.352 1200.93 356.487C1200.91 356.588 1200.88 356.688 1200.84 356.79C1200.8 356.872 1200.76 356.955 1200.72 357.037C1200.66 357.14 1200.6 357.242 1200.53 357.345C1200.47 357.422 1200.41 357.499 1200.34 357.576C1200.25 357.685 1200.15 357.794 1200.04 357.902C1199.97 357.968 1199.9 358.033 1199.82 358.099C1199.69 358.218 1199.54 358.337 1199.39 358.454C1199.32 358.505 1199.24 358.554 1199.17 358.604C1198.98 358.734 1198.79 358.863 1198.57 358.99C1198.51 359.024 1198.45 359.057 1198.39 359.09C1198.15 359.23 1197.89 359.369 1197.61 359.504C1197.57 359.522 1197.53 359.538 1197.5 359.555C1197.18 359.702 1196.86 359.847 1196.51 359.987C1196.5 359.992 1196.49 359.995 1196.48 359.999C1194.59 360.755 1192.16 361.391 1189.34 361.807C1189.33 361.809 1189.32 361.811 1189.3 361.813C1188.75 361.894 1188.19 361.966 1187.61 362.029C1187.52 362.039 1187.42 362.046 1187.32 362.056C1186.82 362.108 1186.31 362.157 1185.79 362.195C1185.55 362.212 1185.29 362.221 1185.05 362.236C1184.65 362.259 1184.26 362.285 1183.86 362.299C1183.2 362.32 1182.52 362.333 1181.83 362.333C1181.14 362.333 1180.47 362.32 1179.81 362.297C1179.4 362.283 1179.01 362.256 1178.62 362.233C1178.37 362.219 1178.12 362.21 1177.88 362.193C1177.36 362.154 1176.84 362.106 1176.34 362.053C1176.25 362.043 1176.15 362.037 1176.05 362.027C1175.47 361.963 1174.91 361.891 1174.36 361.811C1174.35 361.809 1174.34 361.808 1174.32 361.805C1171.5 361.388 1169.08 360.752 1167.19 359.997C1167.18 359.993 1167.17 359.989 1167.16 359.985C1166.81 359.845 1166.48 359.7 1166.17 359.552C1166.13 359.535 1166.09 359.518 1166.06 359.502C1165.78 359.367 1165.52 359.228 1165.27 359.087C1165.21 359.054 1165.15 359.022 1165.09 358.987C1164.88 358.861 1164.68 358.732 1164.49 358.602C1164.42 358.552 1164.35 358.502 1164.28 358.452C1164.12 358.334 1163.98 358.216 1163.84 358.097C1163.77 358.032 1163.69 357.967 1163.63 357.9C1163.51 357.792 1163.41 357.683 1163.32 357.573C1163.26 357.497 1163.2 357.42 1163.14 357.342C1163.07 357.24 1163 357.137 1162.95 357.035C1162.9 356.952 1162.86 356.87 1162.83 356.787C1162.79 356.687 1162.76 356.586 1162.73 356.485C1162.7 356.352 1162.67 356.217 1162.67 356.083C1162.67 355.989 1162.68 355.895 1162.69 355.802C1162.71 355.676 1162.7 355.55 1162.67 355.431V349.244C1162.77 349.335 1162.88 349.424 1162.99 349.514C1163.05 349.564 1163.11 349.614 1163.17 349.664ZM1202.67 366.575V366.5V366.083V365.667V358.31C1202.7 358.3 1202.74 358.289 1202.77 358.279C1203.1 358.186 1203.43 358.09 1203.74 357.991C1203.75 357.99 1203.75 357.988 1203.76 357.987C1206.22 357.207 1208.11 356.238 1209.33 355.132V361.917C1209.33 362.013 1209.32 362.11 1209.3 362.207C1209.29 362.287 1209.27 362.368 1209.24 362.448C1209.24 362.471 1209.23 362.494 1209.22 362.518C1209.19 362.606 1209.16 362.693 1209.11 362.781C1209.11 362.792 1209.1 362.802 1209.1 362.813C1208.41 364.159 1206.21 365.482 1203.04 366.463C1202.92 366.5 1202.79 366.538 1202.67 366.575ZM1209.33 345.122V351.917C1209.33 352.013 1209.32 352.11 1209.3 352.208C1209.29 352.288 1209.27 352.367 1209.24 352.447C1209.24 352.471 1209.23 352.494 1209.22 352.518C1209.19 352.606 1209.16 352.693 1209.11 352.781C1209.11 352.792 1209.1 352.802 1209.1 352.813C1208.41 354.159 1206.21 355.482 1203.04 356.462C1202.92 356.5 1202.79 356.538 1202.67 356.575V356.5V356.083V355.667V348.31C1202.74 348.291 1202.8 348.269 1202.87 348.25C1203.06 348.196 1203.25 348.139 1203.43 348.083C1203.59 348.036 1203.75 347.987 1203.9 347.938C1204.09 347.877 1204.27 347.813 1204.46 347.749C1204.6 347.701 1204.74 347.653 1204.87 347.604C1205.06 347.533 1205.25 347.459 1205.43 347.386C1205.55 347.34 1205.66 347.296 1205.77 347.249C1205.99 347.159 1206.19 347.067 1206.39 346.973C1206.46 346.939 1206.54 346.907 1206.61 346.873C1206.88 346.743 1207.14 346.61 1207.39 346.474C1207.41 346.46 1207.43 346.445 1207.46 346.431C1207.68 346.309 1207.89 346.185 1208.09 346.058C1208.16 346.013 1208.22 345.967 1208.29 345.922C1208.43 345.825 1208.58 345.727 1208.71 345.626C1208.79 345.571 1208.85 345.514 1208.92 345.458C1209.04 345.365 1209.16 345.272 1209.27 345.177C1209.29 345.157 1209.31 345.141 1209.33 345.122ZM1190.17 335.667C1201.46 335.667 1209.33 338.96 1209.33 341.917C1209.33 342.027 1209.32 342.138 1209.3 342.249C1209.29 342.286 1209.28 342.322 1209.27 342.358C1209.25 342.433 1209.23 342.507 1209.2 342.582C1209.19 342.626 1209.17 342.669 1209.15 342.712C1209.12 342.78 1209.08 342.847 1209.05 342.915C1209.02 342.961 1208.99 343.007 1208.96 343.052C1208.92 343.117 1208.88 343.182 1208.83 343.247C1208.79 343.293 1208.76 343.34 1208.72 343.386C1208.67 343.449 1208.61 343.512 1208.55 343.575C1208.51 343.622 1208.46 343.668 1208.42 343.715C1208.35 343.777 1208.29 343.839 1208.22 343.901C1208.17 343.947 1208.11 343.993 1208.06 344.039C1207.99 344.1 1207.91 344.161 1207.83 344.222C1207.77 344.267 1207.71 344.312 1207.65 344.357C1207.56 344.418 1207.48 344.478 1207.39 344.538C1207.32 344.582 1207.25 344.626 1207.18 344.67C1207.09 344.731 1206.99 344.791 1206.88 344.85C1206.81 344.892 1206.74 344.933 1206.67 344.974C1206.56 345.035 1206.44 345.096 1206.33 345.157C1206.25 345.195 1206.18 345.234 1206.1 345.272C1205.98 345.335 1205.84 345.397 1205.71 345.459C1205.63 345.493 1205.56 345.527 1205.49 345.56C1205.31 345.638 1205.13 345.716 1204.94 345.792C1204.9 345.807 1204.87 345.822 1204.83 345.837C1204.6 345.928 1204.37 346.017 1204.12 346.105C1204.06 346.129 1203.98 346.152 1203.91 346.176C1203.74 346.237 1203.56 346.299 1203.37 346.359C1203.28 346.391 1203.17 346.42 1203.08 346.451C1202.94 346.492 1202.81 346.533 1202.67 346.573V346.083V345.667C1202.67 345.572 1202.65 345.483 1202.61 345.398C1202.6 345.365 1202.59 345.333 1202.58 345.302C1202.57 345.299 1202.57 345.294 1202.57 345.291C1202.34 344.31 1201.64 343.392 1200.58 342.558C1200.57 342.553 1200.56 342.548 1200.56 342.544C1200.41 342.425 1200.24 342.311 1200.07 342.196C1197.11 340.103 1191.67 338.463 1183.96 338.207C1183.26 338.182 1182.55 338.167 1181.83 338.167C1181.12 338.167 1180.41 338.181 1179.71 338.207C1177.63 338.276 1175.72 338.449 1173.98 338.702C1177.2 337.01 1182.89 335.667 1190.17 335.667ZM1172.24 340.717C1172.45 340.676 1172.67 340.639 1172.88 340.6C1173.16 340.549 1173.44 340.5 1173.73 340.454C1173.97 340.414 1174.23 340.377 1174.48 340.34C1174.76 340.3 1175.05 340.262 1175.34 340.227C1175.58 340.196 1175.83 340.164 1176.07 340.137C1176.57 340.083 1177.08 340.036 1177.6 339.996C1177.8 339.98 1178 339.97 1178.2 339.957C1178.6 339.93 1179.01 339.907 1179.42 339.889C1179.62 339.881 1179.82 339.872 1180.01 339.866C1180.61 339.847 1181.21 339.833 1181.83 339.833C1182.52 339.833 1183.2 339.847 1183.86 339.87C1184.26 339.884 1184.65 339.91 1185.04 339.932C1185.29 339.947 1185.54 339.957 1185.79 339.974C1186.31 340.012 1186.81 340.06 1187.31 340.111C1187.41 340.121 1187.52 340.128 1187.62 340.14C1188.18 340.202 1188.73 340.272 1189.27 340.351C1189.3 340.355 1189.32 340.358 1189.35 340.362C1192.16 340.777 1194.57 341.408 1196.46 342.159C1196.48 342.168 1196.5 342.176 1196.52 342.184C1196.86 342.32 1197.17 342.461 1197.48 342.603C1197.52 342.625 1197.57 342.647 1197.62 342.668C1197.89 342.799 1198.14 342.933 1198.38 343.068C1198.45 343.106 1198.52 343.143 1198.58 343.182C1198.79 343.304 1198.98 343.428 1199.16 343.554C1199.24 343.608 1199.32 343.663 1199.39 343.718C1199.55 343.832 1199.69 343.946 1199.82 344.061C1199.9 344.13 1199.97 344.199 1200.05 344.269C1200.15 344.374 1200.25 344.479 1200.34 344.585C1200.41 344.665 1200.47 344.745 1200.53 344.826C1200.6 344.925 1200.66 345.025 1200.72 345.125C1200.76 345.21 1200.8 345.294 1200.84 345.378C1200.88 345.477 1200.91 345.577 1200.93 345.677C1200.97 345.813 1201 345.948 1201 346.083C1201 349.04 1193.13 352.333 1181.83 352.333C1170.54 352.333 1162.67 349.04 1162.67 346.083C1162.67 344.067 1166.33 341.896 1172.24 340.717ZM1181.83 382.333C1170.97 382.333 1163.17 379.248 1162.69 376.365C1162.69 376.328 1162.68 376.291 1162.67 376.256V369.244C1162.69 369.266 1162.72 369.287 1162.74 369.308C1162.92 369.468 1163.11 369.627 1163.32 369.781C1166.46 372.155 1172.73 374 1181.83 374C1190.89 374 1197.15 372.17 1200.31 369.81C1200.56 369.627 1200.79 369.437 1201 369.245L1201 369.244V376.252C1200.99 376.289 1200.98 376.327 1200.97 376.365C1200.95 376.535 1200.89 376.706 1200.81 376.876C1200.78 376.942 1200.73 377.007 1200.7 377.073C1199.19 379.731 1191.81 382.333 1181.83 382.333ZM1209.31 372.198C1209.04 373.816 1206.54 375.441 1202.66 376.577C1202.67 376.552 1202.67 376.526 1202.67 376.5V368.31C1202.7 368.3 1202.74 368.289 1202.77 368.279C1203.1 368.186 1203.43 368.09 1203.74 367.991C1203.75 367.99 1203.75 367.988 1203.76 367.987C1206.22 367.207 1208.11 366.238 1209.33 365.132V372.087C1209.32 372.122 1209.31 372.16 1209.31 372.198Z" fill="#353C44"/>
<path d="M1169.18 413.338C1169.18 412.713 1168.95 412.231 1168.51 411.893C1168.08 411.554 1167.28 411.212 1166.14 410.867C1164.99 410.522 1164.08 410.138 1163.4 409.715C1162.11 408.901 1161.46 407.84 1161.46 406.531C1161.46 405.385 1161.93 404.441 1162.86 403.699C1163.79 402.957 1165.01 402.586 1166.5 402.586C1167.49 402.586 1168.37 402.768 1169.15 403.133C1169.92 403.497 1170.53 404.018 1170.97 404.695C1171.42 405.366 1171.64 406.111 1171.64 406.932H1169.18C1169.18 406.189 1168.94 405.61 1168.47 405.193C1168.01 404.77 1167.35 404.559 1166.48 404.559C1165.67 404.559 1165.04 404.731 1164.6 405.076C1164.15 405.421 1163.93 405.903 1163.93 406.521C1163.93 407.042 1164.17 407.479 1164.65 407.83C1165.14 408.175 1165.93 408.514 1167.04 408.846C1168.14 409.171 1169.03 409.546 1169.7 409.969C1170.37 410.385 1170.87 410.867 1171.18 411.414C1171.49 411.954 1171.65 412.589 1171.65 413.318C1171.65 414.503 1171.19 415.447 1170.28 416.15C1169.37 416.847 1168.14 417.195 1166.59 417.195C1165.56 417.195 1164.61 417.007 1163.75 416.629C1162.89 416.245 1162.22 415.717 1161.73 415.047C1161.26 414.376 1161.02 413.595 1161.02 412.703H1163.49C1163.49 413.51 1163.76 414.135 1164.29 414.578C1164.83 415.021 1165.59 415.242 1166.59 415.242C1167.45 415.242 1168.09 415.07 1168.52 414.725C1168.96 414.373 1169.18 413.911 1169.18 413.338ZM1177.56 403.865V406.434H1179.42V408.191H1177.56V414.09C1177.56 414.493 1177.64 414.786 1177.79 414.969C1177.96 415.145 1178.24 415.232 1178.65 415.232C1178.93 415.232 1179.2 415.2 1179.48 415.135V416.971C1178.94 417.12 1178.42 417.195 1177.92 417.195C1176.1 417.195 1175.19 416.189 1175.19 414.178V408.191H1173.45V406.434H1175.19V403.865H1177.56ZM1181.51 411.619C1181.51 410.584 1181.71 409.653 1182.12 408.826C1182.53 407.993 1183.11 407.355 1183.85 406.912C1184.59 406.463 1185.45 406.238 1186.41 406.238C1187.84 406.238 1188.99 406.697 1189.88 407.615C1190.77 408.533 1191.25 409.751 1191.32 411.268L1191.33 411.824C1191.33 412.866 1191.13 413.797 1190.73 414.617C1190.33 415.438 1189.76 416.072 1189.01 416.521C1188.27 416.971 1187.41 417.195 1186.43 417.195C1184.94 417.195 1183.74 416.701 1182.85 415.711C1181.95 414.715 1181.51 413.39 1181.51 411.736V411.619ZM1183.88 411.824C1183.88 412.911 1184.11 413.764 1184.55 414.383C1185 414.995 1185.63 415.301 1186.43 415.301C1187.23 415.301 1187.85 414.988 1188.29 414.363C1188.74 413.738 1188.97 412.824 1188.97 411.619C1188.97 410.551 1188.74 409.705 1188.28 409.08C1187.82 408.455 1187.2 408.143 1186.41 408.143C1185.64 408.143 1185.02 408.452 1184.56 409.07C1184.11 409.682 1183.88 410.6 1183.88 411.824ZM1199.87 408.602C1199.56 408.549 1199.24 408.523 1198.9 408.523C1197.82 408.523 1197.08 408.94 1196.71 409.773V417H1194.33V406.434H1196.6L1196.66 407.615C1197.23 406.697 1198.03 406.238 1199.04 406.238C1199.38 406.238 1199.66 406.284 1199.88 406.375L1199.87 408.602ZM1206.83 417.195C1205.32 417.195 1204.1 416.723 1203.17 415.779C1202.24 414.829 1201.77 413.566 1201.77 411.99V411.697C1201.77 410.643 1201.97 409.702 1202.38 408.875C1202.79 408.042 1203.36 407.394 1204.09 406.932C1204.83 406.469 1205.65 406.238 1206.55 406.238C1207.99 406.238 1209.1 406.697 1209.88 407.615C1210.67 408.533 1211.07 409.832 1211.07 411.512V412.469H1204.16C1204.23 413.341 1204.52 414.031 1205.03 414.539C1205.55 415.047 1206.19 415.301 1206.96 415.301C1208.05 415.301 1208.94 414.861 1209.62 413.982L1210.9 415.203C1210.48 415.835 1209.91 416.326 1209.2 416.678C1208.5 417.023 1207.71 417.195 1206.83 417.195ZM1206.54 408.143C1205.89 408.143 1205.37 408.37 1204.96 408.826C1204.57 409.282 1204.31 409.917 1204.2 410.73H1208.72V410.555C1208.67 409.76 1208.46 409.161 1208.09 408.758C1207.72 408.348 1207.2 408.143 1206.54 408.143Z" fill="#868A8F"/>
<rect x="951.5" y="517" width="89" height="122" fill="#F6FAFC"/>
<rect x="947" y="123" width="100" height="122" fill="url(#paint5_linear)"/>
<path d="M777.861 421.689H772.354L771.201 425H768.633L774.004 410.781H776.221L781.602 425H779.023L777.861 421.689ZM773.047 419.697H777.168L775.107 413.799L773.047 419.697ZM788.334 423.301C788.926 423.301 789.418 423.128 789.809 422.783C790.199 422.438 790.408 422.012 790.434 421.504H792.67C792.644 422.161 792.439 422.777 792.055 423.35C791.671 423.916 791.15 424.365 790.492 424.697C789.835 425.029 789.125 425.195 788.363 425.195C786.885 425.195 785.714 424.717 784.848 423.76C783.982 422.803 783.549 421.481 783.549 419.795V419.551C783.549 417.943 783.979 416.657 784.838 415.693C785.697 414.723 786.869 414.238 788.354 414.238C789.61 414.238 790.632 414.606 791.42 415.342C792.214 416.071 792.631 417.031 792.67 418.223H790.434C790.408 417.617 790.199 417.119 789.809 416.729C789.424 416.338 788.933 416.143 788.334 416.143C787.566 416.143 786.973 416.423 786.557 416.982C786.14 417.536 785.928 418.379 785.922 419.512V419.893C785.922 421.038 786.127 421.895 786.537 422.461C786.954 423.021 787.553 423.301 788.334 423.301ZM798.436 411.865V414.434H800.301V416.191H798.436V422.09C798.436 422.493 798.514 422.786 798.67 422.969C798.833 423.145 799.119 423.232 799.529 423.232C799.803 423.232 800.079 423.2 800.359 423.135V424.971C799.819 425.12 799.298 425.195 798.797 425.195C796.974 425.195 796.062 424.189 796.062 422.178V416.191H794.324V414.434H796.062V411.865H798.436ZM805.646 425H803.273V414.434H805.646V425ZM803.127 411.689C803.127 411.325 803.241 411.022 803.469 410.781C803.703 410.54 804.035 410.42 804.465 410.42C804.895 410.42 805.227 410.54 805.461 410.781C805.695 411.022 805.812 411.325 805.812 411.689C805.812 412.048 805.695 412.347 805.461 412.588C805.227 412.822 804.895 412.939 804.465 412.939C804.035 412.939 803.703 412.822 803.469 412.588C803.241 412.347 803.127 412.048 803.127 411.689ZM808.795 419.619C808.795 418.584 809 417.653 809.41 416.826C809.82 415.993 810.396 415.355 811.139 414.912C811.881 414.463 812.734 414.238 813.697 414.238C815.123 414.238 816.279 414.697 817.164 415.615C818.056 416.533 818.538 417.751 818.609 419.268L818.619 419.824C818.619 420.866 818.417 421.797 818.014 422.617C817.617 423.438 817.044 424.072 816.295 424.521C815.553 424.971 814.693 425.195 813.717 425.195C812.226 425.195 811.031 424.701 810.133 423.711C809.241 422.715 808.795 421.39 808.795 419.736V419.619ZM811.168 419.824C811.168 420.911 811.393 421.764 811.842 422.383C812.291 422.995 812.916 423.301 813.717 423.301C814.518 423.301 815.139 422.988 815.582 422.363C816.031 421.738 816.256 420.824 816.256 419.619C816.256 418.551 816.025 417.705 815.562 417.08C815.107 416.455 814.485 416.143 813.697 416.143C812.923 416.143 812.307 416.452 811.852 417.07C811.396 417.682 811.168 418.6 811.168 419.824ZM823.828 414.434L823.896 415.654C824.678 414.71 825.703 414.238 826.973 414.238C829.173 414.238 830.293 415.498 830.332 418.018V425H827.959V418.154C827.959 417.484 827.812 416.989 827.52 416.67C827.233 416.344 826.761 416.182 826.104 416.182C825.146 416.182 824.434 416.615 823.965 417.48V425H821.592V414.434H823.828Z" fill="#868A8F"/>
<path d="M824.726 342.885C824.44 342.59 824 342.507 823.627 342.679L775.565 364.737C775.178 364.915 774.953 365.323 775.009 365.745C775.065 366.167 775.389 366.502 775.809 366.572L797.366 370.185L799.831 390.556C799.883 390.98 800.207 391.322 800.628 391.394C800.684 391.404 800.738 391.408 800.792 391.408C801.155 391.408 801.495 391.204 801.66 390.87L824.899 343.989C825.081 343.622 825.012 343.179 824.726 342.885ZM801.363 387.106L799.202 369.234C799.15 368.808 798.823 368.466 798.4 368.395L779.235 365.182L821.949 345.58L801.363 387.106Z" fill="#353C44"/>
<path d="M963.736 218.521H960.982V224H958.512V209.781H963.512C965.152 209.781 966.419 210.149 967.311 210.885C968.202 211.62 968.648 212.685 968.648 214.078C968.648 215.029 968.417 215.826 967.955 216.471C967.499 217.109 966.861 217.6 966.041 217.945L969.234 223.873V224H966.588L963.736 218.521ZM960.982 216.539H963.521C964.355 216.539 965.006 216.331 965.475 215.914C965.943 215.491 966.178 214.915 966.178 214.186C966.178 213.424 965.96 212.835 965.523 212.418C965.094 212.001 964.449 211.786 963.59 211.773H960.982V216.539ZM976.416 224.195C974.912 224.195 973.691 223.723 972.754 222.779C971.823 221.829 971.357 220.566 971.357 218.99V218.697C971.357 217.643 971.559 216.702 971.963 215.875C972.373 215.042 972.946 214.394 973.682 213.932C974.417 213.469 975.238 213.238 976.143 213.238C977.581 213.238 978.691 213.697 979.473 214.615C980.26 215.533 980.654 216.832 980.654 218.512V219.469H973.75C973.822 220.341 974.111 221.031 974.619 221.539C975.133 222.047 975.778 222.301 976.553 222.301C977.64 222.301 978.525 221.861 979.209 220.982L980.488 222.203C980.065 222.835 979.499 223.326 978.789 223.678C978.086 224.023 977.295 224.195 976.416 224.195ZM976.133 215.143C975.482 215.143 974.954 215.37 974.551 215.826C974.154 216.282 973.9 216.917 973.789 217.73H978.311V217.555C978.258 216.76 978.047 216.161 977.676 215.758C977.305 215.348 976.79 215.143 976.133 215.143ZM983.061 218.639C983.061 217.011 983.438 215.706 984.193 214.723C984.949 213.733 985.961 213.238 987.23 213.238C988.35 213.238 989.255 213.629 989.945 214.41V209H992.318V224H990.17L990.053 222.906C989.343 223.766 988.396 224.195 987.211 224.195C985.974 224.195 984.971 223.697 984.203 222.701C983.441 221.705 983.061 220.351 983.061 218.639ZM985.434 218.844C985.434 219.918 985.639 220.758 986.049 221.363C986.465 221.962 987.055 222.262 987.816 222.262C988.786 222.262 989.496 221.829 989.945 220.963V216.451C989.509 215.605 988.806 215.182 987.836 215.182C987.068 215.182 986.475 215.488 986.059 216.1C985.642 216.705 985.434 217.62 985.434 218.844ZM1002.2 222.965C1001.5 223.785 1000.51 224.195 999.227 224.195C998.081 224.195 997.212 223.86 996.619 223.189C996.033 222.519 995.74 221.549 995.74 220.279V213.434H998.113V220.25C998.113 221.591 998.67 222.262 999.783 222.262C1000.94 222.262 1001.71 221.848 1002.12 221.021V213.434H1004.49V224H1002.25L1002.2 222.965ZM1012.25 222.301C1012.84 222.301 1013.33 222.128 1013.72 221.783C1014.11 221.438 1014.32 221.012 1014.35 220.504H1016.58C1016.56 221.161 1016.35 221.777 1015.97 222.35C1015.58 222.916 1015.06 223.365 1014.41 223.697C1013.75 224.029 1013.04 224.195 1012.28 224.195C1010.8 224.195 1009.63 223.717 1008.76 222.76C1007.9 221.803 1007.46 220.481 1007.46 218.795V218.551C1007.46 216.943 1007.89 215.657 1008.75 214.693C1009.61 213.723 1010.78 213.238 1012.27 213.238C1013.52 213.238 1014.55 213.606 1015.33 214.342C1016.13 215.071 1016.54 216.031 1016.58 217.223H1014.35C1014.32 216.617 1014.11 216.119 1013.72 215.729C1013.34 215.338 1012.85 215.143 1012.25 215.143C1011.48 215.143 1010.89 215.423 1010.47 215.982C1010.05 216.536 1009.84 217.379 1009.84 218.512V218.893C1009.84 220.038 1010.04 220.895 1010.45 221.461C1010.87 222.021 1011.47 222.301 1012.25 222.301ZM1024.03 224.195C1022.53 224.195 1021.3 223.723 1020.37 222.779C1019.44 221.829 1018.97 220.566 1018.97 218.99V218.697C1018.97 217.643 1019.17 216.702 1019.58 215.875C1019.99 215.042 1020.56 214.394 1021.29 213.932C1022.03 213.469 1022.85 213.238 1023.76 213.238C1025.19 213.238 1026.3 213.697 1027.09 214.615C1027.87 215.533 1028.27 216.832 1028.27 218.512V219.469H1021.36C1021.43 220.341 1021.72 221.031 1022.23 221.539C1022.75 222.047 1023.39 222.301 1024.17 222.301C1025.25 222.301 1026.14 221.861 1026.82 220.982L1028.1 222.203C1027.68 222.835 1027.11 223.326 1026.4 223.678C1025.7 224.023 1024.91 224.195 1024.03 224.195ZM1023.75 215.143C1023.1 215.143 1022.57 215.37 1022.16 215.826C1021.77 216.282 1021.51 216.917 1021.4 217.73H1025.92V217.555C1025.87 216.76 1025.66 216.161 1025.29 215.758C1024.92 215.348 1024.4 215.143 1023.75 215.143ZM1036.65 215.602C1036.34 215.549 1036.02 215.523 1035.68 215.523C1034.6 215.523 1033.86 215.94 1033.49 216.773V224H1031.11V213.434H1033.38L1033.44 214.615C1034.01 213.697 1034.8 213.238 1035.82 213.238C1036.16 213.238 1036.44 213.284 1036.66 213.375L1036.65 215.602Z" fill="#868A8F"/>
<g clip-path="url(#clip0)">
<path d="M1021 147.721C1021 143.308 1008.93 141 997.001 141C985.073 141 972.998 143.308 972.998 147.721C972.998 148.721 973.623 149.611 974.722 150.393L991.24 172.994V189.823C991.24 190.236 991.486 190.603 991.866 190.763L992.525 190.999L1002.76 180.761V172.997L1019.26 150.418L1019.26 150.406C1020.37 149.622 1021 148.726 1021 147.721ZM997.001 142.92C1010.48 142.92 1019.08 145.763 1019.08 147.721C1019.08 148.126 1018.7 148.569 1017.99 149.016L1017.94 149.01L1017.96 149.036C1015.24 150.746 1007.65 152.521 997.001 152.521C986.339 152.521 978.749 150.743 976.033 149.031L976.049 149.005L975.654 148.77C975.182 148.407 974.918 148.051 974.918 147.721C974.918 145.763 983.521 142.92 997.001 142.92ZM1000.84 179.967L993.16 187.648V173.644H1000.84V179.967ZM1001.32 171.724H992.687L978.352 152.106C982.982 153.649 990.015 154.442 997.001 154.442C1003.99 154.442 1011.02 153.649 1015.65 152.107L1001.32 171.724Z" fill="#353C44"/>
</g>
<path d="M998 602.781V612.283C998 613.794 997.515 614.992 996.545 615.877C995.581 616.756 994.296 617.195 992.688 617.195C991.06 617.195 989.768 616.762 988.811 615.896C987.854 615.024 987.375 613.816 987.375 612.273V602.781H989.836V612.293C989.836 613.243 990.077 613.969 990.559 614.471C991.04 614.972 991.75 615.223 992.688 615.223C994.589 615.223 995.539 614.22 995.539 612.215V602.781H998ZM1004.25 617H1001.79V602.781H1004.25V617Z" fill="#868A8F"/>
<path d="M986.163 580.25H1005.84L996 564.511L986.163 580.25ZM989.171 578.583L996 567.656L1002.83 578.583H989.171Z" fill="#353C44"/>
<path d="M971 537.75V571.083H989.333C989.794 571.083 990.167 570.711 990.167 570.25C990.167 569.789 989.794 569.417 989.333 569.417H972.667V539.417H1019.33V569.417H1002.67C1002.21 569.417 1001.83 569.789 1001.83 570.25C1001.83 570.711 1002.21 571.083 1002.67 571.083H1021V537.75H971Z" fill="#353C44"/>
<defs>
<filter id="filter0_d" x="889" y="284" width="220" height="220" filterUnits="userSpaceOnUse" color-interpolation-filters="sRGB">
<feFlood flood-opacity="0" result="BackgroundImageFix"/>
<feColorMatrix in="SourceAlpha" type="matrix" values="0 0 0 0 0 0 0 0 0 0 0 0 0 0 0 0 0 0 127 0"/>
<feOffset dx="3" dy="10"/>
<feGaussianBlur stdDeviation="10"/>
<feColorMatrix type="matrix" values="0 0 0 0 0 0 0 0 0 0 0 0 0 0 0 0 0 0 0.06 0"/>
<feBlend mode="normal" in2="BackgroundImageFix" result="effect1_dropShadow"/>
<feBlend mode="normal" in="SourceGraphic" in2="effect1_dropShadow" result="shape"/>
</filter>
<linearGradient id="paint0_linear" x1="1257.54" y1="538.252" x2="526.768" y2="99.2511" gradientUnits="userSpaceOnUse">
<stop stop-color="#F2F8FB"/>
<stop offset="1" stop-color="#F2F8FB" stop-opacity="0"/>
</linearGradient>
<linearGradient id="paint1_linear" x1="1281.3" y1="487.816" x2="1311.75" y2="527.816" gradientUnits="userSpaceOnUse">
<stop stop-color="#BFE1F2"/>
<stop offset="1" stop-color="#ECF0F4"/>
</linearGradient>
<linearGradient id="paint2_linear" x1="665.557" y1="164.675" x2="727.419" y2="259.896" gradientUnits="userSpaceOnUse">
<stop stop-color="#BFE1F2"/>
<stop offset="1" stop-color="#F9FBFC"/>
</linearGradient>
<linearGradient id="paint3_linear" x1="1186" y1="316" x2="1186" y2="440" gradientUnits="userSpaceOnUse">
<stop stop-color="#F7FBFC"/>
<stop offset="1" stop-color="#F5FAFC"/>
</linearGradient>
<linearGradient id="paint4_linear" x1="756" y1="315.114" x2="802.652" y2="586.117" gradientUnits="userSpaceOnUse">
<stop stop-color="#FBFDFE"/>
<stop offset="1" stop-color="#F5FAFC"/>
<stop offset="1" stop-color="#FAFCFD"/>
</linearGradient>
<linearGradient id="paint5_linear" x1="997" y1="123" x2="997" y2="245" gradientUnits="userSpaceOnUse">
<stop stop-color="#FAFCFE"/>
<stop offset="1" stop-color="#F9FCFD"/>
</linearGradient>
<clipPath id="clip0">
<rect x="972" y="141" width="50" height="50" fill="white"/>
</clipPath>
</defs>
</svg>
