<svg width="1384" height="786" viewBox="0 0 1384 786" fill="none" xmlns="http://www.w3.org/2000/svg">
<path opacity="0.854" d="M375.693 783.943C285.741 774.928 202.649 728.251 164.453 665.64C132.237 612.531 131.885 552.794 120.179 495.669C106.083 425.208 74.0391 356.672 39.7656 289.795C21.1499 253.756 1.67981 216.976 0.728027 178.768C-0.39856 125.788 36.6202 75.7026 91.6508 44.3592C146.382 12.9951 217.387 -0.656433 287.666 0.39801C325.082 0.744141 363.7 5.48749 395.836 20.9028C429.727 37.1229 453.529 63.7617 487.737 79.7763C519.303 94.6977 557.336 99.1735 593.819 99.908C641.753 100.99 689.448 96.8328 735.102 87.3109C787.194 76.4227 836.122 58.957 887.929 47.8209C939.735 36.6867 997.394 32.5444 1048.52 48.3798C1096.39 63.3065 1133.21 93.8073 1166.11 124.261C1219.96 174.57 1268.78 227.706 1311.67 283.605C1340.74 321.284 1367.28 360.601 1378.21 402.914C1399.14 483.615 1356.55 570.092 1271.67 618.191C1201.53 658.242 1110.05 671.143 1020.89 676.714C939.621 681.703 846.728 675.888 770.552 698.714C697.776 720.417 631.169 748.906 555.673 766.332C497.668 779.758 436.863 790.036 375.693 783.943Z" fill="url(#paint0_linear)"/>
<circle cx="1301.3" cy="507.816" r="20" transform="rotate(97.3562 1301.3 507.816)" fill="url(#paint1_linear)"/>
<circle cx="716.97" cy="239.896" r="20" transform="rotate(-43.7532 716.97 239.896)" fill="url(#paint2_linear)"/>
<g filter="url(#filter0_d)">
<rect x="906" y="294" width="180" height="180" rx="90" fill="white"/>
</g>
<rect opacity="0.8" x="983.696" y="366.545" width="16" height="16" rx="8" fill="#61DAFB" fill-opacity="0.8"/>
<rect opacity="0.8" x="993.696" y="366.545" width="16" height="16" rx="8" fill="#764ABC" fill-opacity="0.8"/>
<rect opacity="0.8" x="988.696" y="356.545" width="16" height="16" rx="8" fill="#ECF0F4"/>
<path d="M960.4 407.306L959.385 408.322V411.545H956.562V396.545H959.385V404.855L959.932 404.152L962.637 400.978H966.025L962.207 405.383L966.357 411.545H963.115L960.4 407.306ZM974.369 411.545C974.239 411.291 974.145 410.975 974.086 410.597C973.402 411.359 972.514 411.74 971.42 411.74C970.385 411.74 969.525 411.441 968.842 410.842C968.165 410.243 967.826 409.487 967.826 408.576C967.826 407.456 968.24 406.597 969.066 405.998C969.9 405.399 971.101 405.096 972.67 405.09H973.969V404.484C973.969 403.996 973.842 403.605 973.588 403.312C973.34 403.019 972.947 402.873 972.406 402.873C971.931 402.873 971.557 402.987 971.283 403.215C971.016 403.442 970.883 403.755 970.883 404.152H968.061C968.061 403.54 968.249 402.974 968.627 402.453C969.005 401.932 969.538 401.525 970.229 401.232C970.919 400.933 971.693 400.783 972.553 400.783C973.855 400.783 974.887 401.112 975.648 401.769C976.417 402.42 976.801 403.338 976.801 404.523V409.103C976.807 410.106 976.947 410.864 977.221 411.379V411.545H974.369ZM972.035 409.582C972.452 409.582 972.836 409.491 973.188 409.308C973.539 409.12 973.799 408.869 973.969 408.556V406.74H972.914C971.501 406.74 970.749 407.228 970.658 408.205L970.648 408.371C970.648 408.722 970.772 409.012 971.02 409.24C971.267 409.468 971.605 409.582 972.035 409.582ZM985.457 406.594H979.959V404.318H985.457V406.594ZM992.102 398.381V400.978H993.908V403.049H992.102V408.322C992.102 408.713 992.176 408.993 992.326 409.162C992.476 409.331 992.762 409.416 993.186 409.416C993.498 409.416 993.775 409.393 994.016 409.347V411.486C993.462 411.655 992.893 411.74 992.307 411.74C990.327 411.74 989.318 410.741 989.279 408.742V403.049H987.736V400.978H989.279V398.381H992.102ZM1002.6 411.545C1002.47 411.291 1002.38 410.975 1002.32 410.597C1001.64 411.359 1000.75 411.74 999.654 411.74C998.619 411.74 997.76 411.441 997.076 410.842C996.399 410.243 996.061 409.487 996.061 408.576C996.061 407.456 996.474 406.597 997.301 405.998C998.134 405.399 999.335 405.096 1000.9 405.09H1002.2V404.484C1002.2 403.996 1002.08 403.605 1001.82 403.312C1001.57 403.019 1001.18 402.873 1000.64 402.873C1000.17 402.873 999.791 402.987 999.518 403.215C999.251 403.442 999.117 403.755 999.117 404.152H996.295C996.295 403.54 996.484 402.974 996.861 402.453C997.239 401.932 997.773 401.525 998.463 401.232C999.153 400.933 999.928 400.783 1000.79 400.783C1002.09 400.783 1003.12 401.112 1003.88 401.769C1004.65 402.42 1005.04 403.338 1005.04 404.523V409.103C1005.04 410.106 1005.18 410.864 1005.46 411.379V411.545H1002.6ZM1000.27 409.582C1000.69 409.582 1001.07 409.491 1001.42 409.308C1001.77 409.12 1002.03 408.869 1002.2 408.556V406.74H1001.15C999.736 406.74 998.984 407.228 998.893 408.205L998.883 408.371C998.883 408.722 999.007 409.012 999.254 409.24C999.501 409.468 999.84 409.582 1000.27 409.582ZM1017.72 406.359C1017.72 408.052 1017.36 409.373 1016.64 410.324C1015.92 411.268 1014.91 411.74 1013.61 411.74C1012.47 411.74 1011.55 411.301 1010.87 410.422L1010.74 411.545H1008.2V396.545H1011.03V401.926C1011.68 401.164 1012.53 400.783 1013.59 400.783C1014.88 400.783 1015.89 401.258 1016.62 402.209C1017.36 403.153 1017.72 404.484 1017.72 406.203V406.359ZM1014.9 406.154C1014.9 405.086 1014.73 404.308 1014.39 403.82C1014.06 403.325 1013.55 403.078 1012.88 403.078C1011.98 403.078 1011.36 403.446 1011.03 404.181V408.351C1011.37 409.094 1012 409.465 1012.9 409.465C1013.81 409.465 1014.41 409.015 1014.7 408.117C1014.83 407.687 1014.9 407.033 1014.9 406.154ZM1023.45 411.545H1020.62V396.545H1023.45V411.545ZM1031.65 411.74C1030.1 411.74 1028.84 411.265 1027.86 410.314C1026.89 409.364 1026.4 408.097 1026.4 406.515V406.242C1026.4 405.181 1026.61 404.233 1027.02 403.4C1027.43 402.56 1028.01 401.916 1028.76 401.467C1029.51 401.011 1030.37 400.783 1031.34 400.783C1032.78 400.783 1033.92 401.239 1034.74 402.15C1035.58 403.062 1035.99 404.354 1035.99 406.027V407.179H1029.27C1029.36 407.87 1029.63 408.423 1030.09 408.84C1030.55 409.256 1031.13 409.465 1031.83 409.465C1032.92 409.465 1033.77 409.071 1034.38 408.283L1035.77 409.836C1035.35 410.435 1034.77 410.903 1034.05 411.242C1033.33 411.574 1032.53 411.74 1031.65 411.74ZM1031.33 403.068C1030.77 403.068 1030.31 403.257 1029.96 403.635C1029.61 404.012 1029.39 404.552 1029.29 405.256H1033.22V405.031C1033.21 404.406 1033.04 403.924 1032.71 403.586C1032.39 403.241 1031.93 403.068 1031.33 403.068Z" fill="#353C44"/>
<rect x="796.86" y="185.045" width="399" height="399" rx="199.5" stroke="#CBDCE4"/>
<rect x="1141.5" y="316" width="89" height="124" fill="url(#paint3_linear)"/>
<rect x="756" y="323" width="89" height="125" fill="url(#paint4_linear)"/>
<path d="M1162.19 411.717V417H1159.71V402.781H1165.15C1166.74 402.781 1168 403.195 1168.93 404.021C1169.87 404.848 1170.34 405.942 1170.34 407.303C1170.34 408.696 1169.88 409.78 1168.96 410.555C1168.05 411.329 1166.77 411.717 1165.12 411.717H1162.19ZM1162.19 409.734H1165.15C1166.03 409.734 1166.7 409.529 1167.17 409.119C1167.63 408.702 1167.86 408.104 1167.86 407.322C1167.86 406.554 1167.62 405.942 1167.16 405.486C1166.69 405.024 1166.04 404.786 1165.22 404.773H1162.19V409.734ZM1178.81 408.602C1178.5 408.549 1178.18 408.523 1177.84 408.523C1176.76 408.523 1176.02 408.94 1175.65 409.773V417H1173.27V406.434H1175.54L1175.6 407.615C1176.17 406.697 1176.96 406.238 1177.98 406.238C1178.32 406.238 1178.6 406.284 1178.82 406.375L1178.81 408.602ZM1180.51 411.619C1180.51 410.584 1180.72 409.653 1181.13 408.826C1181.54 407.993 1182.12 407.355 1182.86 406.912C1183.6 406.463 1184.45 406.238 1185.42 406.238C1186.84 406.238 1188 406.697 1188.88 407.615C1189.77 408.533 1190.26 409.751 1190.33 411.268L1190.34 411.824C1190.34 412.866 1190.14 413.797 1189.73 414.617C1189.34 415.438 1188.76 416.072 1188.01 416.521C1187.27 416.971 1186.41 417.195 1185.44 417.195C1183.94 417.195 1182.75 416.701 1181.85 415.711C1180.96 414.715 1180.51 413.39 1180.51 411.736V411.619ZM1182.89 411.824C1182.89 412.911 1183.11 413.764 1183.56 414.383C1184.01 414.995 1184.63 415.301 1185.44 415.301C1186.24 415.301 1186.86 414.988 1187.3 414.363C1187.75 413.738 1187.97 412.824 1187.97 411.619C1187.97 410.551 1187.74 409.705 1187.28 409.08C1186.83 408.455 1186.2 408.143 1185.42 408.143C1184.64 408.143 1184.03 408.452 1183.57 409.07C1183.11 409.682 1182.89 410.6 1182.89 411.824ZM1202.6 411.824C1202.6 413.458 1202.23 414.764 1201.48 415.74C1200.74 416.71 1199.75 417.195 1198.5 417.195C1197.34 417.195 1196.41 416.814 1195.71 416.053V421.062H1193.34V406.434H1195.53L1195.62 407.508C1196.32 406.661 1197.27 406.238 1198.47 406.238C1199.76 406.238 1200.76 406.72 1201.49 407.684C1202.23 408.641 1202.6 409.972 1202.6 411.678V411.824ZM1200.23 411.619C1200.23 410.564 1200.02 409.728 1199.6 409.109C1199.18 408.491 1198.58 408.182 1197.8 408.182C1196.83 408.182 1196.14 408.582 1195.71 409.383V414.07C1196.14 414.891 1196.85 415.301 1197.82 415.301C1198.58 415.301 1199.17 414.998 1199.59 414.393C1200.02 413.781 1200.23 412.856 1200.23 411.619ZM1211.54 414.129C1211.54 413.706 1211.36 413.383 1211.01 413.162C1210.66 412.941 1210.09 412.745 1209.28 412.576C1208.47 412.407 1207.8 412.192 1207.26 411.932C1206.07 411.359 1205.48 410.529 1205.48 409.441C1205.48 408.53 1205.87 407.768 1206.63 407.156C1207.4 406.544 1208.38 406.238 1209.56 406.238C1210.83 406.238 1211.85 406.551 1212.62 407.176C1213.4 407.801 1213.79 408.611 1213.79 409.607H1211.42C1211.42 409.152 1211.25 408.774 1210.91 408.475C1210.57 408.169 1210.12 408.016 1209.56 408.016C1209.04 408.016 1208.62 408.136 1208.29 408.377C1207.96 408.618 1207.8 408.94 1207.8 409.344C1207.8 409.708 1207.95 409.992 1208.26 410.193C1208.56 410.395 1209.18 410.6 1210.11 410.809C1211.04 411.01 1211.77 411.255 1212.3 411.541C1212.83 411.821 1213.23 412.16 1213.48 412.557C1213.74 412.954 1213.87 413.436 1213.87 414.002C1213.87 414.952 1213.48 415.724 1212.69 416.316C1211.9 416.902 1210.87 417.195 1209.59 417.195C1208.73 417.195 1207.96 417.039 1207.28 416.727C1206.6 416.414 1206.07 415.984 1205.7 415.438C1205.32 414.891 1205.13 414.301 1205.13 413.67H1207.44C1207.47 414.23 1207.68 414.663 1208.07 414.969C1208.46 415.268 1208.98 415.418 1209.62 415.418C1210.25 415.418 1210.72 415.301 1211.05 415.066C1211.37 414.826 1211.54 414.513 1211.54 414.129Z" fill="#868A8F"/>
<rect x="951.5" y="517" width="89" height="122" fill="#F6FAFC"/>
<rect x="947" y="123" width="100" height="122" fill="url(#paint5_linear)"/>
<path d="M777.861 421.689H772.354L771.201 425H768.633L774.004 410.781H776.221L781.602 425H779.023L777.861 421.689ZM773.047 419.697H777.168L775.107 413.799L773.047 419.697ZM788.334 423.301C788.926 423.301 789.418 423.128 789.809 422.783C790.199 422.438 790.408 422.012 790.434 421.504H792.67C792.644 422.161 792.439 422.777 792.055 423.35C791.671 423.916 791.15 424.365 790.492 424.697C789.835 425.029 789.125 425.195 788.363 425.195C786.885 425.195 785.714 424.717 784.848 423.76C783.982 422.803 783.549 421.481 783.549 419.795V419.551C783.549 417.943 783.979 416.657 784.838 415.693C785.697 414.723 786.869 414.238 788.354 414.238C789.61 414.238 790.632 414.606 791.42 415.342C792.214 416.071 792.631 417.031 792.67 418.223H790.434C790.408 417.617 790.199 417.119 789.809 416.729C789.424 416.338 788.933 416.143 788.334 416.143C787.566 416.143 786.973 416.423 786.557 416.982C786.14 417.536 785.928 418.379 785.922 419.512V419.893C785.922 421.038 786.127 421.895 786.537 422.461C786.954 423.021 787.553 423.301 788.334 423.301ZM798.436 411.865V414.434H800.301V416.191H798.436V422.09C798.436 422.493 798.514 422.786 798.67 422.969C798.833 423.145 799.119 423.232 799.529 423.232C799.803 423.232 800.079 423.2 800.359 423.135V424.971C799.819 425.12 799.298 425.195 798.797 425.195C796.974 425.195 796.062 424.189 796.062 422.178V416.191H794.324V414.434H796.062V411.865H798.436ZM805.646 425H803.273V414.434H805.646V425ZM803.127 411.689C803.127 411.325 803.241 411.022 803.469 410.781C803.703 410.54 804.035 410.42 804.465 410.42C804.895 410.42 805.227 410.54 805.461 410.781C805.695 411.022 805.812 411.325 805.812 411.689C805.812 412.048 805.695 412.347 805.461 412.588C805.227 412.822 804.895 412.939 804.465 412.939C804.035 412.939 803.703 412.822 803.469 412.588C803.241 412.347 803.127 412.048 803.127 411.689ZM808.795 419.619C808.795 418.584 809 417.653 809.41 416.826C809.82 415.993 810.396 415.355 811.139 414.912C811.881 414.463 812.734 414.238 813.697 414.238C815.123 414.238 816.279 414.697 817.164 415.615C818.056 416.533 818.538 417.751 818.609 419.268L818.619 419.824C818.619 420.866 818.417 421.797 818.014 422.617C817.617 423.438 817.044 424.072 816.295 424.521C815.553 424.971 814.693 425.195 813.717 425.195C812.226 425.195 811.031 424.701 810.133 423.711C809.241 422.715 808.795 421.39 808.795 419.736V419.619ZM811.168 419.824C811.168 420.911 811.393 421.764 811.842 422.383C812.291 422.995 812.916 423.301 813.717 423.301C814.518 423.301 815.139 422.988 815.582 422.363C816.031 421.738 816.256 420.824 816.256 419.619C816.256 418.551 816.025 417.705 815.562 417.08C815.107 416.455 814.485 416.143 813.697 416.143C812.923 416.143 812.307 416.452 811.852 417.07C811.396 417.682 811.168 418.6 811.168 419.824ZM823.828 414.434L823.896 415.654C824.678 414.71 825.703 414.238 826.973 414.238C829.173 414.238 830.293 415.498 830.332 418.018V425H827.959V418.154C827.959 417.484 827.812 416.989 827.52 416.67C827.233 416.344 826.761 416.182 826.104 416.182C825.146 416.182 824.434 416.615 823.965 417.48V425H821.592V414.434H823.828Z" fill="#868A8F"/>
<path d="M824.726 342.885C824.44 342.59 824 342.507 823.627 342.679L775.564 364.737C775.178 364.915 774.952 365.323 775.009 365.745C775.065 366.167 775.389 366.502 775.808 366.572L797.366 370.185L799.83 390.556C799.883 390.98 800.207 391.322 800.628 391.394C800.683 391.404 800.738 391.408 800.792 391.408C801.155 391.408 801.495 391.204 801.659 390.87L824.899 343.989C825.081 343.622 825.011 343.179 824.726 342.885ZM801.363 387.106L799.202 369.234C799.15 368.808 798.823 368.466 798.4 368.395L779.235 365.182L821.949 345.58L801.363 387.106Z" fill="#353C44"/>
<path d="M963.736 218.521H960.982V224H958.512V209.781H963.512C965.152 209.781 966.419 210.149 967.311 210.885C968.202 211.62 968.648 212.685 968.648 214.078C968.648 215.029 968.417 215.826 967.955 216.471C967.499 217.109 966.861 217.6 966.041 217.945L969.234 223.873V224H966.588L963.736 218.521ZM960.982 216.539H963.521C964.355 216.539 965.006 216.331 965.475 215.914C965.943 215.491 966.178 214.915 966.178 214.186C966.178 213.424 965.96 212.835 965.523 212.418C965.094 212.001 964.449 211.786 963.59 211.773H960.982V216.539ZM976.416 224.195C974.912 224.195 973.691 223.723 972.754 222.779C971.823 221.829 971.357 220.566 971.357 218.99V218.697C971.357 217.643 971.559 216.702 971.963 215.875C972.373 215.042 972.946 214.394 973.682 213.932C974.417 213.469 975.238 213.238 976.143 213.238C977.581 213.238 978.691 213.697 979.473 214.615C980.26 215.533 980.654 216.832 980.654 218.512V219.469H973.75C973.822 220.341 974.111 221.031 974.619 221.539C975.133 222.047 975.778 222.301 976.553 222.301C977.64 222.301 978.525 221.861 979.209 220.982L980.488 222.203C980.065 222.835 979.499 223.326 978.789 223.678C978.086 224.023 977.295 224.195 976.416 224.195ZM976.133 215.143C975.482 215.143 974.954 215.37 974.551 215.826C974.154 216.282 973.9 216.917 973.789 217.73H978.311V217.555C978.258 216.76 978.047 216.161 977.676 215.758C977.305 215.348 976.79 215.143 976.133 215.143ZM983.061 218.639C983.061 217.011 983.438 215.706 984.193 214.723C984.949 213.733 985.961 213.238 987.23 213.238C988.35 213.238 989.255 213.629 989.945 214.41V209H992.318V224H990.17L990.053 222.906C989.343 223.766 988.396 224.195 987.211 224.195C985.974 224.195 984.971 223.697 984.203 222.701C983.441 221.705 983.061 220.351 983.061 218.639ZM985.434 218.844C985.434 219.918 985.639 220.758 986.049 221.363C986.465 221.962 987.055 222.262 987.816 222.262C988.786 222.262 989.496 221.829 989.945 220.963V216.451C989.509 215.605 988.806 215.182 987.836 215.182C987.068 215.182 986.475 215.488 986.059 216.1C985.642 216.705 985.434 217.62 985.434 218.844ZM1002.2 222.965C1001.5 223.785 1000.51 224.195 999.227 224.195C998.081 224.195 997.212 223.86 996.619 223.189C996.033 222.519 995.74 221.549 995.74 220.279V213.434H998.113V220.25C998.113 221.591 998.67 222.262 999.783 222.262C1000.94 222.262 1001.71 221.848 1002.12 221.021V213.434H1004.49V224H1002.25L1002.2 222.965ZM1012.25 222.301C1012.84 222.301 1013.33 222.128 1013.72 221.783C1014.11 221.438 1014.32 221.012 1014.35 220.504H1016.58C1016.56 221.161 1016.35 221.777 1015.97 222.35C1015.58 222.916 1015.06 223.365 1014.41 223.697C1013.75 224.029 1013.04 224.195 1012.28 224.195C1010.8 224.195 1009.63 223.717 1008.76 222.76C1007.9 221.803 1007.46 220.481 1007.46 218.795V218.551C1007.46 216.943 1007.89 215.657 1008.75 214.693C1009.61 213.723 1010.78 213.238 1012.27 213.238C1013.52 213.238 1014.55 213.606 1015.33 214.342C1016.13 215.071 1016.54 216.031 1016.58 217.223H1014.35C1014.32 216.617 1014.11 216.119 1013.72 215.729C1013.34 215.338 1012.85 215.143 1012.25 215.143C1011.48 215.143 1010.89 215.423 1010.47 215.982C1010.05 216.536 1009.84 217.379 1009.84 218.512V218.893C1009.84 220.038 1010.04 220.895 1010.45 221.461C1010.87 222.021 1011.47 222.301 1012.25 222.301ZM1024.03 224.195C1022.53 224.195 1021.3 223.723 1020.37 222.779C1019.44 221.829 1018.97 220.566 1018.97 218.99V218.697C1018.97 217.643 1019.17 216.702 1019.58 215.875C1019.99 215.042 1020.56 214.394 1021.29 213.932C1022.03 213.469 1022.85 213.238 1023.76 213.238C1025.19 213.238 1026.3 213.697 1027.09 214.615C1027.87 215.533 1028.27 216.832 1028.27 218.512V219.469H1021.36C1021.43 220.341 1021.72 221.031 1022.23 221.539C1022.75 222.047 1023.39 222.301 1024.17 222.301C1025.25 222.301 1026.14 221.861 1026.82 220.982L1028.1 222.203C1027.68 222.835 1027.11 223.326 1026.4 223.678C1025.7 224.023 1024.91 224.195 1024.03 224.195ZM1023.75 215.143C1023.1 215.143 1022.57 215.37 1022.16 215.826C1021.77 216.282 1021.51 216.917 1021.4 217.73H1025.92V217.555C1025.87 216.76 1025.66 216.161 1025.29 215.758C1024.92 215.348 1024.4 215.143 1023.75 215.143ZM1036.65 215.602C1036.34 215.549 1036.02 215.523 1035.68 215.523C1034.6 215.523 1033.86 215.94 1033.49 216.773V224H1031.11V213.434H1033.38L1033.44 214.615C1034.01 213.697 1034.8 213.238 1035.82 213.238C1036.16 213.238 1036.44 213.284 1036.66 213.375L1036.65 215.602Z" fill="#868A8F"/>
<g clip-path="url(#clip0)">
<path d="M1021 147.721C1021 143.308 1008.93 141 997.001 141C985.073 141 972.998 143.308 972.998 147.721C972.998 148.721 973.623 149.611 974.722 150.393L991.24 172.994V189.823C991.24 190.236 991.486 190.603 991.866 190.763L992.525 190.999L1002.76 180.761V172.997L1019.26 150.418L1019.26 150.406C1020.37 149.622 1021 148.726 1021 147.721ZM997.001 142.92C1010.48 142.92 1019.08 145.763 1019.08 147.721C1019.08 148.126 1018.7 148.569 1017.99 149.016L1017.94 149.01L1017.96 149.036C1015.24 150.746 1007.65 152.521 997.001 152.521C986.339 152.521 978.749 150.743 976.033 149.031L976.049 149.005L975.654 148.77C975.182 148.407 974.918 148.051 974.918 147.721C974.918 145.763 983.521 142.92 997.001 142.92ZM1000.84 179.967L993.16 187.648V173.644H1000.84V179.967ZM1001.32 171.724H992.687L978.352 152.106C982.982 153.649 990.015 154.442 997.001 154.442C1003.99 154.442 1011.02 153.649 1015.65 152.107L1001.32 171.724Z" fill="#353C44"/>
</g>
<path d="M998 602.781V612.283C998 613.794 997.515 614.992 996.545 615.877C995.581 616.756 994.296 617.195 992.688 617.195C991.06 617.195 989.768 616.762 988.811 615.896C987.854 615.024 987.375 613.816 987.375 612.273V602.781H989.836V612.293C989.836 613.243 990.077 613.969 990.559 614.471C991.04 614.972 991.75 615.223 992.688 615.223C994.589 615.223 995.539 614.22 995.539 612.215V602.781H998ZM1004.25 617H1001.79V602.781H1004.25V617Z" fill="#868A8F"/>
<path d="M986.163 580.25H1005.84L996 564.511L986.163 580.25ZM989.171 578.583L996 567.656L1002.83 578.583H989.171Z" fill="#353C44"/>
<path d="M971 537.75V571.083H989.333C989.794 571.083 990.167 570.711 990.167 570.25C990.167 569.789 989.794 569.417 989.333 569.417H972.667V539.417H1019.33V569.417H1002.67C1002.21 569.417 1001.83 569.789 1001.83 570.25C1001.83 570.711 1002.21 571.083 1002.67 571.083H1021V537.75H971Z" fill="#353C44"/>
<path d="M1163.49 348.618L1163.48 348.637V348.656V358.258C1163.45 360.339 1162.41 362.277 1160.7 363.462L1160.29 363.75L1160.7 364.038C1162.41 365.223 1163.45 367.161 1163.48 369.242V378.844V378.863L1163.49 378.882C1163.76 381.443 1166.03 383.314 1168.6 383.1C1169.27 383.108 1169.82 383.657 1169.82 384.333C1169.82 385.014 1169.26 385.567 1168.58 385.567H1168.57L1168.57 385.567C1164.63 385.771 1161.26 382.767 1161.02 378.833V369.239V369.221L1161.01 369.202C1160.74 366.641 1158.47 364.769 1155.9 364.983C1155.23 364.976 1154.68 364.426 1154.68 363.75C1154.68 363.073 1155.23 362.524 1155.9 362.517C1158.47 362.731 1160.74 360.859 1161.01 358.298L1161.02 358.279V358.261V348.667C1161.26 344.733 1164.63 341.729 1168.57 341.933L1168.57 341.933H1168.58C1169.26 341.933 1169.82 342.485 1169.82 343.167C1169.82 343.843 1169.27 344.392 1168.6 344.4C1166.03 344.186 1163.76 346.057 1163.49 348.618Z" fill="#353C44" stroke="#F7FBFD" stroke-width="0.7"/>
<path d="M1210.99 369.202L1210.98 369.221V369.239V378.833C1210.74 382.767 1207.37 385.771 1203.43 385.567L1203.43 385.567H1203.42C1202.74 385.567 1202.18 385.014 1202.18 384.333C1202.18 383.657 1202.73 383.108 1203.4 383.1C1205.97 383.314 1208.24 381.443 1208.51 378.882L1208.52 378.863V378.844V369.242C1208.55 367.161 1209.59 365.223 1211.3 364.038L1211.71 363.75L1211.3 363.462C1209.59 362.277 1208.55 360.339 1208.52 358.258V348.656V348.637L1208.51 348.618C1208.24 346.057 1205.97 344.186 1203.4 344.4C1202.73 344.392 1202.18 343.843 1202.18 343.167C1202.18 342.485 1202.74 341.933 1203.42 341.933H1203.43L1203.43 341.933C1207.37 341.729 1210.74 344.733 1210.98 348.667V358.261V358.279L1210.99 358.298C1211.26 360.859 1213.53 362.731 1216.1 362.517C1216.77 362.524 1217.32 363.073 1217.32 363.75C1217.32 364.426 1216.77 364.976 1216.1 364.983C1213.53 364.769 1211.26 366.641 1210.99 369.202Z" fill="#353C44" stroke="#F5FAFC" stroke-width="0.7"/>
<path d="M1174.92 374.833C1175.79 374.833 1176.5 374.124 1176.5 373.25C1176.5 372.376 1175.79 371.667 1174.92 371.667C1174.04 371.667 1173.33 372.376 1173.33 373.25C1173.33 374.124 1174.04 374.833 1174.92 374.833Z" fill="#353C44"/>
<path d="M1186 374.833C1186.87 374.833 1187.58 374.124 1187.58 373.25C1187.58 372.376 1186.87 371.667 1186 371.667C1185.13 371.667 1184.42 372.376 1184.42 373.25C1184.42 374.124 1185.13 374.833 1186 374.833Z" fill="#353C44"/>
<path d="M1197.08 374.833C1197.96 374.833 1198.67 374.124 1198.67 373.25C1198.67 372.376 1197.96 371.667 1197.08 371.667C1196.21 371.667 1195.5 372.376 1195.5 373.25C1195.5 374.124 1196.21 374.833 1197.08 374.833Z" fill="#353C44"/>
<defs>
<filter id="filter0_d" x="889" y="284" width="220" height="220" filterUnits="userSpaceOnUse" color-interpolation-filters="sRGB">
<feFlood flood-opacity="0" result="BackgroundImageFix"/>
<feColorMatrix in="SourceAlpha" type="matrix" values="0 0 0 0 0 0 0 0 0 0 0 0 0 0 0 0 0 0 127 0"/>
<feOffset dx="3" dy="10"/>
<feGaussianBlur stdDeviation="10"/>
<feColorMatrix type="matrix" values="0 0 0 0 0 0 0 0 0 0 0 0 0 0 0 0 0 0 0.06 0"/>
<feBlend mode="normal" in2="BackgroundImageFix" result="effect1_dropShadow"/>
<feBlend mode="normal" in="SourceGraphic" in2="effect1_dropShadow" result="shape"/>
</filter>
<linearGradient id="paint0_linear" x1="1257.54" y1="538.252" x2="526.768" y2="99.2511" gradientUnits="userSpaceOnUse">
<stop stop-color="#F2F8FB"/>
<stop offset="1" stop-color="#F2F8FB" stop-opacity="0"/>
</linearGradient>
<linearGradient id="paint1_linear" x1="1281.3" y1="487.816" x2="1311.75" y2="527.816" gradientUnits="userSpaceOnUse">
<stop stop-color="#BFE1F2"/>
<stop offset="1" stop-color="#ECF0F4"/>
</linearGradient>
<linearGradient id="paint2_linear" x1="665.557" y1="164.675" x2="727.419" y2="259.896" gradientUnits="userSpaceOnUse">
<stop stop-color="#BFE1F2"/>
<stop offset="1" stop-color="#F9FBFC"/>
</linearGradient>
<linearGradient id="paint3_linear" x1="1186" y1="316" x2="1186" y2="440" gradientUnits="userSpaceOnUse">
<stop stop-color="#F7FBFC"/>
<stop offset="1" stop-color="#F5FAFC"/>
</linearGradient>
<linearGradient id="paint4_linear" x1="756" y1="315.114" x2="802.652" y2="586.117" gradientUnits="userSpaceOnUse">
<stop stop-color="#FBFDFE"/>
<stop offset="1" stop-color="#F5FAFC"/>
<stop offset="1" stop-color="#FAFCFD"/>
</linearGradient>
<linearGradient id="paint5_linear" x1="997" y1="123" x2="997" y2="245" gradientUnits="userSpaceOnUse">
<stop stop-color="#FAFCFE"/>
<stop offset="1" stop-color="#F9FCFD"/>
</linearGradient>
<clipPath id="clip0">
<rect x="972" y="141" width="50" height="50" fill="white"/>
</clipPath>
</defs>
</svg>
