
<svg width="4800" height="2939" viewBox="0 0 4800 2939" fill="none" xmlns="http://www.w3.org/2000/svg">
<g filter="url(#filter0_d)">
<rect width="40" height="40" rx="5" transform="matrix(0.942642 -0.333807 0.530067 0.847956 2358 2211)" fill="white"/>
</g>
<g clip-path="url(#clip0)">
<path d="M2381.43 2213.66C2376.22 2215.51 2374.66 2220.6 2377.95 2225.04C2381.24 2229.48 2388.12 2231.58 2393.33 2229.74C2398.54 2227.89 2400.09 2222.8 2396.8 2218.36C2393.51 2213.92 2386.64 2211.82 2381.43 2213.66ZM2392.4 2228.48C2388 2230.04 2382.2 2228.26 2379.42 2224.52C2376.65 2220.77 2377.96 2216.47 2382.36 2214.92C2386.75 2213.36 2392.55 2215.13 2395.33 2218.88C2398.1 2222.63 2396.79 2226.92 2392.4 2228.48Z" fill="#1D66FF"/>
<path d="M2384.42 2217.71C2384.02 2217.85 2383.89 2218.25 2384.15 2218.6L2387.14 2222.64C2387.4 2222.99 2387.94 2223.15 2388.34 2223.01C2388.75 2222.86 2388.87 2222.47 2388.62 2222.12L2385.62 2218.08C2385.37 2217.73 2384.83 2217.56 2384.42 2217.71Z" fill="#1D66FF"/>
<path d="M2390.17 2225.47C2390.72 2225.28 2390.88 2224.74 2390.54 2224.27C2390.19 2223.8 2389.46 2223.58 2388.91 2223.78C2388.37 2223.97 2388.2 2224.51 2388.55 2224.98C2388.89 2225.44 2389.62 2225.67 2390.17 2225.47Z" fill="#1D66FF"/>
</g>
<defs>
<filter id="filter0_d" x="2341.96" y="2183" width="94.9977" height="84.5682" filterUnits="userSpaceOnUse" color-interpolation-filters="sRGB">
<feFlood flood-opacity="0" result="BackgroundImageFix"/>
<feColorMatrix in="SourceAlpha" type="matrix" values="0 0 0 0 0 0 0 0 0 0 0 0 0 0 0 0 0 0 127 0"/>
<feOffset dx="2" dy="4"/>
<feGaussianBlur stdDeviation="10"/>
<feColorMatrix type="matrix" values="0 0 0 0 0 0 0 0 0 0 0 0 0 0 0 0 0 0 0.07 0"/>
<feBlend mode="normal" in2="BackgroundImageFix" result="effect1_dropShadow"/>
<feBlend mode="normal" in="SourceGraphic" in2="effect1_dropShadow" result="shape"/>
</filter>
<clipPath id="clip0">
<rect width="20" height="20" transform="matrix(0.942641 -0.333807 0.594963 0.803753 2372 2217)" fill="white"/>
</clipPath>
</defs>
</svg>
