
<svg width="4800" height="2939" viewBox="0 0 4800 2939" fill="none" xmlns="http://www.w3.org/2000/svg">
<g filter="url(#filter0_d)">
<rect width="40" height="40" rx="5" transform="matrix(0.942641 -0.333807 0.530067 0.847956 2403 2510)" fill="white"/>
</g>
<path d="M2431.66 2520.17L2432.83 2511.64C2432.9 2511.36 2432.76 2511.05 2432.48 2510.84C2432.2 2510.63 2431.82 2510.57 2431.51 2510.68L2417.3 2515.72C2416.99 2515.82 2416.81 2516.08 2416.84 2516.39C2416.85 2516.68 2417.06 2516.96 2417.37 2517.11L2426.58 2521.97C2426.86 2522.14 2427.09 2522.37 2427.24 2522.63L2431.82 2530.16C2431.98 2530.41 2432.27 2530.59 2432.58 2530.63C2432.78 2530.67 2432.97 2530.65 2433.14 2530.58C2433.25 2530.55 2433.35 2530.5 2433.43 2530.42L2435.67 2528.38C2435.91 2528.18 2435.93 2527.84 2435.72 2527.56L2431.76 2521.03C2431.62 2520.75 2431.59 2520.45 2431.66 2520.17ZM2430.43 2519.9C2430.34 2520.39 2430.44 2520.92 2430.69 2521.4L2434.54 2527.74L2432.67 2529.45L2428.3 2522.25C2428.05 2521.78 2427.62 2521.38 2427.09 2521.11L2418.4 2516.51L2431.6 2511.84L2430.43 2519.9Z" fill="#1D66FF" stroke="#1D66FF" stroke-width="0.6"/>
<path d="M2437.91 2517.93C2435.12 2518.9 2434.1 2521.77 2435.64 2524.34C2437.18 2526.9 2440.69 2528.19 2443.49 2527.22C2446.28 2526.24 2447.3 2523.37 2445.76 2520.81C2445.75 2520.79 2445.74 2520.78 2445.73 2520.76C2444.19 2518.22 2440.69 2516.95 2437.91 2517.93ZM2442.93 2526.2C2440.74 2526.99 2437.96 2526 2436.71 2523.98C2435.47 2521.97 2436.24 2519.69 2438.44 2518.9C2440.63 2518.11 2443.41 2519.1 2444.65 2521.11C2444.66 2521.12 2444.66 2521.13 2444.67 2521.14C2445.89 2523.15 2445.11 2525.41 2442.93 2526.2Z" fill="#1D66FF" stroke="#1D66FF" stroke-width="0.6"/>
<path d="M2441.96 2521.51L2440.97 2521.85L2440.44 2520.98C2440.28 2520.71 2439.91 2520.57 2439.61 2520.68C2439.32 2520.78 2439.21 2521.08 2439.38 2521.35L2439.91 2522.23L2438.87 2522.6C2438.58 2522.7 2438.48 2523 2438.64 2523.27C2438.8 2523.54 2439.17 2523.68 2439.47 2523.57L2440.5 2523.21L2441.08 2524.16C2441.24 2524.43 2441.61 2524.56 2441.91 2524.46C2442.2 2524.35 2442.31 2524.05 2442.14 2523.78L2441.56 2522.83L2442.55 2522.48C2442.84 2522.38 2442.95 2522.07 2442.78 2521.8C2442.62 2521.54 2442.25 2521.4 2441.96 2521.51Z" fill="#1D66FF" stroke="#1D66FF" stroke-width="0.6"/>
<defs>
<filter id="filter0_d" x="2386.96" y="2482" width="94.9977" height="84.5682" filterUnits="userSpaceOnUse" color-interpolation-filters="sRGB">
<feFlood flood-opacity="0" result="BackgroundImageFix"/>
<feColorMatrix in="SourceAlpha" type="matrix" values="0 0 0 0 0 0 0 0 0 0 0 0 0 0 0 0 0 0 127 0"/>
<feOffset dx="2" dy="4"/>
<feGaussianBlur stdDeviation="10"/>
<feColorMatrix type="matrix" values="0 0 0 0 0 0 0 0 0 0 0 0 0 0 0 0 0 0 0.07 0"/>
<feBlend mode="normal" in2="BackgroundImageFix" result="effect1_dropShadow"/>
<feBlend mode="normal" in="SourceGraphic" in2="effect1_dropShadow" result="shape"/>
</filter>
</defs>
</svg>
